<?xml version="1.0" standalone="no"?>
<!DOCTYPE svg PUBLIC "-//W3C//DTD SVG 1.1//EN" "http://www.w3.org/Graphics/SVG/1.1/DTD/svg11.dtd" >
<svg xmlns="http://www.w3.org/2000/svg" xmlns:xlink="http://www.w3.org/1999/xlink" version="1.1">
<metadata>
Created by FontForge 20170731 at Fri Jun 12 16:02:55 2020
 By Aleksey,,,
Copyright 2014-2020 The Fira Code Project Authors (https://github.com/tonsky/FiraCode)
</metadata>
<defs>
<font id="FiraCode-Light" horiz-adv-x="1200" >
  <font-face 
    font-family="Fira Code Light"
    font-weight="300"
    font-stretch="normal"
    units-per-em="1950"
    panose-1="2 11 8 9 5 0 0 2 0 4"
    ascent="1560"
    descent="-390"
    x-height="1050"
    cap-height="1374"
    bbox="-3541 -1000 2384 2400"
    underline-thickness="50"
    underline-position="-150"
    unicode-range="U+000D-1F310"
  />
<missing-glyph 
d="M80 -104v1582h1040v-1582h-1040zM190 0h822v1374h-822v-1374zM614 516q0 -21 -15.5 -34.5t-34.5 -13.5q-20 0 -35 13t-15 35v168q72 4 111 20t55 47.5t16 86.5q0 66 -26 102t-96 36q-30 0 -52.5 -5t-51.5 -17q-15 -6 -26 -6q-22 0 -35 13t-13 33q0 37 59 57.5t127 20.5
q120 0 171 -64t51 -166q0 -106 -45.5 -163.5t-144.5 -72.5v-90zM514 390q20 20 50 20t50 -20t20 -50q0 -32 -20 -53t-50 -21t-50 21t-20 53q0 30 20 50z" />
    <glyph glyph-name=".notdef" 
d="M80 -104v1582h1040v-1582h-1040zM190 0h822v1374h-822v-1374zM614 516q0 -21 -15.5 -34.5t-34.5 -13.5q-20 0 -35 13t-15 35v168q72 4 111 20t55 47.5t16 86.5q0 66 -26 102t-96 36q-30 0 -52.5 -5t-51.5 -17q-15 -6 -26 -6q-22 0 -35 13t-13 33q0 37 59 57.5t127 20.5
q120 0 171 -64t51 -166q0 -106 -45.5 -163.5t-144.5 -72.5v-90zM514 390q20 20 50 20t50 -20t20 -50q0 -32 -20 -53t-50 -21t-50 21t-20 53q0 30 20 50z" />
    <glyph glyph-name=".null" horiz-adv-x="0" 
 />
    <glyph glyph-name="nonmarkingreturn" unicode="&#xd;" 
 />
    <glyph glyph-name="space" unicode=" " 
 />
    <glyph glyph-name="exclam" unicode="!" 
d="M522 1374h144l-11 -937h-120zM684 185.5q35 -34.5 35 -83.5q0 -51 -35 -86.5t-87 -35.5q-51 0 -84.5 35.5t-33.5 86.5q0 49 34 83.5t84 34.5q52 0 87 -34.5z" />
    <glyph glyph-name="quotedbl" unicode="&#x22;" 
d="M503 967h-125l-30 508h184zM822 967h-124l-29 508h183z" />
    <glyph glyph-name="numbersign" unicode="#" 
d="M1083 918h-185l-62 -457h173v-107h-189l-44 -354h-109l47 354h-321l-46 -354h-109l48 354h-170v107h184l63 457h-173v108h187l47 348h108l-50 -348h324l46 348h109l-50 -348h172v-108zM469 918l-61 -457h321l63 457h-323z" />
    <glyph glyph-name="dollar" unicode="$" 
d="M689 1390q112 -12 204 -56t156 -105l-88 -90q-118 115 -272 137v-488q374 -120 374 -417q0 -93 -42.5 -174t-126.5 -137t-205 -72v-289h-127v283q-128 8 -230 60t-178 128l85 91q138 -148 323 -163v594q-171 57 -263 148.5t-92 224.5q0 75 39 145.5t119.5 120t196.5 60.5
v301h127v-302zM562 1271q-94 -16 -150.5 -69.5t-56.5 -144.5q0 -78 45.5 -131t161.5 -99v444zM689 107q113 23 169.5 90t56.5 182q0 94 -51.5 158.5t-174.5 113.5v-544z" />
    <glyph glyph-name="percent" unicode="%" 
d="M34 35l1022 1374l90 -70l-1025 -1374zM502 1348q67 -45 102 -118.5t35 -158.5t-35 -160t-102 -121t-158 -46t-158.5 46t-103.5 121.5t-36 159.5q0 86 35.5 160t103.5 118t159 44t158 -45zM265 1260q-36 -23 -58 -71t-22 -118q0 -68 21 -118t57 -76t81 -26q68 0 112 55
t44 165q0 109 -44 160.5t-112 51.5q-43 0 -79 -23zM1020 592q67 -45 102 -119t35 -159q0 -84 -35 -159t-102 -121t-158 -46t-158.5 46t-103.5 121t-36 159q0 87 35.5 161t103.5 118t159 44t158 -45zM748.5 474.5q-45.5 -52.5 -45.5 -160.5q0 -68 21 -117.5t57 -75.5t81 -26
q68 0 112 54.5t44 164.5q0 109 -44 161t-112 52t-113.5 -52.5z" />
    <glyph glyph-name="ampersand" unicode="&#x26;" 
d="M723 1360q76 -31 153 -115l-80 -76q-55 63 -114 92.5t-138 29.5q-112 0 -170.5 -59t-58.5 -157q0 -63 35.5 -119.5t96 -90.5t132.5 -34h565v-111h-193v-551q-53 -75 -150.5 -132t-250.5 -57q-147 0 -244.5 59t-143 151.5t-45.5 196.5q0 153 81.5 254t234.5 131v5
q-130 29 -186 108t-56 178q0 88 44.5 163t127.5 120t195 45q89 0 165 -31zM553 720q-104 0 -175 -50t-105 -126.5t-34 -155.5t32.5 -147t103 -110.5t176.5 -42.5q93 0 168 31.5t121 89.5v511h-287z" />
    <glyph glyph-name="quotesingle" unicode="'" 
d="M663 967h-125l-29 508h183z" />
    <glyph glyph-name="parenleft" unicode="(" 
d="M446.5 327q49.5 -157 144 -278.5t248.5 -248.5l-60 -70q-177 142 -287.5 276t-169.5 302t-59 392t59 392t169.5 302t287.5 276l60 -70q-158 -132 -252 -252t-142 -275t-48 -373q0 -216 49.5 -373z" />
    <glyph glyph-name="parenright" unicode=")" 
d="M755 1073q-48 155 -142 275t-252 252l60 70q177 -142 287.5 -276t169.5 -302t59 -392t-59 -392t-169.5 -302t-287.5 -276l-60 70q154 127 248.5 248.5t144 278.5t49.5 373q0 218 -48 373z" />
    <glyph glyph-name="asterisk" unicode="*" 
d="M666 1149h-132l4 -414l-390 129l-39 -121l392 -125l-245 -332l103 -75l241 336l241 -336l103 75l-245 332l392 125l-39 121l-390 -129z" />
    <glyph glyph-name="plus" unicode="+" 
d="M535 1071h125v-395h390v-111h-390v-391h-125v391h-385v111h385v395z" />
    <glyph glyph-name="comma" unicode="," 
d="M674 284.5q33 -19.5 52 -52t19 -71.5q0 -34 -5 -63t-20 -59l-167 -384h-134l94 386q-26 20 -41 52t-15 68q0 39 19 71.5t51.5 52t72.5 19.5q41 0 74 -19.5z" />
    <glyph glyph-name="hyphen" unicode="-" 
d="M991 568h-782v116h782v-116z" />
    <glyph glyph-name="period" unicode="." 
d="M458 225q21 37 57.5 58t81.5 21q47 0 84.5 -21t58.5 -57.5t21 -81.5q0 -46 -21 -83.5t-58.5 -59t-84.5 -21.5q-45 0 -81.5 21.5t-57.5 59t-21 83.5q0 44 21 81z" />
    <glyph glyph-name="slash" unicode="/" 
d="M1081 1563l-859 -1764l-103 45l861 1770z" />
    <glyph glyph-name="zero" unicode="0" 
d="M925 1211.5q111 -181.5 111 -524.5q0 -345 -111 -526t-325 -181q-213 0 -324.5 181.5t-111.5 525.5q0 343 111.5 524.5t324.5 181.5q214 0 325 -181.5zM350 306l444 884q-70 95 -194 95q-139 0 -216.5 -146.5t-77.5 -451.5q0 -238 44 -381zM817.5 235.5
q77.5 146.5 77.5 451.5q0 257 -49 400l-444 -894q70 -104 198 -104q140 0 217.5 146.5z" />
    <glyph glyph-name="one" unicode="1" 
d="M719 1374v-1267h296v-107h-763v107h340v1124l-325 -196l-55 91l399 248h108z" />
    <glyph glyph-name="two" unicode="2" 
d="M744 1344q90 -49 138.5 -135.5t48.5 -196.5q0 -130 -61 -254t-194.5 -272t-377.5 -372h665l-17 -114h-788v111q279 268 410.5 416t180.5 254t49 232t-70.5 198t-193.5 72q-72 0 -124.5 -15.5t-96 -47t-91.5 -86.5l-92 73q83 98 178.5 142t226.5 44q119 0 209 -49z" />
    <glyph glyph-name="three" unicode="3" 
d="M748.5 1347q92.5 -46 143.5 -124t51 -171q0 -80 -36.5 -149t-97.5 -113.5t-130 -55.5q79 -5 149.5 -45.5t114.5 -115t44 -174.5q0 -119 -58.5 -214.5t-163.5 -150t-238 -54.5q-114 0 -223 43.5t-181 133.5l94 70q56 -67 139 -102.5t172 -35.5q103 0 176.5 37t112 105.5
t38.5 160.5q0 278 -300 278h-112l16 107h78q72 0 135.5 28.5t103 87t39.5 142.5q0 80 -37 137.5t-100 86.5t-141 29q-89 0 -155.5 -30t-140.5 -99l-72 84q160 150 366 150q121 0 213.5 -46z" />
    <glyph glyph-name="four" unicode="4" 
d="M852 452h190v-104h-190v-348h-120v348h-572v96l410 949l102 -48l-378 -893h439l17 407h102v-407z" />
    <glyph glyph-name="five" unicode="5" 
d="M957 1374l-22 -106h-555v-475q65 36 122 50t126 14q114 0 198 -50t129 -146t45 -231q0 -136 -54 -237.5t-154 -157t-234 -55.5q-113 0 -205 38.5t-176 115.5l80 81q67 -65 142 -95.5t168 -30.5q146 0 224 88t78 261q0 166 -72.5 238.5t-193.5 72.5q-62 0 -107.5 -10
t-121.5 -36h-112v671h695z" />
    <glyph glyph-name="six" unicode="6" 
d="M838.5 840.5q88.5 -46.5 141 -142.5t52.5 -237q0 -150 -57 -259t-152 -165.5t-207 -56.5q-235 0 -337.5 172t-102.5 506q0 226 57.5 391.5t167 254.5t261.5 89q145 0 264 -78l-50 -91q-101 59 -220 59q-113 0 -193 -74t-121.5 -209t-44.5 -317q66 107 149.5 155.5
t194.5 48.5q109 0 197.5 -46.5zM828.5 186.5q73.5 96.5 73.5 274.5q0 168 -70.5 240t-199.5 72q-108 0 -192.5 -60t-139.5 -163q4 -161 38 -262t101.5 -149.5t174.5 -48.5q141 0 214.5 96.5z" />
    <glyph glyph-name="seven" unicode="7" 
d="M994 1271l-553 -1286l-114 34l542 1245h-657v110h782v-103z" />
    <glyph glyph-name="eight" unicode="8" 
d="M937 875.5q-62 -74.5 -184 -141.5q139 -53 220.5 -147t81.5 -220q0 -113 -57.5 -201t-161.5 -137t-239 -49q-138 0 -240.5 50t-157 137.5t-54.5 197.5q0 124 73 212t209 151q-113 49 -169.5 124.5t-56.5 188.5q0 119 63.5 198.5t155.5 116.5t179 37q97 0 189 -36
t151.5 -114t59.5 -195q0 -98 -62 -172.5zM362.5 910.5q35.5 -47.5 94 -73.5t174.5 -62l28 -9q76 40 121 77t69 85.5t24 116.5q0 113 -72.5 178t-201.5 65q-128 0 -200 -66.5t-72 -183.5q0 -80 35.5 -127.5zM874 511q-46 57 -119 91t-209 80l-26 9q-109 -46 -174.5 -123
t-65.5 -209q0 -128 80 -198.5t233 -70.5q102 0 176 35t112.5 97t38.5 142q0 90 -46 147z" />
    <glyph glyph-name="nine" unicode="9" 
d="M896.5 1241q109.5 -149 109.5 -417q0 -278 -70.5 -438t-216.5 -251.5t-414 -171.5l-31 100q207 59 335 136.5t194 195.5t69 295q-61 -83 -144 -130t-187 -47q-116 0 -205.5 52t-139 151t-49.5 235q0 142 56.5 241t153.5 148.5t218 49.5q212 0 321.5 -149zM728.5 674
q76.5 53 147.5 157q-3 165 -38 263.5t-99.5 142t-162.5 43.5q-148 0 -223 -86.5t-75 -252.5q0 -320 274 -320q100 0 176.5 53z" />
    <glyph glyph-name="colon" unicode=":" 
d="M470 933.5q19 33.5 52.5 52.5t74.5 19q42 0 76.5 -19t54 -52.5t19.5 -74.5t-19.5 -75t-54 -54t-76.5 -20q-41 0 -74.5 20t-52.5 54t-19 75t19 74.5zM470.5 202q19.5 34 52.5 54t74 20q42 0 76.5 -20t54 -54t19.5 -73q0 -41 -19.5 -75.5t-54 -54t-76.5 -19.5
q-41 0 -74.5 19.5t-52.5 54t-19 75.5q0 39 19.5 73z" />
    <glyph glyph-name="semicolon" unicode=";" 
d="M673.5 986q34.5 -19 54 -52.5t19.5 -74.5t-19.5 -75t-54 -54t-76.5 -20q-41 0 -74.5 20t-52.5 54t-19 75t19 74.5t52.5 52.5t74.5 19q42 0 76.5 -19zM673.5 292q34.5 -20 54 -53.5t19.5 -72.5q0 -36 -5.5 -65.5t-21.5 -61.5l-169 -389h-137l95 393q-26 20 -42 53t-16 69
q0 40 19.5 73.5t53 53.5t73.5 20q42 0 76.5 -20z" />
    <glyph glyph-name="less" unicode="&#x3c;" 
d="M187 705l764 472l65 -102l-723 -450l723 -456l-75 -93l-754 473v156z" />
    <glyph glyph-name="equal" unicode="=" 
d="M230 863h740v-115h-740v115zM230 496h740v-116h-740v116z" />
    <glyph glyph-name="greater" unicode="&#x3e;" 
d="M187 1080l64 97l765 -472v-156l-754 -473l-75 97l723 452z" />
    <glyph glyph-name="question" unicode="?" 
d="M796.5 1350.5q85.5 -42.5 132.5 -112t47 -146.5q0 -76 -25 -130.5t-62 -90.5t-98 -83q-58 -44 -92 -77t-57 -81.5t-23 -114.5v-78h-134v88q0 80 28 139t68 99t106 91q55 43 86.5 73t52.5 69.5t21 90.5q0 62 -33.5 106.5t-92.5 68t-133 23.5q-77 0 -154.5 -38t-138.5 -115
l-96 68q165 193 402 193q110 0 195.5 -42.5zM644.5 185.5q34.5 -34.5 34.5 -83.5q0 -52 -34.5 -87t-87.5 -35q-50 0 -84 35.5t-34 86.5q0 49 34 83.5t84 34.5q53 0 87.5 -34.5z" />
    <glyph glyph-name="at" unicode="@" 
d="M944 1273q132 -120 175.5 -300t43.5 -410q0 -268 -23.5 -426t-85.5 -237t-178 -79q-79 0 -133.5 51t-80 120t-20.5 116h-8q-77 -197 -271 -197q-152 0 -224 123.5t-72 335.5q0 257 100.5 383t282.5 126q72 0 129 -14t137 -57v-588q0 -112 21 -174t55.5 -85t82.5 -23
q63 0 93 79.5t37 199.5t7 321q0 224 -31.5 378t-127.5 249.5t-281 95.5q-112 0 -225.5 -39.5t-233.5 -144.5l-88 101q128 111 267.5 163t272.5 52q247 0 379 -120zM255 676q-60 -101 -60 -306q0 -354 177 -354q70 0 116.5 31.5t68 65t48.5 89.5v542q-35 18 -68.5 25.5
t-74.5 7.5q-147 0 -207 -101z" />
    <glyph glyph-name="A" unicode="A" 
d="M1008 0l-121 367h-586l-121 -367h-120l455 1374h169l456 -1374h-132zM596 1255l-252 -772h501z" />
    <glyph glyph-name="B" unicode="B" 
d="M988 163q-72 -87 -185 -125t-243 -38h-343v1374h309q200 0 337 -80t137 -265q0 -126 -73.5 -202t-182.5 -99q138 -24 227 -101t89 -238q0 -139 -72 -226zM580 1262h-236v-483h255q269 0 269 248q0 235 -288 235zM837.5 596q-85.5 62 -228.5 62h-265v-543h259
q131 0 225.5 57.5t94.5 204.5q0 157 -85.5 219z" />
    <glyph glyph-name="C" unicode="C" 
d="M929 1362q88 -31 172 -98l-78 -89q-65 55 -137.5 78.5t-155.5 23.5q-129 0 -230.5 -57.5t-162 -189t-60.5 -343.5q0 -208 58 -339.5t158 -190.5t231 -59q109 0 186 30.5t140 82.5l72 -92q-65 -62 -163.5 -100.5t-232.5 -38.5q-164 0 -296 82.5t-209 242.5t-77 382
q0 224 77.5 383.5t208 241t286.5 81.5q125 0 213 -31z" />
    <glyph glyph-name="D" unicode="D" 
d="M914.5 151q-177.5 -151 -430.5 -151h-298v1374h277q178 0 316 -55t225.5 -205.5t87.5 -419.5q0 -392 -177.5 -543zM885.5 1056.5q-67.5 125.5 -165 165t-218.5 39.5h-189v-1151h192q187 0 317.5 128.5t130.5 455.5q0 237 -67.5 362.5z" />
    <glyph glyph-name="E" unicode="E" 
d="M999 1260h-601v-503h520v-117h-520v-529h641v-111h-769v1374h746z" />
    <glyph glyph-name="F" unicode="F" 
d="M1059 1260h-638v-517h556v-111h-556v-632h-126v1374h781z" />
    <glyph glyph-name="G" unicode="G" 
d="M349 58.5q-116 78.5 -180 237t-64 391.5q0 227 78.5 386.5t205.5 239.5t272 80q125 0 209.5 -34t169.5 -112l-85 -88q-63 60 -136 88t-162 28q-111 0 -203.5 -56.5t-150.5 -188t-58 -342.5q0 -303 99.5 -446.5t295.5 -143.5q154 0 288 74v450h-299l-18 119h449v-647
q-108 -56 -207 -85t-233 -29q-155 0 -271 78.5z" />
    <glyph glyph-name="H" unicode="H" 
d="M1014 0h-127v674h-574v-674h-127v1374h127v-596h574v596h127v-1374z" />
    <glyph glyph-name="I" unicode="I" 
d="M223 1374h754v-109h-312v-1156h312v-109h-754v109h312v1156h-312v109z" />
    <glyph glyph-name="J" unicode="J" 
d="M975 445q0 -118 -38 -222t-137 -174t-269 -70q-95 0 -191.5 32t-174.5 92l63 89q155 -97 306 -97q152 0 233 97.5t81 266.5v803h-403v112h530v-929z" />
    <glyph glyph-name="K" unicode="K" 
d="M364 1374v-1374h-127v1374h127zM993 0l-619 734l591 640h157l-581 -633l619 -741h-167z" />
    <glyph glyph-name="L" unicode="L" 
d="M1045 0h-749v1374h128v-1250h637z" />
    <glyph glyph-name="M" unicode="M" 
d="M1053 1374l78 -1374h-131l-51 757q-8 126 -17 427l-2 67l-255 -1001h-152l-273 1001v-71q0 -30 -1 -175.5t-7 -244.5l-45 -760h-128l78 1374h213l244 -957l233 957h216z" />
    <glyph glyph-name="N" unicode="N" 
d="M297 1239q-1 -20 4 -147q11 -220 11 -352v-740h-126v1374h183l534 -1247q2 12 -0.5 60t-3.5 70q-1 21 -6 138.5t-5 242.5v736h126v-1374h-197z" />
    <glyph glyph-name="O" unicode="O" 
d="M1037 317q-56 -159 -166.5 -248t-270.5 -89t-270.5 87t-166.5 245t-56 370q0 209 56 369.5t167 251t270 90.5q160 0 270.5 -88.5t166.5 -248t56 -371.5q0 -209 -56 -368zM871.5 1125q-85.5 150 -271.5 150t-271.5 -151t-85.5 -442q0 -584 357 -584q185 0 271 148.5
t86 438.5t-85.5 440z" />
    <glyph glyph-name="P" unicode="P" 
d="M961.5 628.5q-140.5 -102.5 -386.5 -102.5h-184v-526h-128v1374h326q243 0 378 -103.5t135 -310.5q0 -229 -140.5 -331.5zM868 1193q-94 72 -252 72h-225v-628h211q171 0 265.5 70t94.5 250q0 164 -94 236z" />
    <glyph glyph-name="Q" unicode="Q" 
d="M1028.5 290.5q-66.5 -160.5 -216.5 -245.5q139 -28 219.5 -103.5t128.5 -221.5l-157 -66q-43 113 -96.5 184.5t-132.5 108.5t-194 37q-151 0 -259.5 86.5t-165 244t-56.5 367.5q0 209 57.5 369.5t169.5 251t271 90.5q160 0 272 -88.5t169 -248t57 -371.5
q0 -234 -66.5 -394.5zM597 1276q-365 0 -365 -594q0 -285 91 -434.5t274 -149.5q366 0 366 587q0 591 -366 591z" />
    <glyph glyph-name="R" unicode="R" 
d="M1015 818.5q-46 -78.5 -125.5 -128.5t-182.5 -71l422 -619h-160l-398 609h-214v-609h-128v1374h329q246 0 374.5 -96t128.5 -279q0 -102 -46 -180.5zM839 1201.5q-81 62.5 -255 62.5h-227v-545h223q168 0 254 66t86 214q0 140 -81 202.5z" />
    <glyph glyph-name="S" unicode="S" 
d="M997 169q-57 -89 -166.5 -139t-261.5 -50q-138 0 -257.5 43t-205.5 126l84 96q74 -72 167.5 -110t218.5 -38q92 0 170.5 31t127 94t48.5 155q0 74 -27.5 124t-96 88.5t-193.5 75.5q-143 41 -238 88.5t-149.5 120.5t-54.5 179q0 96 52.5 173.5t149 122t221.5 44.5
q133 0 233.5 -37.5t189.5 -113.5l-86 -94q-73 65 -159 96.5t-178 31.5q-81 0 -148 -25t-107 -75t-40 -123q0 -65 34.5 -111t112.5 -84t219 -79q120 -34 204.5 -77.5t138.5 -123t54 -204.5q0 -116 -57 -205z" />
    <glyph glyph-name="T" unicode="T" 
d="M1091 1256h-431v-1256h-127v1256h-443v118h1015z" />
    <glyph glyph-name="U" unicode="U" 
d="M1037 441q0 -137 -55.5 -241.5t-155.5 -162t-229 -57.5q-130 0 -228.5 58t-152 162.5t-53.5 240.5v933h126v-977q0 -145 83 -220t225 -75q144 0 227.5 75t83.5 220v977h129v-933z" />
    <glyph glyph-name="V" unicode="V" 
d="M203 1374l400 -1194l405 1194h127l-479 -1374h-112l-480 1374h139z" />
    <glyph glyph-name="W" unicode="W" 
d="M1062 1374h124l-224 -1374h-194l-175 1053l-173 -1053h-200l-206 1374h134l177 -1210l180 1050h192l172 -1050z" />
    <glyph glyph-name="X" unicode="X" 
d="M522 733l-405 641h153l330 -554l330 554h140l-397 -633l448 -741h-153l-372 650l-379 -650h-139z" />
    <glyph glyph-name="Y" unicode="Y" 
d="M1134 1374l-469 -840v-534h-130v532l-469 842h142l395 -717l400 717h131z" />
    <glyph glyph-name="Z" unicode="Z" 
d="M1041 1263l-746 -1146h739l-17 -117h-855v110l749 1147h-677v117h807v-111z" />
    <glyph glyph-name="bracketleft" unicode="[" 
d="M852 -226h-467v1852h467v-117h-350v-1620h350v-115z" />
    <glyph glyph-name="backslash" unicode="\" 
d="M978 -201l-859 1764l101 51l861 -1770z" />
    <glyph glyph-name="bracketright" unicode="]" 
d="M348 1626h467v-1852h-467v114h350v1621h-350v117z" />
    <glyph glyph-name="asciicircum" unicode="^" 
d="M546 1676h108l378 -622h-145l-289 497l-290 -497h-140z" />
    <glyph glyph-name="underscore" unicode="_" 
d="M1100 -360h-1000v117h1000v-117z" />
    <glyph glyph-name="grave" unicode="`" 
d="M811 1317l-45 -73l-384 185l80 116z" />
    <glyph glyph-name="a" unicode="a" 
d="M932 207q0 -62 21 -92.5t69 -44.5l-34 -91q-64 10 -109.5 46.5t-63.5 104.5q-55 -73 -137.5 -111.5t-186.5 -38.5q-103 0 -178.5 39.5t-115.5 112.5t-40 171q0 160 125 245t362 85h159v102q0 118 -67.5 170t-195.5 52q-121 0 -269 -53l-36 102q91 34 169 48.5t154 14.5
q121 0 205 -41t126.5 -115t42.5 -174v-532zM675 121q75 42 128 117v300h-174q-178 0 -256.5 -62t-78.5 -177q0 -110 54.5 -165t166.5 -55q85 0 160 42z" />
    <glyph glyph-name="b" unicode="b" 
d="M343 905q61 80 139 122t170 42q205 0 300 -143.5t95 -400.5q0 -160 -48 -283t-141 -192.5t-225 -69.5q-96 0 -168 32t-126 101l-12 -113h-108v1475l124 17v-587zM830 198.5q77 110.5 77 328.5q0 211 -69 323.5t-204 112.5q-90 0 -164 -52.5t-127 -130.5v-544
q46 -68 115.5 -108t147.5 -40q147 0 224 110.5z" />
    <glyph glyph-name="c" unicode="c" 
d="M954 187l65 -84q-67 -56 -163 -89.5t-182 -33.5q-151 0 -258 66t-163 188t-56 287q0 158 56 282t164 195t258 71q193 0 341 -119l-66 -89q-143 98 -281 98q-98 0 -173.5 -50t-118 -148.5t-42.5 -239.5q0 -143 42 -238.5t117.5 -142t174.5 -46.5q153 0 285 93z" />
    <glyph glyph-name="d" unicode="d" 
d="M857 1492l124 -17v-1475h-108l-16 145q-60 -86 -136.5 -125.5t-163.5 -39.5q-202 0 -303 145.5t-101 396.5q0 158 49 282t141.5 194.5t219.5 70.5q95 0 167 -33t127 -99v555zM370 850.5q-77 -111.5 -77 -327.5q0 -209 71 -322t209 -113q165 0 284 179v546
q-46 71 -114.5 110t-148.5 39q-147 0 -224 -111.5z" />
    <glyph glyph-name="e" unicode="e" 
d="M309 475q2 -127 46 -212.5t116.5 -127t161.5 -41.5q80 0 144.5 23t138.5 74l65 -93q-72 -56 -163.5 -87t-179.5 -31q-143 0 -247.5 67.5t-159.5 190.5t-55 286q0 159 55.5 282.5t156.5 193t231 69.5q126 0 218 -61.5t140.5 -176t48.5 -270.5q0 -23 -3 -86h-714z
M467.5 912.5q-67.5 -40.5 -108.5 -122.5t-48 -203h597q-4 180 -81 273t-205 93q-87 0 -154.5 -40.5z" />
    <glyph glyph-name="f" unicode="f" 
d="M962 1478.5q63 -13.5 125 -40.5l-45 -101q-96 46 -225 46q-115 0 -175 -46.5t-60 -137.5v-235h361l-13 -106h-348v-858h-124v858h-260v106h260v227q0 92 49.5 160.5t133.5 104.5t184 36q74 0 137 -13.5z" />
    <glyph glyph-name="g" unicode="g" 
d="M1095 1009q-64 -18 -133 -23t-176 -5q88 -41 132.5 -108t44.5 -154q0 -105 -45 -186.5t-131 -127t-204 -45.5q-58 0 -95 5.5t-73 17.5q-26 -20 -43 -51t-17 -64q0 -95 148 -95h194q100 0 183 -37t131.5 -101t48.5 -141q0 -151 -127 -231.5t-357 -80.5q-157 0 -249.5 32.5
t-133.5 100t-41 177.5h114q0 -70 26 -111.5t92.5 -62.5t187.5 -21q182 0 271 46.5t89 142.5q0 80 -74 122.5t-188 42.5h-194q-81 0 -136 26.5t-82.5 70.5t-27.5 97q0 49 29 95t85 84q-88 46 -130.5 116t-42.5 171q0 102 51 184t143 128.5t210 46.5q133 1 214.5 9.5t135.5 23
t124 42.5zM367 900q-68 -72 -68 -191t70 -191t209 -72q120 0 184.5 69.5t64.5 194.5q0 128 -64.5 195t-190.5 67q-137 0 -205 -72z" />
    <glyph glyph-name="h" unicode="h" 
d="M343 895q59 83 152 128.5t191 45.5q298 0 298 -309v-760h-124v782q0 94 -51 139t-155 45q-64 0 -125 -28.5t-109 -72t-77 -88.5v-777h-124v1472l124 15v-592z" />
    <glyph glyph-name="i" unicode="i" 
d="M676.5 1496.5q28.5 -28.5 28.5 -70.5q0 -45 -28.5 -74t-75.5 -29q-45 0 -73 29t-28 74q0 42 28.5 70.5t72.5 28.5q47 0 75.5 -28.5zM272 1050h446v-942h305v-108h-761v108h332v834h-322v108z" />
    <glyph glyph-name="j" unicode="j" 
d="M807 1496.5q29 -28.5 29 -70.5q0 -45 -29 -74t-76 -29q-45 0 -72.5 29t-27.5 74q0 42 28 70.5t72 28.5q47 0 76 -28.5zM874 128q0 -232 -166 -364.5t-480 -181.5l-21 97q543 79 543 440v823h-455v108h579v-922z" />
    <glyph glyph-name="k" unicode="k" 
d="M233 1475l124 17v-1492h-124v1475zM879 1050h185l-511 -475l573 -575h-179l-569 573z" />
    <glyph glyph-name="l" unicode="l" 
d="M586 238q0 -78 49.5 -114t135.5 -36q88 0 185 38l36 -96q-43 -22 -103.5 -36t-129.5 -14q-84 0 -151.5 30.5t-106.5 89t-39 138.5v1129h-326v108h450v-1237z" />
    <glyph glyph-name="m" unicode="m" 
d="M1085 783v-783h-122v759q0 86 -5 128t-24 63t-60 21q-56 0 -108.5 -35t-97.5 -108v-828h-138v759q0 86 -5 128t-24 63t-60 21q-118 0 -206 -143v-828h-120v1050h102l7 -127q48 68 102.5 107t128.5 39q155 0 200 -143q45 70 98.5 106.5t132.5 36.5q199 0 199 -286z" />
    <glyph glyph-name="n" unicode="n" 
d="M219 0v1050h104l10 -153q40 53 100 92t126.5 59.5t126.5 20.5q156 0 227 -79t71 -230v-760h-124v627q0 132 -13.5 201.5t-57 103.5t-133.5 34q-66 0 -127.5 -29t-108.5 -73t-77 -90v-774h-124z" />
    <glyph glyph-name="o" unicode="o" 
d="M841 1003q97 -66 145 -188t48 -290q0 -158 -49.5 -281.5t-147.5 -193.5t-237 -70q-141 0 -238.5 67.5t-146.5 189.5t-49 286q0 163 49.5 286t148 191.5t239.5 68.5t238 -66zM302 523q0 -433 298 -433t298 435t-295 435q-301 0 -301 -437z" />
    <glyph glyph-name="p" unicode="p" 
d="M945.5 927q88.5 -142 88.5 -402q0 -162 -44 -284.5t-135 -191.5t-226 -69q-179 0 -286 125v-506l-124 -17v1468h102l14 -155q58 82 139.5 128t180.5 46q202 0 290.5 -142zM470 910.5q-74 -52.5 -127 -130.5v-544q44 -66 114.5 -104.5t151.5 -38.5q146 0 217.5 107.5
t71.5 326.5q0 436 -265 436q-89 0 -163 -52.5z" />
    <glyph glyph-name="q" unicode="q" 
d="M732.5 1033q74.5 -36 130.5 -107l14 124h104v-1468l-124 17v547q-59 -85 -137 -125.5t-166 -40.5q-206 0 -297 141.5t-91 400.5q0 159 45.5 283t134 194t214.5 70q98 0 172.5 -36zM302 523q0 -210 66.5 -320.5t200.5 -110.5q90 0 163 49.5t125 125.5v546
q-44 70 -114.5 109.5t-153.5 39.5q-287 0 -287 -439z" />
    <glyph glyph-name="r" unicode="r" 
d="M967.5 1066q30.5 -5 74.5 -16l-14 -330h-120v205l2 26q-8 1 -25 1q-128 0 -216.5 -87.5t-144.5 -272.5v-488h216v-104h-511v104h171v841h-171v105h266l23 -252q66 137 154 205t228 68q37 0 67.5 -5z" />
    <glyph glyph-name="s" unicode="s" 
d="M710 116.5q65 23.5 99.5 65.5t34.5 98q0 57 -18 93.5t-72.5 66.5t-164.5 57q-127 31 -204.5 64.5t-120.5 89.5t-43 143q0 85 49 147t135.5 95t196.5 33q115 0 207 -31t161 -82l-58 -92q-66 46 -137 70.5t-172 24.5q-132 0 -191.5 -41.5t-59.5 -113.5q0 -52 27 -85.5
t87 -58.5t174 -55q113 -30 187 -68t115 -99.5t41 -154.5q0 -105 -60 -173t-156.5 -99t-210.5 -31q-235 0 -393 137l77 91q63 -54 144.5 -84.5t172.5 -30.5q88 0 153 23.5z" />
    <glyph glyph-name="t" unicode="t" 
d="M1020 50q-50 -33 -123.5 -51.5t-139.5 -18.5q-103 0 -179.5 38t-117 105t-40.5 152v671h-248v104h248v242l124 15v-257h370l-17 -104h-353v-668q0 -94 51 -142t165 -48q109 0 206 51z" />
    <glyph glyph-name="u" unicode="u" 
d="M343 299q0 -112 47.5 -163.5t150.5 -51.5q93 0 180.5 53.5t135.5 129.5v783h124v-1050h-104l-14 147q-63 -79 -155 -123t-185 -44q-150 0 -227 78.5t-77 225.5v766h124v-751z" />
    <glyph glyph-name="v" unicode="v" 
d="M930 1050h130l-391 -1050h-143l-386 1050h129l334 -924z" />
    <glyph glyph-name="w" unicode="w" 
d="M1157 1050l-194 -1050h-205l-150 790l-163 -790h-199l-203 1050h137l154 -974l185 840h179l176 -840l153 974h130z" />
    <glyph glyph-name="x" unicode="x" 
d="M597 468l-319 -468h-147l396 555l-344 495h153l266 -407l272 407h149l-349 -489l395 -561h-161z" />
    <glyph glyph-name="y" unicode="y" 
d="M682 -9q-40 -113 -90 -195.5t-134 -140t-209 -72.5l-22 108q106 19 169 58t98.5 97t66.5 154h-41l-377 1050h134l331 -944l320 944h129z" />
    <glyph glyph-name="z" unicode="z" 
d="M977 948l-598 -833h602l-19 -115h-739v99l601 833h-554v118h707v-102z" />
    <glyph glyph-name="braceleft" unicode="{" 
d="M894 1562q-128 0 -204 -39.5t-67 -129.5l45 -445q3 -27 3 -50q0 -87 -37.5 -134.5t-115.5 -63.5q79 -15 116 -59t37 -133q0 -26 -3 -56l-45 -445q-1 -6 -1 -18q0 -81 74.5 -116t197.5 -35v-106q-158 0 -272.5 58.5t-114.5 200.5q0 10 2 36l44 408q3 24 3 47
q0 56 -25.5 92.5t-94 56.5t-194.5 20v98q126 0 194.5 19.5t94 55.5t25.5 92q0 22 -3 47l-44 411q-2 24 -2 35q0 141 114 200t273 59v-106z" />
    <glyph glyph-name="bar" unicode="|" 
d="M546 1800h108v-2400h-108v2400z" />
    <glyph glyph-name="braceright" unicode="}" 
d="M306 1668q158 0 272.5 -58.5t114.5 -200.5q0 -10 -2 -36l-44 -410q-2 -24 -2 -35q0 -59 28.5 -98t97 -60t187.5 -21v-98q-174 0 -243.5 -46t-69.5 -135q0 -11 2 -35l44 -409q2 -24 2 -35q0 -141 -114 -200t-273 -59v106q130 0 205 39t66 130l-45 445q-3 32 -3 58
q0 90 41 131.5t141 55.5q-95 17 -138 66t-43 139q0 30 2 46l45 445q1 6 1 17q0 81 -74.5 116.5t-197.5 35.5v106z" />
    <glyph glyph-name="asciitilde" unicode="~" 
d="M507 767.5q43 -16.5 74 -40.5t71 -61q44 -42 74.5 -62t66.5 -20q109 0 204 173l103 -56q-35 -63 -73 -112.5t-98 -86t-141 -36.5q-47 0 -87 16t-70 38.5t-71 59.5q-47 43 -80.5 64.5t-72.5 21.5q-63 0 -111.5 -45.5t-92.5 -127.5l-103 54q34 66 72 116t98 85.5t142 35.5
q52 0 95 -16.5z" />
    <glyph glyph-name="uni00A0" unicode="&#xa0;" 
 />
    <glyph glyph-name="exclamdown" unicode="&#xa1;" 
d="M683.5 954.5q35.5 -34.5 35.5 -85.5q0 -50 -35.5 -85t-86.5 -35q-50 0 -84 35t-34 85q0 51 33.5 85.5t84.5 34.5t86.5 -34.5zM541 533h112l21 -923h-152z" />
    <glyph glyph-name="cent" unicode="&#xa2;" 
d="M734 1060q131 -11 238 -97l-69 -88q-66 48 -121 66t-118 18q-141 0 -219.5 -112t-78.5 -326q0 -215 78 -321t221 -106q64 0 121 20.5t123 71.5l63 -94q-53 -46 -111.5 -69.5t-126.5 -32.5v-292h-126v293q-187 20 -283.5 158.5t-96.5 371.5q0 147 42.5 262.5t128.5 187.5
t211 88v302h124v-301z" />
    <glyph glyph-name="sterling" unicode="&#xa3;" 
d="M881.5 1353.5q87.5 -39.5 150.5 -123.5l-90 -70q-53 62 -114.5 91t-138.5 29q-114 0 -173 -66t-59 -192v-255h428v-103h-428v-277q0 -97 -25 -164.5t-97 -107.5h685l-15 -115h-837v109q76 24 111.5 62.5t44 84t8.5 118.5v290h-169v103h169v272q0 101 43.5 181.5
t124.5 126.5t189 46q105 0 192.5 -39.5z" />
    <glyph glyph-name="currency" unicode="&#xa4;" 
d="M352 1033q53 33 116.5 51.5t133.5 18.5q146 0 246 -70l183 183l98 -99l-179 -181q36 -51 56 -116t20 -136q0 -140 -78 -257l181 -178l-98 -100l-186 182q-102 -68 -243 -68q-145 0 -250 68l-183 -183l-98 99l183 182q-74 111 -74 255q0 139 72 250l-181 185l98 99z
M398.5 909q-70.5 -81 -70.5 -225q0 -145 70.5 -225.5t203.5 -80.5t203 80t70 226q0 145 -70 225.5t-203 80.5t-203.5 -81z" />
    <glyph glyph-name="yen" unicode="&#xa5;" 
d="M968 1374h134l-397 -687h250v-104h-288v-182h288v-102h-288v-299h-136v299h-284v102h284v182h-284v104h244l-393 687h146l357 -651h8z" />
    <glyph glyph-name="brokenbar" unicode="&#xa6;" 
d="M545 1611h108v-705h-108v705zM545 504h108v-705h-108v705z" />
    <glyph glyph-name="section" unicode="&#xa7;" 
d="M808 1366q74 -27 144 -79l-72 -94q-64 45 -123 66.5t-142 21.5q-91 0 -148.5 -42.5t-57.5 -113.5q0 -50 21 -83t74 -61t157 -64q115 -39 181 -80t96 -94.5t30 -129.5t-45 -141t-116 -108q121 -89 121 -214q0 -87 -47.5 -150.5t-131 -97t-189.5 -33.5q-102 0 -183 28.5
t-148 81.5l74 89q60 -44 123.5 -65t148.5 -21q60 0 108.5 18.5t77 54t28.5 82.5q0 51 -21.5 83.5t-73 59.5t-154.5 61q-116 41 -183 82t-97.5 94.5t-30.5 131.5q0 75 45.5 140t115.5 108q-119 88 -119 213q0 87 49.5 151t132 98t179.5 34q102 0 176 -27zM394 758
q-29 -49 -29 -95q0 -60 25.5 -93.5t83.5 -60t204 -80.5l48 -17q51 40 80 88.5t29 96.5q0 57 -26 90t-84.5 60.5t-206.5 83.5l-43 16q-52 -40 -81 -89z" />
    <glyph glyph-name="dieresis" unicode="&#xa8;" 
d="M332.5 1328.5q-26.5 25.5 -26.5 64.5q0 41 26.5 67t67.5 26q38 0 64.5 -26t26.5 -67q0 -39 -26.5 -64.5t-64.5 -25.5q-41 0 -67.5 25.5zM732 1328.5q-26 25.5 -26 64.5q0 41 26 67t65 26q41 0 67.5 -26t26.5 -67q0 -39 -26.5 -64.5t-67.5 -25.5q-39 0 -65 25.5z" />
    <glyph glyph-name="copyright" unicode="&#xa9;" 
d="M884 1405q119 -81 182 -219.5t63 -308.5q0 -169 -63 -308t-182 -220t-282 -81q-162 0 -282.5 81t-184.5 220t-64 308q0 170 63 308.5t183.5 219.5t284.5 81q163 0 282 -81zM364 1329.5q-98 -68.5 -147.5 -186.5t-49.5 -266q0 -147 49.5 -264.5t147.5 -185.5t238 -68
q139 0 237 68t147 185.5t49 264.5q0 148 -49.5 266t-147 186.5t-236.5 68.5q-140 0 -238 -68.5zM730.5 1236q51.5 -17 109.5 -56l-63 -88q-78 64 -170 64q-91 0 -147.5 -68.5t-56.5 -208.5q0 -132 55.5 -201t148.5 -69q56 0 100.5 18.5t84.5 55.5l58 -86q-47 -41 -105.5 -66
t-136.5 -25q-93 0 -166.5 43t-115 127.5t-41.5 202.5q0 120 44 204.5t117.5 127t159.5 42.5q73 0 124.5 -17z" />
    <glyph glyph-name="ordfeminine" unicode="&#xaa;" 
d="M815 1420q82 -72 82 -199v-416q0 -44 16.5 -67t51.5 -34l-30 -89q-56 7 -93 35.5t-56 83.5q-49 -56 -120.5 -86.5t-147.5 -30.5q-90 0 -158.5 32t-106.5 91t-38 137q0 131 114.5 199.5t319.5 68.5h120v71q0 85 -54 126t-153 41q-47 0 -111.5 -12t-133.5 -36l-40 98
q152 59 302 59q154 0 236 -72zM638 1049q-288 0 -288 -165q0 -83 50.5 -126t142.5 -43q65 0 124.5 31.5t101.5 85.5v217h-131zM214 132h774v-132h-774v132z" />
    <glyph glyph-name="guillemotleft" unicode="&#xab;" 
d="M333 591l281 -408l-77 -50l-354 408v98l354 412l77 -50zM733 591l281 -408l-77 -50l-356 408v98l356 412l77 -50z" />
    <glyph glyph-name="logicalnot" unicode="&#xac;" 
d="M250 676h700v-389h-123v276h-577v113z" />
    <glyph glyph-name="uni00AD" unicode="&#xad;" 
d="M907 568h-614v116h614v-116z" />
    <glyph glyph-name="registered" unicode="&#xae;" 
d="M846 1418.5q113 -67.5 179.5 -182t66.5 -248.5t-66.5 -247.5t-179.5 -180t-247 -66.5q-133 0 -246 66.5t-180 180t-67 247.5t67 248.5t180 182t246 67.5q134 0 247 -67.5zM393.5 1348q-92.5 -56 -145.5 -151.5t-53 -208.5t53 -207.5t145.5 -150t205.5 -55.5t205.5 55.5
t145.5 150t53 207.5t-53 208.5t-145.5 151.5t-205.5 56t-205.5 -56zM574 1273q120 0 180 -42.5t60 -124.5q0 -63 -38 -103t-101 -56l177 -236h-123l-159 220h-60v-220h-104v562h168zM510 1191v-181h69q63 0 95 21.5t32 72.5q0 87 -132 87h-64z" />
    <glyph glyph-name="macron" unicode="&#xaf;" 
d="M857 1464v-101h-517v101h517z" />
    <glyph glyph-name="degree" unicode="&#xb0;" 
d="M598 1455.5q72 -36.5 115.5 -106t43.5 -163.5q0 -95 -43.5 -164t-115.5 -105t-156 -36q-83 0 -154.5 36t-115.5 106t-44 166q0 93 44 161.5t116 105t154 36.5q84 0 156 -36.5zM350 1370q-43 -22 -70.5 -67.5t-27.5 -113.5q0 -69 27.5 -116t70.5 -69.5t92 -22.5
q50 0 93.5 22t70 68.5t26.5 114.5t-26.5 114.5t-70 69t-93.5 22.5q-49 0 -92 -22z" />
    <glyph glyph-name="plusminus" unicode="&#xb1;" 
d="M535 1063h130v-294h285v-112h-285v-339h-130v339h-285v112h285v294zM250 118h700v-118h-700v118z" />
    <glyph glyph-name="uni00B2" unicode="&#xb2;" 
d="M832.5 956q-33.5 -49 -106.5 -97.5t-213 -120.5h371l-14 -108h-550v93l69 43q160 100 224.5 144t94.5 80.5t30 80.5q0 50 -34 77.5t-95 27.5q-120 0 -206 -105l-90 69q60 70 135.5 107t156.5 37q123 0 192 -57.5t69 -156.5q0 -65 -33.5 -114z" />
    <glyph glyph-name="uni00B3" unicode="&#xb3;" 
d="M804 1236.5q68 -47.5 68 -130.5q0 -54 -32.5 -86.5t-111.5 -44.5q89 -14 130 -48t41 -105q0 -60 -35.5 -106t-103.5 -72t-162 -26q-83 0 -160 29t-136 90l81 66q46 -42 105 -64t119 -22q83 0 124.5 28t41.5 75q0 56 -38.5 80.5t-116.5 24.5h-89l12 72h65q70 0 106.5 21
t36.5 71q0 98 -136 98q-120 0 -219 -82l-67 74q124 105 291 105q118 0 186 -47.5z" />
    <glyph glyph-name="acute" unicode="&#xb4;" 
d="M392 1360l380 211l64 -116l-402 -165z" />
    <glyph glyph-name="uni00B5" unicode="&#xb5;" 
d="M943 323q0 -166 65 -323l-121 -22q-17 24 -33.5 78.5t-21.5 95.5q-47 -78 -130.5 -125.5t-166.5 -47.5q-87 0 -134 22.5t-84 78.5q-1 -29 0 -63.5t1 -49.5q1 -11 1 -25v-343l-129 -18v1469h125v-586q0 -127 13.5 -202.5t56 -117.5t127.5 -42q99 0 175.5 48.5t131.5 124.5
v775h124v-727z" />
    <glyph glyph-name="paragraph" unicode="&#xb6;" 
d="M1098 1374v-1771l-121 -22v1675h-242v-1653l-121 -22v1010q-165 -2 -281 49.5t-175 141t-59 197.5q0 111 59 200.5t174 142t277 52.5h489z" />
    <glyph glyph-name="periodcentered" unicode="&#xb7;" 
d="M458 765q21 37 57.5 58t81.5 21q47 0 84.5 -21t58.5 -57.5t21 -81.5q0 -46 -21 -83.5t-58.5 -59t-84.5 -21.5q-45 0 -81.5 21.5t-57.5 59t-21 83.5q0 44 21 81z" />
    <glyph glyph-name="cedilla" unicode="&#xb8;" 
d="M651 -205.5q-42 18.5 -128 18.5l14 219h97v-151q90 -7 134.5 -52.5t44.5 -105.5q0 -62 -32.5 -104t-84 -62t-111.5 -20q-57 0 -110 11.5t-91 33.5l48 83q27 -15 65 -23t72 -8q58 0 91 21t33 67q0 54 -42 72.5z" />
    <glyph glyph-name="uni00B9" unicode="&#xb9;" 
d="M789 630h-115v495l-202 -112l-60 87l287 172h90v-642z" />
    <glyph glyph-name="ordmasculine" unicode="&#xba;" 
d="M809 1439.5q89 -52.5 137.5 -151t48.5 -233.5q0 -128 -49 -227.5t-138.5 -155t-207.5 -55.5q-119 0 -209.5 54t-139.5 153t-49 231q0 129 49.5 228.5t140 154t208.5 54.5q120 0 209 -52.5zM407.5 1300.5q-69.5 -82.5 -69.5 -245.5t69.5 -247t192.5 -84t191 83.5t68 247.5
q0 163 -68 245.5t-191 82.5t-192.5 -82.5zM215 132h773v-132h-773v132z" />
    <glyph glyph-name="guillemotright" unicode="&#xbb;" 
d="M183 183l282 408l-282 410l77 50l354 -412v-98l-354 -408zM581 183l282 408l-282 410l77 50l356 -412v-98l-356 -408z" />
    <glyph glyph-name="onequarter" unicode="&#xbc;" 
d="M385 734h-115v495l-202 -112l-60 87l287 172h90v-642zM1152 885l-1068 -512l-56 94l1070 512zM1193 112h-118v-112h-126v112h-356v86l280 465l103 -47l-239 -394h210l7 175h121v-175h118v-110z" />
    <glyph glyph-name="onehalf" unicode="&#xbd;" 
d="M379 734h-115v495l-202 -112l-60 87l287 172h90v-642zM1144 885l-1068 -512l-56 94l1070 512zM1148.5 326q-33.5 -49 -106.5 -97.5t-213 -120.5h371l-14 -108h-550v93l69 43q160 100 224.5 144t94.5 80.5t30 80.5q0 50 -34 77.5t-95 27.5q-120 0 -206 -105l-90 69
q60 70 135.5 107t156.5 37q123 0 192 -57.5t69 -156.5q0 -65 -33.5 -114z" />
    <glyph glyph-name="threequarters" unicode="&#xbe;" 
d="M503 1340.5q68 -47.5 68 -130.5q0 -54 -32.5 -86.5t-111.5 -44.5q89 -14 130 -48t41 -105q0 -60 -35.5 -106t-103.5 -72t-162 -26q-83 0 -160 29t-136 90l81 66q46 -42 105 -64t119 -22q83 0 124.5 28t41.5 75q0 56 -38.5 80.5t-116.5 24.5h-89l12 72h65q70 0 106.5 21
t36.5 71q0 98 -136 98q-120 0 -219 -82l-67 74q124 105 291 105q118 0 186 -47.5zM1173 885l-1068 -512l-56 94l1070 512zM1198 112h-118v-112h-126v112h-356v86l280 465l103 -47l-239 -394h210l7 175h121v-175h118v-110z" />
    <glyph glyph-name="questiondown" unicode="&#xbf;" 
d="M738 954.5q35 -34.5 35 -85.5q0 -50 -35.5 -85t-86.5 -35q-50 0 -84 35t-34 85q0 51 34 85.5t84 34.5q52 0 87 -34.5zM727 445q0 -80 -28 -139t-68 -99t-106 -91q-55 -43 -86.5 -73t-52.5 -69.5t-21 -90.5q0 -62 33.5 -106.5t92.5 -68t133 -23.5q77 0 154.5 38t138.5 115
l96 -68q-165 -193 -402 -193q-110 0 -195.5 42.5t-132.5 112t-47 146.5q0 76 25 130.5t62 90.5t98 83q58 44 92 77t57 81.5t23 114.5v78h134v-88z" />
    <glyph glyph-name="Agrave" unicode="&#xc0;" 
d="M1008 0l-121 367h-586l-121 -367h-120l455 1374h169l456 -1374h-132zM596 1255l-252 -772h501zM381 1676l86 117l351 -210l-44 -69z" />
    <glyph glyph-name="Aacute" unicode="&#xc1;" 
d="M1008 0l-121 367h-586l-121 -367h-120l455 1374h169l456 -1374h-132zM596 1255l-252 -772h501zM381 1583l386 201l63 -117l-413 -153z" />
    <glyph glyph-name="Acircumflex" unicode="&#xc2;" 
d="M1008 0l-121 367h-586l-121 -367h-120l455 1374h169l456 -1374h-132zM596 1255l-252 -772h501zM557 1802h89l265 -202l-62 -72l-249 158l-246 -158l-64 72z" />
    <glyph glyph-name="Atilde" unicode="&#xc3;" 
d="M1008 0l-121 367h-586l-121 -367h-120l455 1374h169l456 -1374h-132zM596 1255l-252 -772h501zM652 1581q-30 14 -69 41q-34 23 -55 33.5t-44 10.5q-32 0 -56.5 -23t-49.5 -71l-91 47q36 68 86 108t114 40q38 0 68 -14t68 -41q30 -22 51.5 -32.5t44.5 -10.5q28 0 53.5 21
t53.5 67l90 -46q-71 -144 -198 -144q-36 0 -66 14z" />
    <glyph glyph-name="Adieresis" unicode="&#xc4;" 
d="M1008 0l-121 367h-586l-121 -367h-120l455 1374h169l456 -1374h-132zM596 1255l-252 -772h501zM332.5 1564.5q-26.5 25.5 -26.5 64.5q0 41 26.5 67t67.5 26q38 0 64.5 -26t26.5 -67q0 -39 -26.5 -64.5t-64.5 -25.5q-41 0 -67.5 25.5zM732 1564.5q-26 25.5 -26 64.5
q0 41 26 67t65 26q41 0 67.5 -26t26.5 -67q0 -39 -26.5 -64.5t-67.5 -25.5q-39 0 -65 25.5z" />
    <glyph glyph-name="Aring" unicode="&#xc5;" 
d="M1008 0l-121 367h-586l-121 -367h-120l455 1374h169l456 -1374h-132zM596 1255l-252 -772h501zM705 1833.5q47 -24.5 74 -68t27 -96.5q0 -51 -27 -93.5t-74 -67t-104 -24.5q-58 0 -105 24.5t-74 67t-27 93.5q0 53 27 96.5t74 68t105 24.5q57 0 104 -24.5zM518 1755.5
q-31 -32.5 -31 -86.5q0 -53 31 -85t83 -32q53 0 83 32t30 85q0 55 -30 87t-83 32q-52 0 -83 -32.5z" />
    <glyph glyph-name="AE" unicode="&#xc6;" 
d="M749 0l-80 365h-445l-112 -365h-136l420 1374h737l-17 -117h-503l112 -501h390v-117h-367l113 -522h357v-117h-469zM478 1262l-206 -775h366z" />
    <glyph glyph-name="Ccedilla" unicode="&#xc7;" 
d="M732 -119q90 -7 134.5 -52.5t44.5 -105.5q0 -62 -32.5 -104t-84 -62t-111.5 -20q-57 0 -110 11.5t-91 33.5l48 83q27 -15 65 -23t72 -8q58 0 91 21t33 67q0 54 -42 72.5t-128 18.5l11 174q-141 22 -251.5 110.5t-173.5 238.5t-63 351q0 224 77.5 383.5t208 241
t286.5 81.5q125 0 213 -31t172 -98l-78 -89q-65 55 -137.5 78.5t-155.5 23.5q-129 0 -230.5 -57.5t-162 -189t-60.5 -343.5q0 -208 58 -339.5t158 -190.5t231 -59q109 0 186 30.5t140 82.5l72 -92q-64 -62 -161 -100t-229 -39v-99z" />
    <glyph glyph-name="Egrave" unicode="&#xc8;" 
d="M999 1260h-601v-503h520v-117h-520v-529h641v-111h-769v1374h746zM424 1676l86 117l351 -210l-44 -69z" />
    <glyph glyph-name="Eacute" unicode="&#xc9;" 
d="M999 1260h-601v-503h520v-117h-520v-529h641v-111h-769v1374h746zM424 1583l386 201l63 -117l-413 -153z" />
    <glyph glyph-name="Ecircumflex" unicode="&#xca;" 
d="M999 1260h-601v-503h520v-117h-520v-529h641v-111h-769v1374h746zM600 1802h89l265 -202l-62 -72l-249 158l-246 -158l-64 72z" />
    <glyph glyph-name="Edieresis" unicode="&#xcb;" 
d="M999 1260h-601v-503h520v-117h-520v-529h641v-111h-769v1374h746zM375.5 1564.5q-26.5 25.5 -26.5 64.5q0 41 26.5 67t67.5 26q38 0 64.5 -26t26.5 -67q0 -39 -26.5 -64.5t-64.5 -25.5q-41 0 -67.5 25.5zM775 1564.5q-26 25.5 -26 64.5q0 41 26 67t65 26q41 0 67.5 -26
t26.5 -67q0 -39 -26.5 -64.5t-67.5 -25.5q-39 0 -65 25.5z" />
    <glyph glyph-name="Igrave" unicode="&#xcc;" 
d="M223 1374h754v-109h-312v-1156h312v-109h-754v109h312v1156h-312v109zM381 1676l86 117l351 -210l-44 -69z" />
    <glyph glyph-name="Iacute" unicode="&#xcd;" 
d="M223 1374h754v-109h-312v-1156h312v-109h-754v109h312v1156h-312v109zM381 1583l386 201l63 -117l-413 -153z" />
    <glyph glyph-name="Icircumflex" unicode="&#xce;" 
d="M223 1374h754v-109h-312v-1156h312v-109h-754v109h312v1156h-312v109zM557 1802h89l265 -202l-62 -72l-249 158l-246 -158l-64 72z" />
    <glyph glyph-name="Idieresis" unicode="&#xcf;" 
d="M223 1374h754v-109h-312v-1156h312v-109h-754v109h312v1156h-312v109zM332.5 1564.5q-26.5 25.5 -26.5 64.5q0 41 26.5 67t67.5 26q38 0 64.5 -26t26.5 -67q0 -39 -26.5 -64.5t-64.5 -25.5q-41 0 -67.5 25.5zM732 1564.5q-26 25.5 -26 64.5q0 41 26 67t65 26
q41 0 67.5 -26t26.5 -67q0 -39 -26.5 -64.5t-67.5 -25.5q-39 0 -65 25.5z" />
    <glyph glyph-name="Eth" unicode="&#xd0;" 
d="M480 1374q178 0 316 -55t225.5 -205.5t87.5 -419.5q0 -392 -177.5 -543t-430.5 -151h-298v649h-156v114h156v611h277zM522 110q187 0 317.5 128.5t130.5 455.5q0 237 -67.5 362.5t-165 165t-218.5 39.5h-189v-498h339v-114h-339v-539h192z" />
    <glyph glyph-name="Ntilde" unicode="&#xd1;" 
d="M297 1239q-1 -20 4 -147q11 -220 11 -352v-740h-126v1374h183l534 -1247q2 12 -0.5 60t-3.5 70q-1 21 -6 138.5t-5 242.5v736h126v-1374h-197zM643 1581q-30 14 -69 41q-34 23 -55 33.5t-44 10.5q-32 0 -56.5 -23t-49.5 -71l-91 47q36 68 86 108t114 40q38 0 68 -14
t68 -41q30 -22 51.5 -32.5t44.5 -10.5q28 0 53.5 21t53.5 67l90 -46q-71 -144 -198 -144q-36 0 -66 14z" />
    <glyph glyph-name="Ograve" unicode="&#xd2;" 
d="M1037 317q-56 -159 -166.5 -248t-270.5 -89t-270.5 87t-166.5 245t-56 370q0 209 56 369.5t167 251t270 90.5q160 0 270.5 -88.5t166.5 -248t56 -371.5q0 -209 -56 -368zM871.5 1125q-85.5 150 -271.5 150t-271.5 -151t-85.5 -442q0 -584 357 -584q185 0 271 148.5
t86 438.5t-85.5 440zM381 1676l86 117l351 -210l-44 -69z" />
    <glyph glyph-name="Oacute" unicode="&#xd3;" 
d="M1037 317q-56 -159 -166.5 -248t-270.5 -89t-270.5 87t-166.5 245t-56 370q0 209 56 369.5t167 251t270 90.5q160 0 270.5 -88.5t166.5 -248t56 -371.5q0 -209 -56 -368zM871.5 1125q-85.5 150 -271.5 150t-271.5 -151t-85.5 -442q0 -584 357 -584q185 0 271 148.5
t86 438.5t-85.5 440zM381 1583l386 201l63 -117l-413 -153z" />
    <glyph glyph-name="Ocircumflex" unicode="&#xd4;" 
d="M1037 317q-56 -159 -166.5 -248t-270.5 -89t-270.5 87t-166.5 245t-56 370q0 209 56 369.5t167 251t270 90.5q160 0 270.5 -88.5t166.5 -248t56 -371.5q0 -209 -56 -368zM871.5 1125q-85.5 150 -271.5 150t-271.5 -151t-85.5 -442q0 -584 357 -584q185 0 271 148.5
t86 438.5t-85.5 440zM557 1802h89l265 -202l-62 -72l-249 158l-246 -158l-64 72z" />
    <glyph glyph-name="Otilde" unicode="&#xd5;" 
d="M1037 317q-56 -159 -166.5 -248t-270.5 -89t-270.5 87t-166.5 245t-56 370q0 209 56 369.5t167 251t270 90.5q160 0 270.5 -88.5t166.5 -248t56 -371.5q0 -209 -56 -368zM871.5 1125q-85.5 150 -271.5 150t-271.5 -151t-85.5 -442q0 -584 357 -584q185 0 271 148.5
t86 438.5t-85.5 440zM652 1581q-30 14 -69 41q-34 23 -55 33.5t-44 10.5q-32 0 -56.5 -23t-49.5 -71l-91 47q36 68 86 108t114 40q38 0 68 -14t68 -41q30 -22 51.5 -32.5t44.5 -10.5q28 0 53.5 21t53.5 67l90 -46q-71 -144 -198 -144q-36 0 -66 14z" />
    <glyph glyph-name="Odieresis" unicode="&#xd6;" 
d="M1037 317q-56 -159 -166.5 -248t-270.5 -89t-270.5 87t-166.5 245t-56 370q0 209 56 369.5t167 251t270 90.5q160 0 270.5 -88.5t166.5 -248t56 -371.5q0 -209 -56 -368zM871.5 1125q-85.5 150 -271.5 150t-271.5 -151t-85.5 -442q0 -584 357 -584q185 0 271 148.5
t86 438.5t-85.5 440zM332.5 1564.5q-26.5 25.5 -26.5 64.5q0 41 26.5 67t67.5 26q38 0 64.5 -26t26.5 -67q0 -39 -26.5 -64.5t-64.5 -25.5q-41 0 -67.5 25.5zM732 1564.5q-26 25.5 -26 64.5q0 41 26 67t65 26q41 0 67.5 -26t26.5 -67q0 -39 -26.5 -64.5t-67.5 -25.5
q-39 0 -65 25.5z" />
    <glyph glyph-name="multiply" unicode="&#xd7;" 
d="M600 700l250 251l84 -87l-248 -250l248 -250l-84 -84l-250 248l-250 -248l-84 84l248 250l-248 250l84 87z" />
    <glyph glyph-name="Oslash" unicode="&#xd8;" 
d="M853 1318q119 -82 179.5 -246t60.5 -387q0 -209 -56 -368t-166.5 -248t-270.5 -89q-70 0 -133 17l-67 -218l-129 32l77 242q-119 81 -180 244t-61 385q0 209 56 369.5t167 251t270 90.5q76 0 137 -19l66 232l129 -31zM283 349q35 -126 109 -185l315 1096q-48 12 -107 12
q-183 0 -267.5 -151t-84.5 -439q0 -207 35 -333zM867.5 249q84.5 148 84.5 436q0 212 -35 339.5t-110 187.5l-316 -1098q48 -13 109 -13q183 0 267.5 148z" />
    <glyph glyph-name="Ugrave" unicode="&#xd9;" 
d="M1037 441q0 -137 -55.5 -241.5t-155.5 -162t-229 -57.5q-130 0 -228.5 58t-152 162.5t-53.5 240.5v933h126v-977q0 -145 83 -220t225 -75q144 0 227.5 75t83.5 220v977h129v-933zM381 1676l86 117l351 -210l-44 -69z" />
    <glyph glyph-name="Uacute" unicode="&#xda;" 
d="M1037 441q0 -137 -55.5 -241.5t-155.5 -162t-229 -57.5q-130 0 -228.5 58t-152 162.5t-53.5 240.5v933h126v-977q0 -145 83 -220t225 -75q144 0 227.5 75t83.5 220v977h129v-933zM381 1583l386 201l63 -117l-413 -153z" />
    <glyph glyph-name="Ucircumflex" unicode="&#xdb;" 
d="M1037 441q0 -137 -55.5 -241.5t-155.5 -162t-229 -57.5q-130 0 -228.5 58t-152 162.5t-53.5 240.5v933h126v-977q0 -145 83 -220t225 -75q144 0 227.5 75t83.5 220v977h129v-933zM557 1802h89l265 -202l-62 -72l-249 158l-246 -158l-64 72z" />
    <glyph glyph-name="Udieresis" unicode="&#xdc;" 
d="M1037 441q0 -137 -55.5 -241.5t-155.5 -162t-229 -57.5q-130 0 -228.5 58t-152 162.5t-53.5 240.5v933h126v-977q0 -145 83 -220t225 -75q144 0 227.5 75t83.5 220v977h129v-933zM332.5 1564.5q-26.5 25.5 -26.5 64.5q0 41 26.5 67t67.5 26q38 0 64.5 -26t26.5 -67
q0 -39 -26.5 -64.5t-64.5 -25.5q-41 0 -67.5 25.5zM732 1564.5q-26 25.5 -26 64.5q0 41 26 67t65 26q41 0 67.5 -26t26.5 -67q0 -39 -26.5 -64.5t-67.5 -25.5q-39 0 -65 25.5z" />
    <glyph glyph-name="Yacute" unicode="&#xdd;" 
d="M1134 1374l-469 -840v-534h-130v532l-469 842h142l395 -717l400 717h131zM390 1583l386 201l63 -117l-413 -153z" />
    <glyph glyph-name="Thorn" unicode="&#xde;" 
d="M369 1374v-235h224q244 0 375 -106t131 -322q0 -229 -141 -338t-379 -109h-210v-264h-126v1374h126zM369 1030v-656h246q166 0 257.5 74t91.5 258q0 166 -93 245t-253 79h-249z" />
    <glyph glyph-name="germandbls" unicode="&#xdf;" 
d="M766.5 1457q75.5 -35 118 -98.5t42.5 -146.5q0 -52 -20 -92t-48 -68t-73 -63q-51 -42 -75 -69.5t-24 -64.5q0 -36 21 -65t52.5 -52t87.5 -57q81 -49 132 -89.5t87.5 -105t36.5 -153.5q0 -111 -50 -191t-133 -121t-181 -41q-79 0 -142.5 17.5t-116.5 53.5l58 87
q40 -24 92.5 -38.5t100.5 -14.5q116 0 181.5 59.5t65.5 177.5q0 62 -29.5 109t-71.5 79t-114 76q-71 43 -112.5 75t-70 77.5t-28.5 106.5q0 48 19.5 84.5t48 60.5t74.5 56q58 39 87 70.5t29 78.5q0 43 -20 86t-68 72.5t-126 29.5q-128 0 -194 -71t-66 -233v-1079h-124v1068
q0 208 101.5 316t281.5 108q95 0 170.5 -35z" />
    <glyph glyph-name="agrave" unicode="&#xe0;" 
d="M932 207q0 -62 21 -92.5t69 -44.5l-34 -91q-64 10 -109.5 46.5t-63.5 104.5q-55 -73 -137.5 -111.5t-186.5 -38.5q-103 0 -178.5 39.5t-115.5 112.5t-40 171q0 160 125 245t362 85h159v102q0 118 -67.5 170t-195.5 52q-121 0 -269 -53l-36 102q91 34 169 48.5t154 14.5
q121 0 205 -41t126.5 -115t42.5 -174v-532zM675 121q75 42 128 117v300h-174q-178 0 -256.5 -62t-78.5 -177q0 -110 54.5 -165t166.5 -55q85 0 160 42zM794 1317l-45 -73l-384 185l80 116z" />
    <glyph glyph-name="aacute" unicode="&#xe1;" 
d="M932 207q0 -62 21 -92.5t69 -44.5l-34 -91q-64 10 -109.5 46.5t-63.5 104.5q-55 -73 -137.5 -111.5t-186.5 -38.5q-103 0 -178.5 39.5t-115.5 112.5t-40 171q0 160 125 245t362 85h159v102q0 118 -67.5 170t-195.5 52q-121 0 -269 -53l-36 102q91 34 169 48.5t154 14.5
q121 0 205 -41t126.5 -115t42.5 -174v-532zM675 121q75 42 128 117v300h-174q-178 0 -256.5 -62t-78.5 -177q0 -110 54.5 -165t166.5 -55q85 0 160 42zM375 1360l380 211l64 -116l-402 -165z" />
    <glyph glyph-name="acircumflex" unicode="&#xe2;" 
d="M932 207q0 -62 21 -92.5t69 -44.5l-34 -91q-64 10 -109.5 46.5t-63.5 104.5q-55 -73 -137.5 -111.5t-186.5 -38.5q-103 0 -178.5 39.5t-115.5 112.5t-40 171q0 160 125 245t362 85h159v102q0 118 -67.5 170t-195.5 52q-121 0 -269 -53l-36 102q91 34 169 48.5t154 14.5
q121 0 205 -41t126.5 -115t42.5 -174v-532zM675 121q75 42 128 117v300h-174q-178 0 -256.5 -62t-78.5 -177q0 -110 54.5 -165t166.5 -55q85 0 160 42zM586 1447l-243 -179l-70 70l267 225h89l265 -225l-65 -70z" />
    <glyph glyph-name="atilde" unicode="&#xe3;" 
d="M932 207q0 -62 21 -92.5t69 -44.5l-34 -91q-64 10 -109.5 46.5t-63.5 104.5q-55 -73 -137.5 -111.5t-186.5 -38.5q-103 0 -178.5 39.5t-115.5 112.5t-40 171q0 160 125 245t362 85h159v102q0 118 -67.5 170t-195.5 52q-121 0 -269 -53l-36 102q91 34 169 48.5t154 14.5
q121 0 205 -41t126.5 -115t42.5 -174v-532zM675 121q75 42 128 117v300h-174q-178 0 -256.5 -62t-78.5 -177q0 -110 54.5 -165t166.5 -55q85 0 160 42zM635 1345q-30 14 -69 41q-34 23 -55 33.5t-44 10.5q-32 0 -56.5 -23t-49.5 -71l-91 47q36 68 86 108t114 40q38 0 68 -14
t68 -41q30 -22 51.5 -32.5t44.5 -10.5q28 0 53.5 21t53.5 67l90 -46q-71 -144 -198 -144q-36 0 -66 14z" />
    <glyph glyph-name="adieresis" unicode="&#xe4;" 
d="M932 207q0 -62 21 -92.5t69 -44.5l-34 -91q-64 10 -109.5 46.5t-63.5 104.5q-55 -73 -137.5 -111.5t-186.5 -38.5q-103 0 -178.5 39.5t-115.5 112.5t-40 171q0 160 125 245t362 85h159v102q0 118 -67.5 170t-195.5 52q-121 0 -269 -53l-36 102q91 34 169 48.5t154 14.5
q121 0 205 -41t126.5 -115t42.5 -174v-532zM675 121q75 42 128 117v300h-174q-178 0 -256.5 -62t-78.5 -177q0 -110 54.5 -165t166.5 -55q85 0 160 42zM315.5 1328.5q-26.5 25.5 -26.5 64.5q0 41 26.5 67t67.5 26q38 0 64.5 -26t26.5 -67q0 -39 -26.5 -64.5t-64.5 -25.5
q-41 0 -67.5 25.5zM715 1328.5q-26 25.5 -26 64.5q0 41 26 67t65 26q41 0 67.5 -26t26.5 -67q0 -39 -26.5 -64.5t-67.5 -25.5q-39 0 -65 25.5z" />
    <glyph glyph-name="aring" unicode="&#xe5;" 
d="M932 207q0 -62 21 -92.5t69 -44.5l-34 -91q-64 10 -109.5 46.5t-63.5 104.5q-55 -73 -137.5 -111.5t-186.5 -38.5q-103 0 -178.5 39.5t-115.5 112.5t-40 171q0 160 125 245t362 85h159v102q0 118 -67.5 170t-195.5 52q-121 0 -269 -53l-36 102q91 34 169 48.5t154 14.5
q121 0 205 -41t126.5 -115t42.5 -174v-532zM675 121q75 42 128 117v300h-174q-178 0 -256.5 -62t-78.5 -177q0 -110 54.5 -165t166.5 -55q85 0 160 42zM688 1597.5q47 -24.5 74 -68t27 -96.5q0 -51 -27 -93.5t-74 -67t-104 -24.5q-58 0 -105 24.5t-74 67t-27 93.5
q0 53 27 96.5t74 68t105 24.5q57 0 104 -24.5zM501 1519.5q-31 -32.5 -31 -86.5q0 -53 31 -85t83 -32q53 0 83 32t30 85q0 55 -30 87t-83 32q-52 0 -83 -32.5z" />
    <glyph glyph-name="ae" unicode="&#xe6;" 
d="M1131 935q86 -134 86 -374q0 -56 -3 -92h-555q14 -192 69 -280t166 -88q58 0 103.5 20t102.5 64l65 -102q-65 -51 -128 -77t-140 -26q-104 0 -175.5 47.5t-129.5 151.5q-43 -74 -85.5 -117.5t-93.5 -62.5t-118 -19q-92 0 -161.5 39.5t-107.5 112t-38 169.5
q0 163 112 249.5t324 86.5h93v98q0 109 -46.5 159.5t-137.5 50.5q-51 0 -97 -12.5t-117 -43.5l-38 114q64 30 134.5 48t129.5 18q111 0 172.5 -47.5t90.5 -138.5q30 89 97.5 137.5t167.5 48.5q172 0 258 -134zM760.5 912q-42.5 -35 -67 -113t-34.5 -210h416
q-4 182 -50.5 270t-154.5 88q-67 0 -109.5 -35zM420 537q-149 0 -212.5 -59t-63.5 -169q0 -107 44.5 -164t120.5 -57q72 0 126 49t111 156q-29 121 -29 244h-97z" />
    <glyph glyph-name="ccedilla" unicode="&#xe7;" 
d="M712 -119q90 -7 134.5 -52.5t44.5 -105.5q0 -62 -32.5 -104t-84 -62t-111.5 -20q-57 0 -110 11.5t-91 33.5l48 83q27 -15 65 -23t72 -8q58 0 91 21t33 67q0 54 -42 72.5t-128 18.5l11 170q-132 13 -225 82.5t-141.5 186t-48.5 269.5q0 158 56 282t164 195t258 71
q193 0 341 -119l-66 -89q-143 98 -281 98q-98 0 -173.5 -50t-118 -148.5t-42.5 -239.5q0 -143 42 -238.5t117.5 -142t174.5 -46.5q153 0 285 93l65 -84q-60 -50 -143 -82t-164 -39v-101z" />
    <glyph glyph-name="egrave" unicode="&#xe8;" 
d="M309 475q2 -127 46 -212.5t116.5 -127t161.5 -41.5q80 0 144.5 23t138.5 74l65 -93q-72 -56 -163.5 -87t-179.5 -31q-143 0 -247.5 67.5t-159.5 190.5t-55 286q0 159 55.5 282.5t156.5 193t231 69.5q126 0 218 -61.5t140.5 -176t48.5 -270.5q0 -23 -3 -86h-714z
M467.5 912.5q-67.5 -40.5 -108.5 -122.5t-48 -203h597q-4 180 -81 273t-205 93q-87 0 -154.5 -40.5zM834 1317l-45 -73l-384 185l80 116z" />
    <glyph glyph-name="eacute" unicode="&#xe9;" 
d="M309 475q2 -127 46 -212.5t116.5 -127t161.5 -41.5q80 0 144.5 23t138.5 74l65 -93q-72 -56 -163.5 -87t-179.5 -31q-143 0 -247.5 67.5t-159.5 190.5t-55 286q0 159 55.5 282.5t156.5 193t231 69.5q126 0 218 -61.5t140.5 -176t48.5 -270.5q0 -23 -3 -86h-714z
M467.5 912.5q-67.5 -40.5 -108.5 -122.5t-48 -203h597q-4 180 -81 273t-205 93q-87 0 -154.5 -40.5zM415 1360l380 211l64 -116l-402 -165z" />
    <glyph glyph-name="ecircumflex" unicode="&#xea;" 
d="M309 475q2 -127 46 -212.5t116.5 -127t161.5 -41.5q80 0 144.5 23t138.5 74l65 -93q-72 -56 -163.5 -87t-179.5 -31q-143 0 -247.5 67.5t-159.5 190.5t-55 286q0 159 55.5 282.5t156.5 193t231 69.5q126 0 218 -61.5t140.5 -176t48.5 -270.5q0 -23 -3 -86h-714z
M467.5 912.5q-67.5 -40.5 -108.5 -122.5t-48 -203h597q-4 180 -81 273t-205 93q-87 0 -154.5 -40.5zM626 1447l-243 -179l-70 70l267 225h89l265 -225l-65 -70z" />
    <glyph glyph-name="edieresis" unicode="&#xeb;" 
d="M309 475q2 -127 46 -212.5t116.5 -127t161.5 -41.5q80 0 144.5 23t138.5 74l65 -93q-72 -56 -163.5 -87t-179.5 -31q-143 0 -247.5 67.5t-159.5 190.5t-55 286q0 159 55.5 282.5t156.5 193t231 69.5q126 0 218 -61.5t140.5 -176t48.5 -270.5q0 -23 -3 -86h-714z
M467.5 912.5q-67.5 -40.5 -108.5 -122.5t-48 -203h597q-4 180 -81 273t-205 93q-87 0 -154.5 -40.5zM355.5 1328.5q-26.5 25.5 -26.5 64.5q0 41 26.5 67t67.5 26q38 0 64.5 -26t26.5 -67q0 -39 -26.5 -64.5t-64.5 -25.5q-41 0 -67.5 25.5zM755 1328.5q-26 25.5 -26 64.5
q0 41 26 67t65 26q41 0 67.5 -26t26.5 -67q0 -39 -26.5 -64.5t-67.5 -25.5q-39 0 -65 25.5z" />
    <glyph glyph-name="igrave" unicode="&#xec;" 
d="M272 1050h446v-942h305v-108h-761v108h332v834h-322v108zM815 1317l-45 -73l-384 185l80 116z" />
    <glyph glyph-name="iacute" unicode="&#xed;" 
d="M272 1050h446v-942h305v-108h-761v108h332v834h-322v108zM396 1360l380 211l64 -116l-402 -165z" />
    <glyph glyph-name="icircumflex" unicode="&#xee;" 
d="M272 1050h446v-942h305v-108h-761v108h332v834h-322v108zM607 1447l-243 -179l-70 70l267 225h89l265 -225l-65 -70z" />
    <glyph glyph-name="idieresis" unicode="&#xef;" 
d="M272 1050h446v-942h305v-108h-761v108h332v834h-322v108zM336.5 1328.5q-26.5 25.5 -26.5 64.5q0 41 26.5 67t67.5 26q38 0 64.5 -26t26.5 -67q0 -39 -26.5 -64.5t-64.5 -25.5q-41 0 -67.5 25.5zM736 1328.5q-26 25.5 -26 64.5q0 41 26 67t65 26q41 0 67.5 -26t26.5 -67
q0 -39 -26.5 -64.5t-67.5 -25.5q-39 0 -65 25.5z" />
    <glyph glyph-name="eth" unicode="&#xf0;" 
d="M540 1302q-92 48 -249 81l30 110q95 -22 168.5 -47.5t132.5 -59.5l137 147l83 -73l-129 -134q173 -122 255.5 -318.5t82.5 -488.5q0 -166 -58 -288t-162 -186.5t-240 -64.5q-123 0 -223.5 58t-159 169t-58.5 264q0 144 58 255.5t155 173t211 61.5q104 0 187.5 -38.5
t142.5 -110.5q-26 132 -97.5 243.5t-175.5 187.5l-170 -176l-96 52zM918 668q-54 89 -142.5 136.5t-197.5 47.5q-81 0 -149.5 -40t-110 -123.5t-41.5 -207.5q0 -123 39 -212t109 -135t160 -46q102 0 179 52t119 154t42 247q0 70 -7 127z" />
    <glyph glyph-name="ntilde" unicode="&#xf1;" 
d="M219 0v1050h104l10 -153q40 53 100 92t126.5 59.5t126.5 20.5q156 0 227 -79t71 -230v-760h-124v627q0 132 -13.5 201.5t-57 103.5t-133.5 34q-66 0 -127.5 -29t-108.5 -73t-77 -90v-774h-124zM651 1345q-30 14 -69 41q-34 23 -55 33.5t-44 10.5q-32 0 -56.5 -23
t-49.5 -71l-91 47q36 68 86 108t114 40q38 0 68 -14t68 -41q30 -22 51.5 -32.5t44.5 -10.5q28 0 53.5 21t53.5 67l90 -46q-71 -144 -198 -144q-36 0 -66 14z" />
    <glyph glyph-name="ograve" unicode="&#xf2;" 
d="M841 1003q97 -66 145 -188t48 -290q0 -158 -49.5 -281.5t-147.5 -193.5t-237 -70q-141 0 -238.5 67.5t-146.5 189.5t-49 286q0 163 49.5 286t148 191.5t239.5 68.5t238 -66zM302 523q0 -433 298 -433t298 435t-295 435q-301 0 -301 -437zM811 1317l-45 -73l-384 185
l80 116z" />
    <glyph glyph-name="oacute" unicode="&#xf3;" 
d="M841 1003q97 -66 145 -188t48 -290q0 -158 -49.5 -281.5t-147.5 -193.5t-237 -70q-141 0 -238.5 67.5t-146.5 189.5t-49 286q0 163 49.5 286t148 191.5t239.5 68.5t238 -66zM302 523q0 -433 298 -433t298 435t-295 435q-301 0 -301 -437zM392 1360l380 211l64 -116
l-402 -165z" />
    <glyph glyph-name="ocircumflex" unicode="&#xf4;" 
d="M841 1003q97 -66 145 -188t48 -290q0 -158 -49.5 -281.5t-147.5 -193.5t-237 -70q-141 0 -238.5 67.5t-146.5 189.5t-49 286q0 163 49.5 286t148 191.5t239.5 68.5t238 -66zM302 523q0 -433 298 -433t298 435t-295 435q-301 0 -301 -437zM603 1447l-243 -179l-70 70
l267 225h89l265 -225l-65 -70z" />
    <glyph glyph-name="otilde" unicode="&#xf5;" 
d="M841 1003q97 -66 145 -188t48 -290q0 -158 -49.5 -281.5t-147.5 -193.5t-237 -70q-141 0 -238.5 67.5t-146.5 189.5t-49 286q0 163 49.5 286t148 191.5t239.5 68.5t238 -66zM302 523q0 -433 298 -433t298 435t-295 435q-301 0 -301 -437zM652 1345q-30 14 -69 41
q-34 23 -55 33.5t-44 10.5q-32 0 -56.5 -23t-49.5 -71l-91 47q36 68 86 108t114 40q38 0 68 -14t68 -41q30 -22 51.5 -32.5t44.5 -10.5q28 0 53.5 21t53.5 67l90 -46q-71 -144 -198 -144q-36 0 -66 14z" />
    <glyph glyph-name="odieresis" unicode="&#xf6;" 
d="M841 1003q97 -66 145 -188t48 -290q0 -158 -49.5 -281.5t-147.5 -193.5t-237 -70q-141 0 -238.5 67.5t-146.5 189.5t-49 286q0 163 49.5 286t148 191.5t239.5 68.5t238 -66zM302 523q0 -433 298 -433t298 435t-295 435q-301 0 -301 -437zM332.5 1328.5
q-26.5 25.5 -26.5 64.5q0 41 26.5 67t67.5 26q38 0 64.5 -26t26.5 -67q0 -39 -26.5 -64.5t-64.5 -25.5q-41 0 -67.5 25.5zM732 1328.5q-26 25.5 -26 64.5q0 41 26 67t65 26q41 0 67.5 -26t26.5 -67q0 -39 -26.5 -64.5t-67.5 -25.5q-39 0 -65 25.5z" />
    <glyph glyph-name="divide" unicode="&#xf7;" 
d="M685.5 1086.5q35.5 -34.5 35.5 -83.5q0 -52 -35 -86t-86 -34t-86 34t-35 86q0 49 35.5 83.5t85.5 34.5t85.5 -34.5zM250 676h700v-113h-700v113zM685.5 323.5q35.5 -34.5 35.5 -83.5q0 -51 -35 -86.5t-86 -35.5q-50 0 -85.5 35.5t-35.5 86.5q0 49 35.5 83.5t85.5 34.5
t85.5 -34.5z" />
    <glyph glyph-name="oslash" unicode="&#xf8;" 
d="M816 1014q106 -62 162 -188.5t56 -300.5q0 -158 -49.5 -281.5t-147.5 -193.5t-237 -70q-55 0 -112 13l-73 -250l-113 34l85 258q-106 64 -163.5 190.5t-57.5 297.5q0 163 49.5 286t148 191.5t239.5 68.5q57 0 107 -12l77 246l114 -33zM431 143l247 806q-37 8 -75 8
q-298 0 -298 -434q0 -285 126 -380zM895 525q0 286 -124 382l-248 -806q38 -8 77 -8q295 0 295 432z" />
    <glyph glyph-name="ugrave" unicode="&#xf9;" 
d="M343 299q0 -112 47.5 -163.5t150.5 -51.5q93 0 180.5 53.5t135.5 129.5v783h124v-1050h-104l-14 147q-63 -79 -155 -123t-185 -44q-150 0 -227 78.5t-77 225.5v766h124v-751zM811 1317l-45 -73l-384 185l80 116z" />
    <glyph glyph-name="uacute" unicode="&#xfa;" 
d="M343 299q0 -112 47.5 -163.5t150.5 -51.5q93 0 180.5 53.5t135.5 129.5v783h124v-1050h-104l-14 147q-63 -79 -155 -123t-185 -44q-150 0 -227 78.5t-77 225.5v766h124v-751zM392 1360l380 211l64 -116l-402 -165z" />
    <glyph glyph-name="ucircumflex" unicode="&#xfb;" 
d="M343 299q0 -112 47.5 -163.5t150.5 -51.5q93 0 180.5 53.5t135.5 129.5v783h124v-1050h-104l-14 147q-63 -79 -155 -123t-185 -44q-150 0 -227 78.5t-77 225.5v766h124v-751zM603 1447l-243 -179l-70 70l267 225h89l265 -225l-65 -70z" />
    <glyph glyph-name="udieresis" unicode="&#xfc;" 
d="M343 299q0 -112 47.5 -163.5t150.5 -51.5q93 0 180.5 53.5t135.5 129.5v783h124v-1050h-104l-14 147q-63 -79 -155 -123t-185 -44q-150 0 -227 78.5t-77 225.5v766h124v-751zM332.5 1328.5q-26.5 25.5 -26.5 64.5q0 41 26.5 67t67.5 26q38 0 64.5 -26t26.5 -67
q0 -39 -26.5 -64.5t-64.5 -25.5q-41 0 -67.5 25.5zM732 1328.5q-26 25.5 -26 64.5q0 41 26 67t65 26q41 0 67.5 -26t26.5 -67q0 -39 -26.5 -64.5t-67.5 -25.5q-39 0 -65 25.5z" />
    <glyph glyph-name="yacute" unicode="&#xfd;" 
d="M682 -9q-40 -113 -90 -195.5t-134 -140t-209 -72.5l-22 108q106 19 169 58t98.5 97t66.5 154h-41l-377 1050h134l331 -944l320 944h129zM392 1360l380 211l64 -116l-402 -165z" />
    <glyph glyph-name="thorn" unicode="&#xfe;" 
d="M343 913q61 76 141 116t171 40q202 0 290.5 -142t88.5 -402q0 -162 -44 -284.5t-135 -191.5t-226 -69q-179 0 -286 125v-506l-124 -17v1893l124 17v-579zM470 910.5q-74 -52.5 -127 -130.5v-544q44 -66 114.5 -104.5t151.5 -38.5q146 0 217.5 107.5t71.5 326.5
q0 436 -265 436q-89 0 -163 -52.5z" />
    <glyph glyph-name="ydieresis" unicode="&#xff;" 
d="M682 -9q-40 -113 -90 -195.5t-134 -140t-209 -72.5l-22 108q106 19 169 58t98.5 97t66.5 154h-41l-377 1050h134l331 -944l320 944h129zM332.5 1328.5q-26.5 25.5 -26.5 64.5q0 41 26.5 67t67.5 26q38 0 64.5 -26t26.5 -67q0 -39 -26.5 -64.5t-64.5 -25.5
q-41 0 -67.5 25.5zM732 1328.5q-26 25.5 -26 64.5q0 41 26 67t65 26q41 0 67.5 -26t26.5 -67q0 -39 -26.5 -64.5t-67.5 -25.5q-39 0 -65 25.5z" />
    <glyph glyph-name="Amacron" unicode="&#x100;" 
d="M1008 0l-121 367h-586l-121 -367h-120l455 1374h169l456 -1374h-132zM596 1255l-252 -772h501zM857 1700v-101h-517v101h517z" />
    <glyph glyph-name="amacron" unicode="&#x101;" 
d="M932 207q0 -62 21 -92.5t69 -44.5l-34 -91q-64 10 -109.5 46.5t-63.5 104.5q-55 -73 -137.5 -111.5t-186.5 -38.5q-103 0 -178.5 39.5t-115.5 112.5t-40 171q0 160 125 245t362 85h159v102q0 118 -67.5 170t-195.5 52q-121 0 -269 -53l-36 102q91 34 169 48.5t154 14.5
q121 0 205 -41t126.5 -115t42.5 -174v-532zM675 121q75 42 128 117v300h-174q-178 0 -256.5 -62t-78.5 -177q0 -110 54.5 -165t166.5 -55q85 0 160 42zM840 1464v-101h-517v101h517z" />
    <glyph glyph-name="Abreve" unicode="&#x102;" 
d="M1008 0l-121 367h-586l-121 -367h-120l455 1374h169l456 -1374h-132zM596 1255l-252 -772h501zM464.5 1548.5q-61.5 26.5 -102.5 76t-48 115.5l99 23q22 -63 67.5 -100t113.5 -37t117.5 38t72.5 99l98 -23q-7 -66 -49.5 -115.5t-106 -76t-132.5 -26.5q-68 0 -129.5 26.5z
" />
    <glyph glyph-name="abreve" unicode="&#x103;" 
d="M932 207q0 -62 21 -92.5t69 -44.5l-34 -91q-64 10 -109.5 46.5t-63.5 104.5q-55 -73 -137.5 -111.5t-186.5 -38.5q-103 0 -178.5 39.5t-115.5 112.5t-40 171q0 160 125 245t362 85h159v102q0 118 -67.5 170t-195.5 52q-121 0 -269 -53l-36 102q91 34 169 48.5t154 14.5
q121 0 205 -41t126.5 -115t42.5 -174v-532zM675 121q75 42 128 117v300h-174q-178 0 -256.5 -62t-78.5 -177q0 -110 54.5 -165t166.5 -55q85 0 160 42zM437 1309q-60 38 -95 95.5t-44 114.5l98 24q23 -80 68 -125t113 -45q71 0 119 45.5t71 124.5l99 -24
q-9 -57 -45.5 -114.5t-99 -95.5t-144.5 -38q-80 0 -140 38z" />
    <glyph glyph-name="Aogonek" unicode="&#x104;" 
d="M1080 0q-102 -48 -157.5 -87.5t-75.5 -73.5t-20 -71q0 -47 24.5 -71t85.5 -24q32 0 60.5 3t68.5 11l-16 -118q-37 -7 -64.5 -10.5t-64.5 -3.5q-71 0 -122 25t-77.5 66.5t-26.5 90.5q0 190 303 294l-111 336h-586l-121 -367h-120l455 1374h169l456 -1374h-60zM596 1255
l-252 -772h501z" />
    <glyph glyph-name="aogonek" unicode="&#x105;" 
d="M988 -21q-102 -48 -157.5 -87.5t-75.5 -73.5t-20 -71q0 -47 24.5 -71t85.5 -24q32 0 60.5 3t68.5 11l-16 -118q-37 -7 -64.5 -10.5t-64.5 -3.5q-71 0 -122 25t-77.5 66.5t-26.5 90.5q0 190 299 292q-66 40 -87 122q-55 -73 -137.5 -111.5t-186.5 -38.5
q-103 0 -178.5 39.5t-115.5 112.5t-40 171q0 160 125 245t362 85h159v102q0 118 -67.5 170t-195.5 52q-121 0 -269 -53l-36 102q91 34 169 48.5t154 14.5q121 0 205 -41t126.5 -115t42.5 -174v-532q0 -62 21 -92.5t69 -44.5zM803 538h-174q-178 0 -256.5 -62t-78.5 -177
q0 -110 54.5 -165t166.5 -55q85 0 160 42t128 117v300z" />
    <glyph glyph-name="Cacute" unicode="&#x106;" 
d="M929 1362q88 -31 172 -98l-78 -89q-65 55 -137.5 78.5t-155.5 23.5q-129 0 -230.5 -57.5t-162 -189t-60.5 -343.5q0 -208 58 -339.5t158 -190.5t231 -59q109 0 186 30.5t140 82.5l72 -92q-65 -62 -163.5 -100.5t-232.5 -38.5q-164 0 -296 82.5t-209 242.5t-77 382
q0 224 77.5 383.5t208 241t286.5 81.5q125 0 213 -31zM515 1583l386 201l63 -117l-413 -153z" />
    <glyph glyph-name="cacute" unicode="&#x107;" 
d="M954 187l65 -84q-67 -56 -163 -89.5t-182 -33.5q-151 0 -258 66t-163 188t-56 287q0 158 56 282t164 195t258 71q193 0 341 -119l-66 -89q-143 98 -281 98q-98 0 -173.5 -50t-118 -148.5t-42.5 -239.5q0 -143 42 -238.5t117.5 -142t174.5 -46.5q153 0 285 93zM480 1346
l380 211l64 -116l-402 -165z" />
    <glyph glyph-name="Ccircumflex" unicode="&#x108;" 
d="M929 1362q88 -31 172 -98l-78 -89q-65 55 -137.5 78.5t-155.5 23.5q-129 0 -230.5 -57.5t-162 -189t-60.5 -343.5q0 -208 58 -339.5t158 -190.5t231 -59q109 0 186 30.5t140 82.5l72 -92q-65 -62 -163.5 -100.5t-232.5 -38.5q-164 0 -296 82.5t-209 242.5t-77 382
q0 224 77.5 383.5t208 241t286.5 81.5q125 0 213 -31zM691 1802h89l265 -202l-62 -72l-249 158l-246 -158l-64 72z" />
    <glyph glyph-name="ccircumflex" unicode="&#x109;" 
d="M954 187l65 -84q-67 -56 -163 -89.5t-182 -33.5q-151 0 -258 66t-163 188t-56 287q0 158 56 282t164 195t258 71q193 0 341 -119l-66 -89q-143 98 -281 98q-98 0 -173.5 -50t-118 -148.5t-42.5 -239.5q0 -143 42 -238.5t117.5 -142t174.5 -46.5q153 0 285 93zM691 1433
l-243 -179l-70 70l267 225h89l265 -225l-65 -70z" />
    <glyph glyph-name="Cdotaccent" unicode="&#x10a;" 
d="M929 1362q88 -31 172 -98l-78 -89q-65 55 -137.5 78.5t-155.5 23.5q-129 0 -230.5 -57.5t-162 -189t-60.5 -343.5q0 -208 58 -339.5t158 -190.5t231 -59q109 0 186 30.5t140 82.5l72 -92q-65 -62 -163.5 -100.5t-232.5 -38.5q-164 0 -296 82.5t-209 242.5t-77 382
q0 224 77.5 383.5t208 241t286.5 81.5q125 0 213 -31zM807 1732.5q29 -28.5 29 -70.5q0 -45 -29 -74t-76 -29q-45 0 -73 29t-28 74q0 42 28.5 70.5t72.5 28.5q47 0 76 -28.5z" />
    <glyph glyph-name="cdotaccent" unicode="&#x10b;" 
d="M954 187l65 -84q-67 -56 -163 -89.5t-182 -33.5q-151 0 -258 66t-163 188t-56 287q0 158 56 282t164 195t258 71q193 0 341 -119l-66 -89q-143 98 -281 98q-98 0 -173.5 -50t-118 -148.5t-42.5 -239.5q0 -143 42 -238.5t117.5 -142t174.5 -46.5q153 0 285 93zM761 1482.5
q29 -28.5 29 -70.5q0 -45 -29 -74t-76 -29q-45 0 -73 29t-28 74q0 42 28.5 70.5t72.5 28.5q47 0 76 -28.5z" />
    <glyph glyph-name="Ccaron" unicode="&#x10c;" 
d="M929 1362q88 -31 172 -98l-78 -89q-65 55 -137.5 78.5t-155.5 23.5q-129 0 -230.5 -57.5t-162 -189t-60.5 -343.5q0 -208 58 -339.5t158 -190.5t231 -59q109 0 186 30.5t140 82.5l72 -92q-65 -62 -163.5 -100.5t-232.5 -38.5q-164 0 -296 82.5t-209 242.5t-77 382
q0 224 77.5 383.5t208 241t286.5 81.5q125 0 213 -31zM734 1626l249 158l62 -72l-265 -201h-89l-267 201l64 72z" />
    <glyph glyph-name="ccaron" unicode="&#x10d;" 
d="M954 187l65 -84q-67 -56 -163 -89.5t-182 -33.5q-151 0 -258 66t-163 188t-56 287q0 158 56 282t164 195t258 71q193 0 341 -119l-66 -89q-143 98 -281 98q-98 0 -173.5 -50t-118 -148.5t-42.5 -239.5q0 -143 42 -238.5t117.5 -142t174.5 -46.5q153 0 285 93zM691 1369
l243 180l65 -70l-265 -225h-89l-267 225l70 70z" />
    <glyph glyph-name="Dcaron" unicode="&#x10e;" 
d="M914.5 151q-177.5 -151 -430.5 -151h-298v1374h277q178 0 316 -55t225.5 -205.5t87.5 -419.5q0 -392 -177.5 -543zM885.5 1056.5q-67.5 125.5 -165 165t-218.5 39.5h-189v-1151h192q187 0 317.5 128.5t130.5 455.5q0 237 -67.5 362.5zM565 1626l249 158l62 -72l-265 -201
h-89l-267 201l64 72z" />
    <glyph glyph-name="dcaron" unicode="&#x10f;" 
d="M805 1492l124 -17v-1475h-108l-16 145q-60 -86 -136.5 -125.5t-163.5 -39.5q-202 0 -303 145.5t-101 396.5q0 158 49 282t141.5 194.5t219.5 70.5q95 0 167 -33t127 -99v555zM318 850.5q-77 -111.5 -77 -327.5q0 -209 71 -322t209 -113q165 0 284 179v546
q-46 71 -114.5 110t-148.5 39q-147 0 -224 -111.5zM1023 1155l41 329l116 -13l-93 -325z" />
    <glyph glyph-name="Dcroat" unicode="&#x110;" 
d="M480 1374q178 0 316 -55t225.5 -205.5t87.5 -419.5q0 -392 -177.5 -543t-430.5 -151h-298v649h-156v114h156v611h277zM522 110q187 0 317.5 128.5t130.5 455.5q0 237 -67.5 362.5t-165 165t-218.5 39.5h-189v-498h339v-114h-339v-539h192z" />
    <glyph glyph-name="dcroat" unicode="&#x111;" 
d="M1155 1317v-119h-157v-1198h-108l-16 145q-60 -86 -136.5 -125.5t-163.5 -39.5q-202 0 -303 145.5t-101 396.5q0 158 49 282t141.5 194.5t219.5 70.5q95 0 167 -33t127 -99v261h-372v119h372v175l124 -17v-158h157zM874 813q-46 71 -114.5 110t-148.5 39
q-147 0 -224 -111.5t-77 -327.5q0 -209 71 -322t209 -113q165 0 284 179v546z" />
    <glyph glyph-name="Emacron" unicode="&#x112;" 
d="M999 1260h-601v-503h520v-117h-520v-529h641v-111h-769v1374h746zM900 1700v-101h-517v101h517z" />
    <glyph glyph-name="emacron" unicode="&#x113;" 
d="M309 475q2 -127 46 -212.5t116.5 -127t161.5 -41.5q80 0 144.5 23t138.5 74l65 -93q-72 -56 -163.5 -87t-179.5 -31q-143 0 -247.5 67.5t-159.5 190.5t-55 286q0 159 55.5 282.5t156.5 193t231 69.5q126 0 218 -61.5t140.5 -176t48.5 -270.5q0 -23 -3 -86h-714z
M467.5 912.5q-67.5 -40.5 -108.5 -122.5t-48 -203h597q-4 180 -81 273t-205 93q-87 0 -154.5 -40.5zM880 1464v-101h-517v101h517z" />
    <glyph glyph-name="Ebreve" unicode="&#x114;" 
d="M999 1260h-601v-503h520v-117h-520v-529h641v-111h-769v1374h746zM507.5 1548.5q-61.5 26.5 -102.5 76t-48 115.5l99 23q22 -63 67.5 -100t113.5 -37t117.5 38t72.5 99l98 -23q-7 -66 -49.5 -115.5t-106 -76t-132.5 -26.5q-68 0 -129.5 26.5z" />
    <glyph glyph-name="ebreve" unicode="&#x115;" 
d="M309 475q2 -127 46 -212.5t116.5 -127t161.5 -41.5q80 0 144.5 23t138.5 74l65 -93q-72 -56 -163.5 -87t-179.5 -31q-143 0 -247.5 67.5t-159.5 190.5t-55 286q0 159 55.5 282.5t156.5 193t231 69.5q126 0 218 -61.5t140.5 -176t48.5 -270.5q0 -23 -3 -86h-714z
M467.5 912.5q-67.5 -40.5 -108.5 -122.5t-48 -203h597q-4 180 -81 273t-205 93q-87 0 -154.5 -40.5zM477 1309q-60 38 -95 95.5t-44 114.5l98 24q23 -80 68 -125t113 -45q71 0 119 45.5t71 124.5l99 -24q-9 -57 -45.5 -114.5t-99 -95.5t-144.5 -38q-80 0 -140 38z" />
    <glyph glyph-name="Edotaccent" unicode="&#x116;" 
d="M999 1260h-601v-503h520v-117h-520v-529h641v-111h-769v1374h746zM716 1732.5q29 -28.5 29 -70.5q0 -45 -29 -74t-76 -29q-45 0 -73 29t-28 74q0 42 28.5 70.5t72.5 28.5q47 0 76 -28.5z" />
    <glyph glyph-name="edotaccent" unicode="&#x117;" 
d="M309 475q2 -127 46 -212.5t116.5 -127t161.5 -41.5q80 0 144.5 23t138.5 74l65 -93q-72 -56 -163.5 -87t-179.5 -31q-143 0 -247.5 67.5t-159.5 190.5t-55 286q0 159 55.5 282.5t156.5 193t231 69.5q126 0 218 -61.5t140.5 -176t48.5 -270.5q0 -23 -3 -86h-714z
M467.5 912.5q-67.5 -40.5 -108.5 -122.5t-48 -203h597q-4 180 -81 273t-205 93q-87 0 -154.5 -40.5zM696 1496.5q29 -28.5 29 -70.5q0 -45 -29 -74t-76 -29q-45 0 -73 29t-28 74q0 42 28.5 70.5t72.5 28.5q47 0 76 -28.5z" />
    <glyph glyph-name="Eogonek" unicode="&#x118;" 
d="M398 111h641v-111h-102q-102 -48 -157.5 -87.5t-75.5 -73.5t-20 -71q0 -47 24.5 -71t85.5 -24q32 0 60.5 3t68.5 11l-16 -118q-37 -7 -64.5 -10.5t-64.5 -3.5q-71 0 -122 25t-77.5 66.5t-26.5 90.5q0 164 224 263h-506v1374h746l-17 -114h-601v-503h520v-117h-520v-529z
" />
    <glyph glyph-name="eogonek" unicode="&#x119;" 
d="M1023 475h-714q2 -127 46 -212.5t116.5 -127t161.5 -41.5q80 0 144.5 23t138.5 74l65 -93q-90 -69 -209 -101q-100 -47 -154 -86t-74 -72.5t-20 -70.5q0 -47 24.5 -71t85.5 -24q32 0 60.5 3t68.5 11l-16 -118q-37 -7 -64.5 -10.5t-64.5 -3.5q-71 0 -122 25t-77.5 66.5
t-26.5 90.5q0 78 57.5 142t171.5 101q-139 4 -239 72.5t-153 190t-53 281.5q0 159 55.5 282.5t156.5 193t231 69.5q126 0 218 -61.5t140.5 -176t48.5 -270.5q0 -23 -3 -86zM908 587q-4 180 -81 273t-205 93q-87 0 -154.5 -40.5t-108.5 -122.5t-48 -203h597z" />
    <glyph glyph-name="Ecaron" unicode="&#x11a;" 
d="M999 1260h-601v-503h520v-117h-520v-529h641v-111h-769v1374h746zM643 1626l249 158l62 -72l-265 -201h-89l-267 201l64 72z" />
    <glyph glyph-name="ecaron" unicode="&#x11b;" 
d="M309 475q2 -127 46 -212.5t116.5 -127t161.5 -41.5q80 0 144.5 23t138.5 74l65 -93q-72 -56 -163.5 -87t-179.5 -31q-143 0 -247.5 67.5t-159.5 190.5t-55 286q0 159 55.5 282.5t156.5 193t231 69.5q126 0 218 -61.5t140.5 -176t48.5 -270.5q0 -23 -3 -86h-714z
M467.5 912.5q-67.5 -40.5 -108.5 -122.5t-48 -203h597q-4 180 -81 273t-205 93q-87 0 -154.5 -40.5zM626 1383l243 180l65 -70l-265 -225h-89l-267 225l70 70z" />
    <glyph glyph-name="Gcircumflex" unicode="&#x11c;" 
d="M349 58.5q-116 78.5 -180 237t-64 391.5q0 227 78.5 386.5t205.5 239.5t272 80q125 0 209.5 -34t169.5 -112l-85 -88q-63 60 -136 88t-162 28q-111 0 -203.5 -56.5t-150.5 -188t-58 -342.5q0 -303 99.5 -446.5t295.5 -143.5q154 0 288 74v450h-299l-18 119h449v-647
q-108 -56 -207 -85t-233 -29q-155 0 -271 78.5zM617 1802h89l265 -202l-62 -72l-249 158l-246 -158l-64 72z" />
    <glyph glyph-name="gcircumflex" unicode="&#x11d;" 
d="M1095 1009q-64 -18 -133 -23t-176 -5q88 -41 132.5 -108t44.5 -154q0 -105 -45 -186.5t-131 -127t-204 -45.5q-58 0 -95 5.5t-73 17.5q-26 -20 -43 -51t-17 -64q0 -95 148 -95h194q100 0 183 -37t131.5 -101t48.5 -141q0 -151 -127 -231.5t-357 -80.5q-157 0 -249.5 32.5
t-133.5 100t-41 177.5h114q0 -70 26 -111.5t92.5 -62.5t187.5 -21q182 0 271 46.5t89 142.5q0 80 -74 122.5t-188 42.5h-194q-81 0 -136 26.5t-82.5 70.5t-27.5 97q0 49 29 95t85 84q-88 46 -130.5 116t-42.5 171q0 102 51 184t143 128.5t210 46.5q133 1 214.5 9.5t135.5 23
t124 42.5zM367 900q-68 -72 -68 -191t70 -191t209 -72q120 0 184.5 69.5t64.5 194.5q0 128 -64.5 195t-190.5 67q-137 0 -205 -72zM585 1447l-243 -179l-70 70l267 225h89l265 -225l-65 -70z" />
    <glyph glyph-name="Gbreve" unicode="&#x11e;" 
d="M349 58.5q-116 78.5 -180 237t-64 391.5q0 227 78.5 386.5t205.5 239.5t272 80q125 0 209.5 -34t169.5 -112l-85 -88q-63 60 -136 88t-162 28q-111 0 -203.5 -56.5t-150.5 -188t-58 -342.5q0 -303 99.5 -446.5t295.5 -143.5q154 0 288 74v450h-299l-18 119h449v-647
q-108 -56 -207 -85t-233 -29q-155 0 -271 78.5zM524.5 1548.5q-61.5 26.5 -102.5 76t-48 115.5l99 23q22 -63 67.5 -100t113.5 -37t117.5 38t72.5 99l98 -23q-7 -66 -49.5 -115.5t-106 -76t-132.5 -26.5q-68 0 -129.5 26.5z" />
    <glyph glyph-name="gbreve" unicode="&#x11f;" 
d="M1095 1009q-64 -18 -133 -23t-176 -5q88 -41 132.5 -108t44.5 -154q0 -105 -45 -186.5t-131 -127t-204 -45.5q-58 0 -95 5.5t-73 17.5q-26 -20 -43 -51t-17 -64q0 -95 148 -95h194q100 0 183 -37t131.5 -101t48.5 -141q0 -151 -127 -231.5t-357 -80.5q-157 0 -249.5 32.5
t-133.5 100t-41 177.5h114q0 -70 26 -111.5t92.5 -62.5t187.5 -21q182 0 271 46.5t89 142.5q0 80 -74 122.5t-188 42.5h-194q-81 0 -136 26.5t-82.5 70.5t-27.5 97q0 49 29 95t85 84q-88 46 -130.5 116t-42.5 171q0 102 51 184t143 128.5t210 46.5q133 1 214.5 9.5t135.5 23
t124 42.5zM367 900q-68 -72 -68 -191t70 -191t209 -72q120 0 184.5 69.5t64.5 194.5q0 128 -64.5 195t-190.5 67q-137 0 -205 -72zM436 1309q-60 38 -95 95.5t-44 114.5l98 24q23 -80 68 -125t113 -45q71 0 119 45.5t71 124.5l99 -24q-9 -57 -45.5 -114.5t-99 -95.5
t-144.5 -38q-80 0 -140 38z" />
    <glyph glyph-name="Gdotaccent" unicode="&#x120;" 
d="M349 58.5q-116 78.5 -180 237t-64 391.5q0 227 78.5 386.5t205.5 239.5t272 80q125 0 209.5 -34t169.5 -112l-85 -88q-63 60 -136 88t-162 28q-111 0 -203.5 -56.5t-150.5 -188t-58 -342.5q0 -303 99.5 -446.5t295.5 -143.5q154 0 288 74v450h-299l-18 119h449v-647
q-108 -56 -207 -85t-233 -29q-155 0 -271 78.5zM733 1732.5q29 -28.5 29 -70.5q0 -45 -29 -74t-76 -29q-45 0 -73 29t-28 74q0 42 28.5 70.5t72.5 28.5q47 0 76 -28.5z" />
    <glyph glyph-name="gdotaccent" unicode="&#x121;" 
d="M1095 1009q-64 -18 -133 -23t-176 -5q88 -41 132.5 -108t44.5 -154q0 -105 -45 -186.5t-131 -127t-204 -45.5q-58 0 -95 5.5t-73 17.5q-26 -20 -43 -51t-17 -64q0 -95 148 -95h194q100 0 183 -37t131.5 -101t48.5 -141q0 -151 -127 -231.5t-357 -80.5q-157 0 -249.5 32.5
t-133.5 100t-41 177.5h114q0 -70 26 -111.5t92.5 -62.5t187.5 -21q182 0 271 46.5t89 142.5q0 80 -74 122.5t-188 42.5h-194q-81 0 -136 26.5t-82.5 70.5t-27.5 97q0 49 29 95t85 84q-88 46 -130.5 116t-42.5 171q0 102 51 184t143 128.5t210 46.5q133 1 214.5 9.5t135.5 23
t124 42.5zM367 900q-68 -72 -68 -191t70 -191t209 -72q120 0 184.5 69.5t64.5 194.5q0 128 -64.5 195t-190.5 67q-137 0 -205 -72zM655 1496.5q29 -28.5 29 -70.5q0 -45 -29 -74t-76 -29q-45 0 -73 29t-28 74q0 42 28.5 70.5t72.5 28.5q47 0 76 -28.5z" />
    <glyph glyph-name="uni0122" unicode="&#x122;" 
d="M349 58.5q-116 78.5 -180 237t-64 391.5q0 227 78.5 386.5t205.5 239.5t272 80q125 0 209.5 -34t169.5 -112l-85 -88q-63 60 -136 88t-162 28q-111 0 -203.5 -56.5t-150.5 -188t-58 -342.5q0 -303 99.5 -446.5t295.5 -143.5q154 0 288 74v450h-299l-18 119h449v-647
q-108 -56 -207 -85t-233 -29q-155 0 -271 78.5zM738.5 -171q27.5 -27 27.5 -66q0 -23 -5 -42t-20 -52l-100 -220h-86l60 236q-17 13 -27 34.5t-10 43.5q0 40 27.5 66.5t66.5 26.5t66.5 -27z" />
    <glyph glyph-name="uni0123" unicode="&#x123;" 
d="M506.5 1221q-27.5 27 -27.5 66q0 23 5 42t20 52l100 220h86l-60 -236q17 -13 27 -34.5t10 -43.5q0 -40 -27.5 -66.5t-66.5 -26.5t-66.5 27zM1095 1009q-64 -18 -133 -23t-176 -5q88 -41 132.5 -108t44.5 -154q0 -105 -45 -186.5t-131 -127t-204 -45.5q-58 0 -95 5.5
t-73 17.5q-26 -20 -43 -51t-17 -64q0 -95 148 -95h194q100 0 183 -37t131.5 -101t48.5 -141q0 -151 -127 -231.5t-357 -80.5q-157 0 -249.5 32.5t-133.5 100t-41 177.5h114q0 -70 26 -111.5t92.5 -62.5t187.5 -21q182 0 271 46.5t89 142.5q0 80 -74 122.5t-188 42.5h-194
q-81 0 -136 26.5t-82.5 70.5t-27.5 97q0 49 29 95t85 84q-88 46 -130.5 116t-42.5 171q0 102 51 184t143 128.5t210 46.5q133 1 214.5 9.5t135.5 23t124 42.5zM367 900q-68 -72 -68 -191t70 -191t209 -72q120 0 184.5 69.5t64.5 194.5q0 128 -64.5 195t-190.5 67
q-137 0 -205 -72z" />
    <glyph glyph-name="Hcircumflex" unicode="&#x124;" 
d="M1014 0h-127v674h-574v-674h-127v1374h127v-596h574v596h127v-1374zM557 1802h89l265 -202l-62 -72l-249 158l-246 -158l-64 72z" />
    <glyph glyph-name="hcircumflex" unicode="&#x125;" 
d="M343 895q59 83 152 128.5t191 45.5q298 0 298 -309v-760h-124v782q0 94 -51 139t-155 45q-64 0 -125 -28.5t-109 -72t-77 -88.5v-777h-124v1472l124 15v-592zM557 1903h89l265 -202l-62 -72l-249 158l-246 -158l-64 72z" />
    <glyph glyph-name="Hbar" unicode="&#x126;" 
d="M1019 1141h177v-118h-177v-1023h-128v670h-582v-670h-128v1023h-177v118h177v233h128v-233h582v233h128v-233zM309 781h582v242h-582v-242z" />
    <glyph glyph-name="hbar" unicode="&#x127;" 
d="M984 760v-760h-124v782q0 94 -51 139t-155 45q-64 0 -125 -28.5t-109 -72t-77 -88.5v-777h-124v1198h-174v119h174v155l124 15v-170h355v-119h-355v-303q59 83 152 128.5t191 45.5q298 0 298 -309z" />
    <glyph glyph-name="Itilde" unicode="&#x128;" 
d="M223 1374h754v-109h-312v-1156h312v-109h-754v109h312v1156h-312v109zM652 1581q-30 14 -69 41q-34 23 -55 33.5t-44 10.5q-32 0 -56.5 -23t-49.5 -71l-91 47q36 68 86 108t114 40q38 0 68 -14t68 -41q30 -22 51.5 -32.5t44.5 -10.5q28 0 53.5 21t53.5 67l90 -46
q-71 -144 -198 -144q-36 0 -66 14z" />
    <glyph glyph-name="itilde" unicode="&#x129;" 
d="M272 1050h446v-942h305v-108h-761v108h332v834h-322v108zM656 1345q-30 14 -69 41q-34 23 -55 33.5t-44 10.5q-32 0 -56.5 -23t-49.5 -71l-91 47q36 68 86 108t114 40q38 0 68 -14t68 -41q30 -22 51.5 -32.5t44.5 -10.5q28 0 53.5 21t53.5 67l90 -46q-71 -144 -198 -144
q-36 0 -66 14z" />
    <glyph glyph-name="Imacron" unicode="&#x12a;" 
d="M223 1374h754v-109h-312v-1156h312v-109h-754v109h312v1156h-312v109zM857 1700v-101h-517v101h517z" />
    <glyph glyph-name="imacron" unicode="&#x12b;" 
d="M272 1050h446v-942h305v-108h-761v108h332v834h-322v108zM861 1464v-101h-517v101h517z" />
    <glyph glyph-name="Ibreve" unicode="&#x12c;" 
d="M223 1374h754v-109h-312v-1156h312v-109h-754v109h312v1156h-312v109zM464.5 1548.5q-61.5 26.5 -102.5 76t-48 115.5l99 23q22 -63 67.5 -100t113.5 -37t117.5 38t72.5 99l98 -23q-7 -66 -49.5 -115.5t-106 -76t-132.5 -26.5q-68 0 -129.5 26.5z" />
    <glyph glyph-name="ibreve" unicode="&#x12d;" 
d="M272 1050h446v-942h305v-108h-761v108h332v834h-322v108zM458 1309q-60 38 -95 95.5t-44 114.5l98 24q23 -80 68 -125t113 -45q71 0 119 45.5t71 124.5l99 -24q-9 -57 -45.5 -114.5t-99 -95.5t-144.5 -38q-80 0 -140 38z" />
    <glyph glyph-name="Iogonek" unicode="&#x12e;" 
d="M977 1265h-312v-1156h312v-109h-312q-102 -48 -157.5 -87.5t-75.5 -73.5t-20 -71q0 -47 24.5 -71t85.5 -24q32 0 60.5 3t68.5 11l-16 -118q-37 -7 -64.5 -10.5t-64.5 -3.5q-71 0 -122 25t-77.5 66.5t-26.5 90.5q0 164 224 263h-281v109h312v1156h-312v109h754v-109z" />
    <glyph glyph-name="iogonek" unicode="&#x12f;" 
d="M528 1352q-28 29 -28 74q0 42 28.5 70.5t72.5 28.5q47 0 76 -28.5t29 -70.5q0 -45 -29 -74t-76 -29q-45 0 -73 29zM718 108h305v-108h-305q-102 -48 -157.5 -87.5t-75.5 -73.5t-20 -71q0 -47 24.5 -71t85.5 -24q32 0 60.5 3t68.5 11l-16 -118q-37 -7 -64.5 -10.5
t-64.5 -3.5q-71 0 -122 25t-77.5 66.5t-26.5 90.5q0 164 224 263h-295v108h332v834h-322v108h446v-942z" />
    <glyph glyph-name="Idotaccent" unicode="&#x130;" 
d="M223 1374h754v-109h-312v-1156h312v-109h-754v109h312v1156h-312v109zM673 1732.5q29 -28.5 29 -70.5q0 -45 -29 -74t-76 -29q-45 0 -73 29t-28 74q0 42 28.5 70.5t72.5 28.5q47 0 76 -28.5z" />
    <glyph glyph-name="dotlessi" unicode="&#x131;" 
d="M272 1050h446v-942h305v-108h-761v108h332v834h-322v108z" />
    <glyph glyph-name="IJ" unicode="&#x132;" 
d="M397 -141q201 15 315.5 84.5t160 183t45.5 277.5v844h-536v-1123h176v-125h-533v125h216v1123h-216v126h1026v-988q0 -166 -52.5 -298t-194 -223.5t-392.5 -108.5z" />
    <glyph glyph-name="ij" unicode="&#x133;" 
d="M443 1496.5q29 -28.5 29 -70.5q0 -45 -28.5 -74t-73.5 -29t-73.5 29t-28.5 74q0 42 28.5 70.5t73.5 28.5q44 0 73 -28.5zM966 1496.5q29 -28.5 29 -70.5q0 -45 -29 -74t-74 -29t-73 29t-28 74q0 42 28 70.5t73 28.5t74 -28.5zM974 69q0 -175 -135 -295t-349 -192l-34 100
q116 49 198 95.5t141.5 118.5t59.5 168v883h-431v-839h217v-108h-536v108h202v839h-192v103h859v-981z" />
    <glyph glyph-name="Jcircumflex" unicode="&#x134;" 
d="M975 445q0 -118 -38 -222t-137 -174t-269 -70q-95 0 -191.5 32t-174.5 92l63 89q155 -97 306 -97q152 0 233 97.5t81 266.5v803h-403v112h530v-929zM655 1802h89l265 -202l-62 -72l-249 158l-246 -158l-64 72z" />
    <glyph glyph-name="jcircumflex" unicode="&#x135;" 
d="M874 128q0 -232 -166 -364.5t-480 -181.5l-21 97q543 79 543 440v823h-455v108h579v-922zM737 1447l-243 -179l-70 70l267 225h89l265 -225l-65 -70z" />
    <glyph glyph-name="uni0136" unicode="&#x136;" 
d="M364 1374v-1374h-127v1374h127zM993 0l-619 734l591 640h157l-581 -633l619 -741h-167zM732.5 -171q27.5 -27 27.5 -66q0 -23 -5 -42t-20 -52l-100 -220h-86l60 236q-17 13 -27 34.5t-10 43.5q0 40 27.5 66.5t66.5 26.5t66.5 -27z" />
    <glyph glyph-name="uni0137" unicode="&#x137;" 
d="M233 1475l124 17v-1492h-124v1475zM879 1050h185l-511 -475l573 -575h-179l-569 573zM689.5 -171q27.5 -27 27.5 -66q0 -23 -5 -42t-20 -52l-100 -220h-86l60 236q-17 13 -27 34.5t-10 43.5q0 40 27.5 66.5t66.5 26.5t66.5 -27z" />
    <glyph glyph-name="kgreenlandic" unicode="&#x138;" 
d="M219 1050h124v-1050h-124v1050zM865 1050h184l-515 -473l578 -577h-180l-569 569z" />
    <glyph glyph-name="Lacute" unicode="&#x139;" 
d="M1045 0h-749v1374h128v-1250h637zM143 1583l386 201l63 -117l-413 -153z" />
    <glyph glyph-name="lacute" unicode="&#x13a;" 
d="M586 238q0 -78 49.5 -114t135.5 -36q88 0 185 38l36 -96q-43 -22 -103.5 -36t-129.5 -14q-84 0 -151.5 30.5t-106.5 89t-39 138.5v1129h-326v108h450v-1237zM327 1785l380 211l64 -116l-402 -165z" />
    <glyph glyph-name="uni013B" unicode="&#x13b;" 
d="M1045 0h-749v1374h128v-1250h637zM745.5 -171q27.5 -27 27.5 -66q0 -23 -5 -42t-20 -52l-100 -220h-86l60 236q-17 13 -27 34.5t-10 43.5q0 40 27.5 66.5t66.5 26.5t66.5 -27z" />
    <glyph glyph-name="uni013C" unicode="&#x13c;" 
d="M586 238q0 -78 49.5 -114t135.5 -36q88 0 185 38l36 -96q-43 -22 -103.5 -36t-129.5 -14q-84 0 -151.5 30.5t-106.5 89t-39 138.5v1129h-326v108h450v-1237zM799.5 -171q27.5 -27 27.5 -66q0 -23 -5 -42t-20 -52l-100 -220h-86l60 236q-17 13 -27 34.5t-10 43.5
q0 40 27.5 66.5t66.5 26.5t66.5 -27z" />
    <glyph glyph-name="Lcaron" unicode="&#x13d;" 
d="M1045 0h-749v1374h128v-1250h637zM548 1054l41 329l116 -13l-93 -325z" />
    <glyph glyph-name="lcaron" unicode="&#x13e;" 
d="M586 238q0 -78 49.5 -114t135.5 -36q88 0 185 38l36 -96q-43 -22 -103.5 -36t-129.5 -14q-84 0 -151.5 30.5t-106.5 89t-39 138.5v1129h-326v108h450v-1237zM699 1155l41 329l116 -13l-93 -325z" />
    <glyph glyph-name="Ldot" unicode="&#x13f;" 
d="M1045 0h-749v1374h128v-1250h637zM1022 824.5q29 -28.5 29 -70.5q0 -45 -29 -74t-76 -29q-45 0 -73 29t-28 74q0 42 28.5 70.5t72.5 28.5q47 0 76 -28.5z" />
    <glyph glyph-name="ldot" unicode="&#x140;" 
d="M586 238q0 -78 49.5 -114t135.5 -36q88 0 185 38l36 -96q-43 -22 -103.5 -36t-129.5 -14q-84 0 -151.5 30.5t-106.5 89t-39 138.5v1129h-326v108h450v-1237zM1192 834.5q29 -28.5 29 -70.5q0 -45 -29 -74t-76 -29q-45 0 -73 29t-28 74q0 42 28.5 70.5t72.5 28.5
q47 0 76 -28.5z" />
    <glyph glyph-name="Lslash" unicode="&#x141;" 
d="M411 639v-515h637l-16 -124h-749v559l-122 -75l-61 95l183 113v682h128v-602l352 218l64 -94z" />
    <glyph glyph-name="lslash" unicode="&#x142;" 
d="M992 30q-43 -22 -103.5 -36t-129.5 -14q-84 0 -151.5 30.5t-106.5 89t-39 138.5v402l-148 -91l-60 89l208 125v604h-326v108h450v-635l195 121l59 -88l-254 -156v-479q0 -78 49.5 -114t135.5 -36q88 0 185 38z" />
    <glyph glyph-name="Nacute" unicode="&#x143;" 
d="M297 1239q-1 -20 4 -147q11 -220 11 -352v-740h-126v1374h183l534 -1247q2 12 -0.5 60t-3.5 70q-1 21 -6 138.5t-5 242.5v736h126v-1374h-197zM372 1583l386 201l63 -117l-413 -153z" />
    <glyph glyph-name="nacute" unicode="&#x144;" 
d="M219 0v1050h104l10 -153q40 53 100 92t126.5 59.5t126.5 20.5q156 0 227 -79t71 -230v-760h-124v627q0 132 -13.5 201.5t-57 103.5t-133.5 34q-66 0 -127.5 -29t-108.5 -73t-77 -90v-774h-124zM391 1360l380 211l64 -116l-402 -165z" />
    <glyph glyph-name="uni0145" unicode="&#x145;" 
d="M297 1239q-1 -20 4 -147q11 -220 11 -352v-740h-126v1374h183l534 -1247q2 12 -0.5 60t-3.5 70q-1 21 -6 138.5t-5 242.5v736h126v-1374h-197zM674.5 -171q27.5 -27 27.5 -66q0 -23 -5 -42t-20 -52l-100 -220h-86l60 236q-17 13 -27 34.5t-10 43.5q0 40 27.5 66.5
t66.5 26.5t66.5 -27z" />
    <glyph glyph-name="uni0146" unicode="&#x146;" 
d="M219 0v1050h104l10 -153q40 53 100 92t126.5 59.5t126.5 20.5q156 0 227 -79t71 -230v-760h-124v627q0 132 -13.5 201.5t-57 103.5t-133.5 34q-66 0 -127.5 -29t-108.5 -73t-77 -90v-774h-124zM677.5 -171q27.5 -27 27.5 -66q0 -23 -5 -42t-20 -52l-100 -220h-86l60 236
q-17 13 -27 34.5t-10 43.5q0 40 27.5 66.5t66.5 26.5t66.5 -27z" />
    <glyph glyph-name="Ncaron" unicode="&#x147;" 
d="M297 1239q-1 -20 4 -147q11 -220 11 -352v-740h-126v1374h183l534 -1247q2 12 -0.5 60t-3.5 70q-1 21 -6 138.5t-5 242.5v736h126v-1374h-197zM591 1626l249 158l62 -72l-265 -201h-89l-267 201l64 72z" />
    <glyph glyph-name="ncaron" unicode="&#x148;" 
d="M219 0v1050h104l10 -153q40 53 100 92t126.5 59.5t126.5 20.5q156 0 227 -79t71 -230v-760h-124v627q0 132 -13.5 201.5t-57 103.5t-133.5 34q-66 0 -127.5 -29t-108.5 -73t-77 -90v-774h-124zM602 1383l243 180l65 -70l-265 -225h-89l-267 225l70 70z" />
    <glyph glyph-name="napostrophe" unicode="&#x149;" 
d="M198 1468.5q28 -27.5 28 -67.5q0 -21 -10.5 -53t-44.5 -104l-82 -177h-83l65 254q-19 17 -30 38t-11 42q0 42 29 68.5t71 26.5q40 0 68 -27.5zM230 0v1050h104l10 -153q40 53 100 92t126.5 59.5t126.5 20.5q156 0 227 -79t71 -230v-760h-124v627q0 132 -13.5 201.5
t-57 103.5t-133.5 34q-66 0 -127.5 -29t-108.5 -73t-77 -90v-774h-124z" />
    <glyph glyph-name="Eng" unicode="&#x14a;" 
d="M888 1374h126v-1518q0 -134 -69.5 -203t-187.5 -69q-67 0 -120.5 20.5t-90.5 49.5l49 94q43 -27 77.5 -39t84.5 -12q63 0 96.5 38.5t33.5 115.5v149h-70l-520 1239q-1 -20 4 -147q11 -220 11 -352v-740h-126v1374h183l534 -1247q2 12 -0.5 60t-3.5 70q-1 21 -6 138.5
t-5 242.5v736z" />
    <glyph glyph-name="eng" unicode="&#x14b;" 
d="M984 38q0 -139 -28 -221.5t-85.5 -133t-162.5 -98.5l-49 90q78 37 118.5 72t61.5 100.5t21 182.5v597q0 133 -13.5 202t-57 103t-135.5 34q-64 0 -125 -28.5t-109 -72t-77 -88.5v-777h-124v1050h104l10 -153q60 79 159 125.5t194 46.5q298 0 298 -309v-722z" />
    <glyph glyph-name="Omacron" unicode="&#x14c;" 
d="M1037 317q-56 -159 -166.5 -248t-270.5 -89t-270.5 87t-166.5 245t-56 370q0 209 56 369.5t167 251t270 90.5q160 0 270.5 -88.5t166.5 -248t56 -371.5q0 -209 -56 -368zM871.5 1125q-85.5 150 -271.5 150t-271.5 -151t-85.5 -442q0 -584 357 -584q185 0 271 148.5
t86 438.5t-85.5 440zM857 1700v-101h-517v101h517z" />
    <glyph glyph-name="omacron" unicode="&#x14d;" 
d="M841 1003q97 -66 145 -188t48 -290q0 -158 -49.5 -281.5t-147.5 -193.5t-237 -70q-141 0 -238.5 67.5t-146.5 189.5t-49 286q0 163 49.5 286t148 191.5t239.5 68.5t238 -66zM302 523q0 -433 298 -433t298 435t-295 435q-301 0 -301 -437zM857 1464v-101h-517v101h517z
" />
    <glyph glyph-name="Obreve" unicode="&#x14e;" 
d="M1037 317q-56 -159 -166.5 -248t-270.5 -89t-270.5 87t-166.5 245t-56 370q0 209 56 369.5t167 251t270 90.5q160 0 270.5 -88.5t166.5 -248t56 -371.5q0 -209 -56 -368zM871.5 1125q-85.5 150 -271.5 150t-271.5 -151t-85.5 -442q0 -584 357 -584q185 0 271 148.5
t86 438.5t-85.5 440zM464.5 1548.5q-61.5 26.5 -102.5 76t-48 115.5l99 23q22 -63 67.5 -100t113.5 -37t117.5 38t72.5 99l98 -23q-7 -66 -49.5 -115.5t-106 -76t-132.5 -26.5q-68 0 -129.5 26.5z" />
    <glyph glyph-name="obreve" unicode="&#x14f;" 
d="M841 1003q97 -66 145 -188t48 -290q0 -158 -49.5 -281.5t-147.5 -193.5t-237 -70q-141 0 -238.5 67.5t-146.5 189.5t-49 286q0 163 49.5 286t148 191.5t239.5 68.5t238 -66zM302 523q0 -433 298 -433t298 435t-295 435q-301 0 -301 -437zM454 1309q-60 38 -95 95.5
t-44 114.5l98 24q23 -80 68 -125t113 -45q71 0 119 45.5t71 124.5l99 -24q-9 -57 -45.5 -114.5t-99 -95.5t-144.5 -38q-80 0 -140 38z" />
    <glyph glyph-name="Ohungarumlaut" unicode="&#x150;" 
d="M1037 317q-56 -159 -166.5 -248t-270.5 -89t-270.5 87t-166.5 245t-56 370q0 209 56 369.5t167 251t270 90.5q160 0 270.5 -88.5t166.5 -248t56 -371.5q0 -209 -56 -368zM871.5 1125q-85.5 150 -271.5 150t-271.5 -151t-85.5 -442q0 -584 357 -584q185 0 271 148.5
t86 438.5t-85.5 440zM473 1515l-93 46l142 333l129 -62zM797 1510l-89 49l168 335l127 -69z" />
    <glyph glyph-name="ohungarumlaut" unicode="&#x151;" 
d="M841 1003q97 -66 145 -188t48 -290q0 -158 -49.5 -281.5t-147.5 -193.5t-237 -70q-141 0 -238.5 67.5t-146.5 189.5t-49 286q0 163 49.5 286t148 191.5t239.5 68.5t238 -66zM302 523q0 -433 298 -433t298 435t-295 435q-301 0 -301 -437zM458 1279l-93 46l142 333
l129 -62zM782 1274l-89 49l168 335l127 -69z" />
    <glyph glyph-name="OE" unicode="&#x152;" 
d="M544 1374h680l-17 -117h-524q129 -142 145 -501h325v-117h-326q-7 -370 -151 -522h571v-117h-708q-68 -20 -124 -20q-211 0 -317.5 175.5t-106.5 526.5q0 348 108 529.5t316 181.5q71 0 129 -19zM214.5 1133.5q-65.5 -140.5 -65.5 -451.5q0 -307 67 -445.5t199 -138.5
q93 0 152 59.5t88 188.5t29 339q0 209 -28.5 338.5t-87.5 190t-153 60.5q-135 0 -200.5 -140.5z" />
    <glyph glyph-name="oe" unicode="&#x153;" 
d="M1153.5 935.5q81.5 -133.5 81.5 -374.5q0 -20 -3 -92h-543q10 -129 36 -209.5t73 -119.5t120 -39q56 0 98.5 19.5t101.5 64.5l65 -102q-66 -52 -127 -77.5t-136 -25.5q-110 0 -185.5 56t-113.5 160q-42 -105 -109 -160.5t-183 -55.5q-165 0 -248 145.5t-83 397.5
q0 253 81.5 399.5t249.5 146.5q122 0 188.5 -55.5t104.5 -162.5q38 102 106 160t177 58q167 0 248.5 -133.5zM200 854.5q-47 -108.5 -47 -331.5q0 -152 20 -246.5t64 -140.5t115 -46q73 0 115 43.5t60.5 137.5t18.5 254q0 225 -45 331.5t-149 106.5q-105 0 -152 -108.5z
M791 912q-43 -35 -67 -113t-34 -210h403q-3 122 -21 199.5t-59.5 118t-111.5 40.5q-67 0 -110 -35z" />
    <glyph glyph-name="Racute" unicode="&#x154;" 
d="M1015 818.5q-46 -78.5 -125.5 -128.5t-182.5 -71l422 -619h-160l-398 609h-214v-609h-128v1374h329q246 0 374.5 -96t128.5 -279q0 -102 -46 -180.5zM839 1201.5q-81 62.5 -255 62.5h-227v-545h223q168 0 254 66t86 214q0 140 -81 202.5zM381 1583l386 201l63 -117
l-413 -153z" />
    <glyph glyph-name="racute" unicode="&#x155;" 
d="M967.5 1066q30.5 -5 74.5 -16l-14 -330h-120v205l2 26q-8 1 -25 1q-128 0 -216.5 -87.5t-144.5 -272.5v-488h216v-104h-511v104h171v841h-171v105h266l23 -252q66 137 154 205t228 68q37 0 67.5 -5zM456 1360l380 211l64 -116l-402 -165z" />
    <glyph glyph-name="uni0156" unicode="&#x156;" 
d="M1015 818.5q-46 -78.5 -125.5 -128.5t-182.5 -71l422 -619h-160l-398 609h-214v-609h-128v1374h329q246 0 374.5 -96t128.5 -279q0 -102 -46 -180.5zM839 1201.5q-81 62.5 -255 62.5h-227v-545h223q168 0 254 66t86 214q0 140 -81 202.5zM665.5 -171q27.5 -27 27.5 -66
q0 -23 -5 -42t-20 -52l-100 -220h-86l60 236q-17 13 -27 34.5t-10 43.5q0 40 27.5 66.5t66.5 26.5t66.5 -27z" />
    <glyph glyph-name="uni0157" unicode="&#x157;" 
d="M967.5 1066q30.5 -5 74.5 -16l-14 -330h-120v205l2 26q-8 1 -25 1q-128 0 -216.5 -87.5t-144.5 -272.5v-488h216v-104h-511v104h171v841h-171v105h266l23 -252q66 137 154 205t228 68q37 0 67.5 -5zM537.5 -171q27.5 -27 27.5 -66q0 -23 -5 -42t-20 -52l-100 -220h-86
l60 236q-17 13 -27 34.5t-10 43.5q0 40 27.5 66.5t66.5 26.5t66.5 -27z" />
    <glyph glyph-name="Rcaron" unicode="&#x158;" 
d="M1015 818.5q-46 -78.5 -125.5 -128.5t-182.5 -71l422 -619h-160l-398 609h-214v-609h-128v1374h329q246 0 374.5 -96t128.5 -279q0 -102 -46 -180.5zM839 1201.5q-81 62.5 -255 62.5h-227v-545h223q168 0 254 66t86 214q0 140 -81 202.5zM600 1626l249 158l62 -72
l-265 -201h-89l-267 201l64 72z" />
    <glyph glyph-name="rcaron" unicode="&#x159;" 
d="M967.5 1066q30.5 -5 74.5 -16l-14 -330h-120v205l2 26q-8 1 -25 1q-128 0 -216.5 -87.5t-144.5 -272.5v-488h216v-104h-511v104h171v841h-171v105h266l23 -252q66 137 154 205t228 68q37 0 67.5 -5zM667 1383l243 180l65 -70l-265 -225h-89l-267 225l70 70z" />
    <glyph glyph-name="Sacute" unicode="&#x15a;" 
d="M997 169q-57 -89 -166.5 -139t-261.5 -50q-138 0 -257.5 43t-205.5 126l84 96q74 -72 167.5 -110t218.5 -38q92 0 170.5 31t127 94t48.5 155q0 74 -27.5 124t-96 88.5t-193.5 75.5q-143 41 -238 88.5t-149.5 120.5t-54.5 179q0 96 52.5 173.5t149 122t221.5 44.5
q133 0 233.5 -37.5t189.5 -113.5l-86 -94q-73 65 -159 96.5t-178 31.5q-81 0 -148 -25t-107 -75t-40 -123q0 -65 34.5 -111t112.5 -84t219 -79q120 -34 204.5 -77.5t138.5 -123t54 -204.5q0 -116 -57 -205zM389 1583l386 201l63 -117l-413 -153z" />
    <glyph glyph-name="sacute" unicode="&#x15b;" 
d="M710 116.5q65 23.5 99.5 65.5t34.5 98q0 57 -18 93.5t-72.5 66.5t-164.5 57q-127 31 -204.5 64.5t-120.5 89.5t-43 143q0 85 49 147t135.5 95t196.5 33q115 0 207 -31t161 -82l-58 -92q-66 46 -137 70.5t-172 24.5q-132 0 -191.5 -41.5t-59.5 -113.5q0 -52 27 -85.5
t87 -58.5t174 -55q113 -30 187 -68t115 -99.5t41 -154.5q0 -105 -60 -173t-156.5 -99t-210.5 -31q-235 0 -393 137l77 91q63 -54 144.5 -84.5t172.5 -30.5q88 0 153 23.5zM404 1360l380 211l64 -116l-402 -165z" />
    <glyph glyph-name="Scircumflex" unicode="&#x15c;" 
d="M997 169q-57 -89 -166.5 -139t-261.5 -50q-138 0 -257.5 43t-205.5 126l84 96q74 -72 167.5 -110t218.5 -38q92 0 170.5 31t127 94t48.5 155q0 74 -27.5 124t-96 88.5t-193.5 75.5q-143 41 -238 88.5t-149.5 120.5t-54.5 179q0 96 52.5 173.5t149 122t221.5 44.5
q133 0 233.5 -37.5t189.5 -113.5l-86 -94q-73 65 -159 96.5t-178 31.5q-81 0 -148 -25t-107 -75t-40 -123q0 -65 34.5 -111t112.5 -84t219 -79q120 -34 204.5 -77.5t138.5 -123t54 -204.5q0 -116 -57 -205zM565 1802h89l265 -202l-62 -72l-249 158l-246 -158l-64 72z" />
    <glyph glyph-name="scircumflex" unicode="&#x15d;" 
d="M710 116.5q65 23.5 99.5 65.5t34.5 98q0 57 -18 93.5t-72.5 66.5t-164.5 57q-127 31 -204.5 64.5t-120.5 89.5t-43 143q0 85 49 147t135.5 95t196.5 33q115 0 207 -31t161 -82l-58 -92q-66 46 -137 70.5t-172 24.5q-132 0 -191.5 -41.5t-59.5 -113.5q0 -52 27 -85.5
t87 -58.5t174 -55q113 -30 187 -68t115 -99.5t41 -154.5q0 -105 -60 -173t-156.5 -99t-210.5 -31q-235 0 -393 137l77 91q63 -54 144.5 -84.5t172.5 -30.5q88 0 153 23.5zM615 1447l-243 -179l-70 70l267 225h89l265 -225l-65 -70z" />
    <glyph glyph-name="Scedilla" unicode="&#x15e;" 
d="M1004 179.5q-50 -85.5 -146.5 -137t-232.5 -60.5v-101q90 -7 134.5 -52.5t44.5 -105.5q0 -62 -32.5 -104t-84 -62t-111.5 -20q-57 0 -110 11.5t-91 33.5l48 83q27 -15 65 -23t72 -8q58 0 91 21t33 67q0 54 -42 72.5t-128 18.5l11 168q-125 7 -232 49.5t-187 118.5l84 96
q74 -72 167.5 -110t218.5 -38q92 0 170.5 31t127 94t48.5 155q0 74 -27.5 124t-96 88.5t-193.5 75.5q-143 41 -238 88.5t-149.5 120.5t-54.5 179q0 96 52.5 173.5t149 122t221.5 44.5q133 0 233.5 -37.5t189.5 -113.5l-86 -94q-73 65 -159 96.5t-178 31.5q-81 0 -148 -25
t-107 -75t-40 -123q0 -65 34.5 -111t112.5 -84t219 -79q120 -34 204.5 -77.5t138.5 -123t54 -204.5q0 -109 -50 -194.5z" />
    <glyph glyph-name="scedilla" unicode="&#x15f;" 
d="M881.5 70q-101.5 -74 -257.5 -87v-102q90 -7 134.5 -52.5t44.5 -105.5q0 -62 -32.5 -104t-84 -62t-111.5 -20q-57 0 -110 11.5t-91 33.5l48 83q27 -15 65 -23t72 -8q58 0 91 21t33 67q0 54 -42 72.5t-128 18.5l11 168q-216 9 -361 136l77 91q63 -54 144.5 -84.5
t172.5 -30.5q88 0 153 23.5t99.5 65.5t34.5 98q0 57 -18 93.5t-72.5 66.5t-164.5 57q-127 31 -204.5 64.5t-120.5 89.5t-43 143q0 85 49 147t135.5 95t196.5 33q115 0 207 -31t161 -82l-58 -92q-66 46 -137 70.5t-172 24.5q-132 0 -191.5 -41.5t-59.5 -113.5q0 -52 27 -85.5
t87 -58.5t174 -55q113 -30 187 -68t115 -99.5t41 -154.5q0 -139 -101.5 -213z" />
    <glyph glyph-name="Scaron" unicode="&#x160;" 
d="M997 169q-57 -89 -166.5 -139t-261.5 -50q-138 0 -257.5 43t-205.5 126l84 96q74 -72 167.5 -110t218.5 -38q92 0 170.5 31t127 94t48.5 155q0 74 -27.5 124t-96 88.5t-193.5 75.5q-143 41 -238 88.5t-149.5 120.5t-54.5 179q0 96 52.5 173.5t149 122t221.5 44.5
q133 0 233.5 -37.5t189.5 -113.5l-86 -94q-73 65 -159 96.5t-178 31.5q-81 0 -148 -25t-107 -75t-40 -123q0 -65 34.5 -111t112.5 -84t219 -79q120 -34 204.5 -77.5t138.5 -123t54 -204.5q0 -116 -57 -205zM608 1626l249 158l62 -72l-265 -201h-89l-267 201l64 72z" />
    <glyph glyph-name="scaron" unicode="&#x161;" 
d="M710 116.5q65 23.5 99.5 65.5t34.5 98q0 57 -18 93.5t-72.5 66.5t-164.5 57q-127 31 -204.5 64.5t-120.5 89.5t-43 143q0 85 49 147t135.5 95t196.5 33q115 0 207 -31t161 -82l-58 -92q-66 46 -137 70.5t-172 24.5q-132 0 -191.5 -41.5t-59.5 -113.5q0 -52 27 -85.5
t87 -58.5t174 -55q113 -30 187 -68t115 -99.5t41 -154.5q0 -105 -60 -173t-156.5 -99t-210.5 -31q-235 0 -393 137l77 91q63 -54 144.5 -84.5t172.5 -30.5q88 0 153 23.5zM615 1383l243 180l65 -70l-265 -225h-89l-267 225l70 70z" />
    <glyph glyph-name="uni0162" unicode="&#x162;" 
d="M660 0h-15v-119q90 -7 134.5 -52.5t44.5 -105.5q0 -62 -32.5 -104t-84 -62t-111.5 -20q-57 0 -110 11.5t-91 33.5l48 83q27 -15 65 -23t72 -8q58 0 91 21t33 67q0 54 -42 72.5t-128 18.5l12 187h-13v1256h-443v118h1015l-14 -118h-431v-1256z" />
    <glyph glyph-name="uni0163" unicode="&#x163;" 
d="M783 -119q90 -7 134.5 -52.5t44.5 -105.5q0 -62 -32.5 -104t-84 -62t-111.5 -20q-57 0 -110 11.5t-91 33.5l48 83q27 -15 65 -23t72 -8q58 0 91 21t33 67q0 54 -42 72.5t-128 18.5l11 173q-82 13 -141 53t-90.5 101t-31.5 135v671h-248v104h248v242l124 15v-257h370
l-17 -104h-353v-668q0 -94 51 -142t165 -48q109 0 206 51l54 -89q-45 -29 -110 -47.5t-127 -21.5v-100z" />
    <glyph glyph-name="Tcaron" unicode="&#x164;" 
d="M1091 1256h-431v-1256h-127v1256h-443v118h1015zM598 1626l249 158l62 -72l-265 -201h-89l-267 201l64 72z" />
    <glyph glyph-name="tcaron" unicode="&#x165;" 
d="M1020 50q-50 -33 -123.5 -51.5t-139.5 -18.5q-103 0 -179.5 38t-117 105t-40.5 152v671h-248v104h248v242l124 15v-257h370l-17 -104h-353v-668q0 -94 51 -142t165 -48q109 0 206 51zM665 1151l41 329l116 -13l-93 -325z" />
    <glyph glyph-name="Tbar" unicode="&#x166;" 
d="M1105 1374l-14 -118h-431v-415h272v-120h-272v-721h-127v721h-270v120h270v415h-443v118h1015z" />
    <glyph glyph-name="tbar" unicode="&#x167;" 
d="M1020 50q-50 -33 -123.5 -51.5t-139.5 -18.5q-103 0 -179.5 38t-117 105t-40.5 152v316h-227v108h227v247h-248v104h248v242l124 15v-257h370l-17 -104h-353v-247h357v-108h-357v-313q0 -94 51 -142t165 -48q109 0 206 51z" />
    <glyph glyph-name="Utilde" unicode="&#x168;" 
d="M1037 441q0 -137 -55.5 -241.5t-155.5 -162t-229 -57.5q-130 0 -228.5 58t-152 162.5t-53.5 240.5v933h126v-977q0 -145 83 -220t225 -75q144 0 227.5 75t83.5 220v977h129v-933zM652 1581q-30 14 -69 41q-34 23 -55 33.5t-44 10.5q-32 0 -56.5 -23t-49.5 -71l-91 47
q36 68 86 108t114 40q38 0 68 -14t68 -41q30 -22 51.5 -32.5t44.5 -10.5q28 0 53.5 21t53.5 67l90 -46q-71 -144 -198 -144q-36 0 -66 14z" />
    <glyph glyph-name="utilde" unicode="&#x169;" 
d="M343 299q0 -112 47.5 -163.5t150.5 -51.5q93 0 180.5 53.5t135.5 129.5v783h124v-1050h-104l-14 147q-63 -79 -155 -123t-185 -44q-150 0 -227 78.5t-77 225.5v766h124v-751zM652 1345q-30 14 -69 41q-34 23 -55 33.5t-44 10.5q-32 0 -56.5 -23t-49.5 -71l-91 47
q36 68 86 108t114 40q38 0 68 -14t68 -41q30 -22 51.5 -32.5t44.5 -10.5q28 0 53.5 21t53.5 67l90 -46q-71 -144 -198 -144q-36 0 -66 14z" />
    <glyph glyph-name="Umacron" unicode="&#x16a;" 
d="M1037 441q0 -137 -55.5 -241.5t-155.5 -162t-229 -57.5q-130 0 -228.5 58t-152 162.5t-53.5 240.5v933h126v-977q0 -145 83 -220t225 -75q144 0 227.5 75t83.5 220v977h129v-933zM857 1700v-101h-517v101h517z" />
    <glyph glyph-name="umacron" unicode="&#x16b;" 
d="M343 299q0 -112 47.5 -163.5t150.5 -51.5q93 0 180.5 53.5t135.5 129.5v783h124v-1050h-104l-14 147q-63 -79 -155 -123t-185 -44q-150 0 -227 78.5t-77 225.5v766h124v-751zM857 1464v-101h-517v101h517z" />
    <glyph glyph-name="Ubreve" unicode="&#x16c;" 
d="M1037 441q0 -137 -55.5 -241.5t-155.5 -162t-229 -57.5q-130 0 -228.5 58t-152 162.5t-53.5 240.5v933h126v-977q0 -145 83 -220t225 -75q144 0 227.5 75t83.5 220v977h129v-933zM464.5 1548.5q-61.5 26.5 -102.5 76t-48 115.5l99 23q22 -63 67.5 -100t113.5 -37
t117.5 38t72.5 99l98 -23q-7 -66 -49.5 -115.5t-106 -76t-132.5 -26.5q-68 0 -129.5 26.5z" />
    <glyph glyph-name="ubreve" unicode="&#x16d;" 
d="M343 299q0 -112 47.5 -163.5t150.5 -51.5q93 0 180.5 53.5t135.5 129.5v783h124v-1050h-104l-14 147q-63 -79 -155 -123t-185 -44q-150 0 -227 78.5t-77 225.5v766h124v-751zM454 1309q-60 38 -95 95.5t-44 114.5l98 24q23 -80 68 -125t113 -45q71 0 119 45.5t71 124.5
l99 -24q-9 -57 -45.5 -114.5t-99 -95.5t-144.5 -38q-80 0 -140 38z" />
    <glyph glyph-name="Uring" unicode="&#x16e;" 
d="M1037 441q0 -137 -55.5 -241.5t-155.5 -162t-229 -57.5q-130 0 -228.5 58t-152 162.5t-53.5 240.5v933h126v-977q0 -145 83 -220t225 -75q144 0 227.5 75t83.5 220v977h129v-933zM705 1833.5q47 -24.5 74 -68t27 -96.5q0 -51 -27 -93.5t-74 -67t-104 -24.5
q-58 0 -105 24.5t-74 67t-27 93.5q0 53 27 96.5t74 68t105 24.5q57 0 104 -24.5zM518 1755.5q-31 -32.5 -31 -86.5q0 -53 31 -85t83 -32q53 0 83 32t30 85q0 55 -30 87t-83 32q-52 0 -83 -32.5z" />
    <glyph glyph-name="uring" unicode="&#x16f;" 
d="M343 299q0 -112 47.5 -163.5t150.5 -51.5q93 0 180.5 53.5t135.5 129.5v783h124v-1050h-104l-14 147q-63 -79 -155 -123t-185 -44q-150 0 -227 78.5t-77 225.5v766h124v-751zM705 1597.5q47 -24.5 74 -68t27 -96.5q0 -51 -27 -93.5t-74 -67t-104 -24.5q-58 0 -105 24.5
t-74 67t-27 93.5q0 53 27 96.5t74 68t105 24.5q57 0 104 -24.5zM518 1519.5q-31 -32.5 -31 -86.5q0 -53 31 -85t83 -32q53 0 83 32t30 85q0 55 -30 87t-83 32q-52 0 -83 -32.5z" />
    <glyph glyph-name="Uhungarumlaut" unicode="&#x170;" 
d="M1037 441q0 -137 -55.5 -241.5t-155.5 -162t-229 -57.5q-130 0 -228.5 58t-152 162.5t-53.5 240.5v933h126v-977q0 -145 83 -220t225 -75q144 0 227.5 75t83.5 220v977h129v-933zM473 1515l-93 46l142 333l129 -62zM797 1510l-89 49l168 335l127 -69z" />
    <glyph glyph-name="uhungarumlaut" unicode="&#x171;" 
d="M343 299q0 -112 47.5 -163.5t150.5 -51.5q93 0 180.5 53.5t135.5 129.5v783h124v-1050h-104l-14 147q-63 -79 -155 -123t-185 -44q-150 0 -227 78.5t-77 225.5v766h124v-751zM458 1279l-93 46l142 333l129 -62zM782 1274l-89 49l168 335l127 -69z" />
    <glyph glyph-name="Uogonek" unicode="&#x172;" 
d="M908 1374h129v-933q0 -113 -38 -204.5t-108 -152.5t-164 -87q-99 -47 -153 -86t-73.5 -72.5t-19.5 -70.5q0 -47 24.5 -71t85.5 -24q32 0 60.5 3t68.5 11l-16 -118q-37 -7 -64.5 -10.5t-64.5 -3.5q-71 0 -122 25t-77.5 66.5t-26.5 90.5q0 150 189 246q-114 13 -198.5 74
t-130.5 160t-46 224v933h126v-977q0 -145 83 -220t225 -75q144 0 227.5 75t83.5 220v977z" />
    <glyph glyph-name="uogonek" unicode="&#x173;" 
d="M981 0q-102 -48 -157.5 -87.5t-75.5 -73.5t-20 -71q0 -47 24.5 -71t85.5 -24q32 0 60.5 3t68.5 11l-16 -118q-37 -7 -64.5 -10.5t-64.5 -3.5q-71 0 -122 25t-77.5 66.5t-26.5 90.5q0 183 279 285l-12 125q-63 -79 -155 -123t-185 -44q-150 0 -227 78.5t-77 225.5v766h124
v-751q0 -112 47.5 -163.5t150.5 -51.5q93 0 180.5 53.5t135.5 129.5v783h124v-1050z" />
    <glyph glyph-name="Wcircumflex" unicode="&#x174;" 
d="M1062 1374h124l-224 -1374h-194l-175 1053l-173 -1053h-200l-206 1374h134l177 -1210l180 1050h192l172 -1050zM557 1802h89l265 -202l-62 -72l-249 158l-246 -158l-64 72z" />
    <glyph glyph-name="wcircumflex" unicode="&#x175;" 
d="M1157 1050l-194 -1050h-205l-150 790l-163 -790h-199l-203 1050h137l154 -974l185 840h179l176 -840l153 974h130zM603 1447l-243 -179l-70 70l267 225h89l265 -225l-65 -70z" />
    <glyph glyph-name="Ycircumflex" unicode="&#x176;" 
d="M1134 1374l-469 -840v-534h-130v532l-469 842h142l395 -717l400 717h131zM566 1802h89l265 -202l-62 -72l-249 158l-246 -158l-64 72z" />
    <glyph glyph-name="ycircumflex" unicode="&#x177;" 
d="M682 -9q-40 -113 -90 -195.5t-134 -140t-209 -72.5l-22 108q106 19 169 58t98.5 97t66.5 154h-41l-377 1050h134l331 -944l320 944h129zM603 1447l-243 -179l-70 70l267 225h89l265 -225l-65 -70z" />
    <glyph glyph-name="Ydieresis" unicode="&#x178;" 
d="M1134 1374l-469 -840v-534h-130v532l-469 842h142l395 -717l400 717h131zM341.5 1564.5q-26.5 25.5 -26.5 64.5q0 41 26.5 67t67.5 26q38 0 64.5 -26t26.5 -67q0 -39 -26.5 -64.5t-64.5 -25.5q-41 0 -67.5 25.5zM741 1564.5q-26 25.5 -26 64.5q0 41 26 67t65 26
q41 0 67.5 -26t26.5 -67q0 -39 -26.5 -64.5t-67.5 -25.5q-39 0 -65 25.5z" />
    <glyph glyph-name="Zacute" unicode="&#x179;" 
d="M1041 1263l-746 -1146h739l-17 -117h-855v110l749 1147h-677v117h807v-111zM421 1583l386 201l63 -117l-413 -153z" />
    <glyph glyph-name="zacute" unicode="&#x17a;" 
d="M977 948l-598 -833h602l-19 -115h-739v99l601 833h-554v118h707v-102zM415 1360l380 211l64 -116l-402 -165z" />
    <glyph glyph-name="Zdotaccent" unicode="&#x17b;" 
d="M1041 1263l-746 -1146h739l-17 -117h-855v110l749 1147h-677v117h807v-111zM713 1732.5q29 -28.5 29 -70.5q0 -45 -29 -74t-76 -29q-45 0 -73 29t-28 74q0 42 28.5 70.5t72.5 28.5q47 0 76 -28.5z" />
    <glyph glyph-name="zdotaccent" unicode="&#x17c;" 
d="M977 948l-598 -833h602l-19 -115h-739v99l601 833h-554v118h707v-102zM696 1496.5q29 -28.5 29 -70.5q0 -45 -29 -74t-76 -29q-45 0 -73 29t-28 74q0 42 28.5 70.5t72.5 28.5q47 0 76 -28.5z" />
    <glyph glyph-name="Zcaron" unicode="&#x17d;" 
d="M1041 1263l-746 -1146h739l-17 -117h-855v110l749 1147h-677v117h807v-111zM640 1626l249 158l62 -72l-265 -201h-89l-267 201l64 72z" />
    <glyph glyph-name="zcaron" unicode="&#x17e;" 
d="M977 948l-598 -833h602l-19 -115h-739v99l601 833h-554v118h707v-102zM626 1383l243 180l65 -70l-265 -225h-89l-267 225l70 70z" />
    <glyph glyph-name="florin" unicode="&#x192;" 
d="M846.5 1481q47.5 -11 111.5 -40l-47 -98q-87 40 -186 40q-87 0 -126.5 -39.5t-39.5 -120.5v-173h261l-16 -106h-245v-879q0 -152 -25 -237.5t-81.5 -138t-167.5 -104.5l-45 88q78 38 117.5 73.5t59.5 100.5t20 183v914h-169v106h169v165q0 82 35 144.5t102 97.5t159 35
q66 0 113.5 -11z" />
    <glyph glyph-name="AEacute" unicode="&#x1fc;" 
d="M749 0l-80 365h-445l-112 -365h-136l420 1374h737l-17 -117h-503l112 -501h390v-117h-367l113 -522h357v-117h-469zM478 1262l-206 -775h366zM510 1583l386 201l63 -117l-413 -153z" />
    <glyph glyph-name="aeacute" unicode="&#x1fd;" 
d="M1131 935q86 -134 86 -374q0 -56 -3 -92h-555q14 -192 69 -280t166 -88q58 0 103.5 20t102.5 64l65 -102q-65 -51 -128 -77t-140 -26q-104 0 -175.5 47.5t-129.5 151.5q-43 -74 -85.5 -117.5t-93.5 -62.5t-118 -19q-92 0 -161.5 39.5t-107.5 112t-38 169.5
q0 163 112 249.5t324 86.5h93v98q0 109 -46.5 159.5t-137.5 50.5q-51 0 -97 -12.5t-117 -43.5l-38 114q64 30 134.5 48t129.5 18q111 0 172.5 -47.5t90.5 -138.5q30 89 97.5 137.5t167.5 48.5q172 0 258 -134zM760.5 912q-42.5 -35 -67 -113t-34.5 -210h416
q-4 182 -50.5 270t-154.5 88q-67 0 -109.5 -35zM420 537q-149 0 -212.5 -59t-63.5 -169q0 -107 44.5 -164t120.5 -57q72 0 126 49t111 156q-29 121 -29 244h-97zM413 1360l380 211l64 -116l-402 -165z" />
    <glyph glyph-name="Oslashacute" unicode="&#x1fe;" 
d="M853 1318q119 -82 179.5 -246t60.5 -387q0 -209 -56 -368t-166.5 -248t-270.5 -89q-70 0 -133 17l-67 -218l-129 32l77 242q-119 81 -180 244t-61 385q0 209 56 369.5t167 251t270 90.5q76 0 137 -19l66 232l129 -31zM283 349q35 -126 109 -185l315 1096q-48 12 -107 12
q-183 0 -267.5 -151t-84.5 -439q0 -207 35 -333zM867.5 249q84.5 148 84.5 436q0 212 -35 339.5t-110 187.5l-316 -1098q48 -13 109 -13q183 0 267.5 148zM381 1583l386 201l63 -117l-413 -153z" />
    <glyph glyph-name="oslashacute" unicode="&#x1ff;" 
d="M816 1014q106 -62 162 -188.5t56 -300.5q0 -158 -49.5 -281.5t-147.5 -193.5t-237 -70q-55 0 -112 13l-73 -250l-113 34l85 258q-106 64 -163.5 190.5t-57.5 297.5q0 163 49.5 286t148 191.5t239.5 68.5q57 0 107 -12l77 246l114 -33zM431 143l247 806q-37 8 -75 8
q-298 0 -298 -434q0 -285 126 -380zM895 525q0 286 -124 382l-248 -806q38 -8 77 -8q295 0 295 432zM392 1360l380 211l64 -116l-402 -165z" />
    <glyph glyph-name="uni0218" unicode="&#x218;" 
d="M997 169q-57 -89 -166.5 -139t-261.5 -50q-138 0 -257.5 43t-205.5 126l84 96q74 -72 167.5 -110t218.5 -38q92 0 170.5 31t127 94t48.5 155q0 74 -27.5 124t-96 88.5t-193.5 75.5q-143 41 -238 88.5t-149.5 120.5t-54.5 179q0 96 52.5 173.5t149 122t221.5 44.5
q133 0 233.5 -37.5t189.5 -113.5l-86 -94q-73 65 -159 96.5t-178 31.5q-81 0 -148 -25t-107 -75t-40 -123q0 -65 34.5 -111t112.5 -84t219 -79q120 -34 204.5 -77.5t138.5 -123t54 -204.5q0 -116 -57 -205zM665.5 -171q27.5 -27 27.5 -66q0 -23 -5 -42t-20 -52l-100 -220
h-86l60 236q-17 13 -27 34.5t-10 43.5q0 40 27.5 66.5t66.5 26.5t66.5 -27z" />
    <glyph glyph-name="uni0219" unicode="&#x219;" 
d="M710 116.5q65 23.5 99.5 65.5t34.5 98q0 57 -18 93.5t-72.5 66.5t-164.5 57q-127 31 -204.5 64.5t-120.5 89.5t-43 143q0 85 49 147t135.5 95t196.5 33q115 0 207 -31t161 -82l-58 -92q-66 46 -137 70.5t-172 24.5q-132 0 -191.5 -41.5t-59.5 -113.5q0 -52 27 -85.5
t87 -58.5t174 -55q113 -30 187 -68t115 -99.5t41 -154.5q0 -105 -60 -173t-156.5 -99t-210.5 -31q-235 0 -393 137l77 91q63 -54 144.5 -84.5t172.5 -30.5q88 0 153 23.5zM665.5 -171q27.5 -27 27.5 -66q0 -23 -5 -42t-20 -52l-100 -220h-86l60 236q-17 13 -27 34.5
t-10 43.5q0 40 27.5 66.5t66.5 26.5t66.5 -27z" />
    <glyph glyph-name="uni021A" unicode="&#x21a;" 
d="M1091 1256h-431v-1256h-127v1256h-443v118h1015zM672.5 -171q27.5 -27 27.5 -66q0 -23 -5 -42t-20 -52l-100 -220h-86l60 236q-17 13 -27 34.5t-10 43.5q0 40 27.5 66.5t66.5 26.5t66.5 -27z" />
    <glyph glyph-name="uni021B" unicode="&#x21b;" 
d="M1020 50q-50 -33 -123.5 -51.5t-139.5 -18.5q-103 0 -179.5 38t-117 105t-40.5 152v671h-248v104h248v242l124 15v-257h370l-17 -104h-353v-668q0 -94 51 -142t165 -48q109 0 206 51zM824.5 -171q27.5 -27 27.5 -66q0 -23 -5 -42t-20 -52l-100 -220h-86l60 236
q-17 13 -27 34.5t-10 43.5q0 40 27.5 66.5t66.5 26.5t66.5 -27z" />
    <glyph glyph-name="uni0237" unicode="&#x237;" 
d="M874 128q0 -232 -166 -364.5t-480 -181.5l-21 97q543 79 543 440v823h-455v108h579v-922z" />
    <glyph glyph-name="uni02B9" unicode="&#x2b9;" 
d="M539 865h-105l173 509h158z" />
    <glyph glyph-name="uni02BA" unicode="&#x2ba;" 
d="M409 865h-105l173 509h158zM670 865h-105l173 509h158z" />
    <glyph glyph-name="uni02BC" unicode="&#x2bc;" 
d="M655 1466q27 -27 27 -69q0 -24 -9 -53t-41 -99l-86 -188h-82l67 265q-40 38 -40 78t28.5 66.5t68.5 26.5t67 -27z" />
    <glyph glyph-name="circumflex" unicode="&#x2c6;" 
d="M603 1447l-243 -179l-70 70l267 225h89l265 -225l-65 -70z" />
    <glyph glyph-name="caron" unicode="&#x2c7;" 
d="M603 1383l243 180l65 -70l-265 -225h-89l-267 225l70 70z" />
    <glyph glyph-name="uni02C9" unicode="&#x2c9;" 
d="M857 1475v-101h-516v101h516z" />
    <glyph glyph-name="breve" unicode="&#x2d8;" 
d="M454 1309q-60 38 -95 95.5t-44 114.5l98 24q23 -80 68 -125t113 -45q71 0 119 45.5t71 124.5l99 -24q-9 -57 -45.5 -114.5t-99 -95.5t-144.5 -38q-80 0 -140 38z" />
    <glyph glyph-name="dotaccent" unicode="&#x2d9;" 
d="M673 1496.5q29 -28.5 29 -70.5q0 -45 -29 -74t-76 -29q-45 0 -73 29t-28 74q0 42 28.5 70.5t72.5 28.5q47 0 76 -28.5z" />
    <glyph glyph-name="ring" unicode="&#x2da;" 
d="M705 1597.5q47 -24.5 74 -68t27 -96.5q0 -51 -27 -93.5t-74 -67t-104 -24.5q-58 0 -105 24.5t-74 67t-27 93.5q0 53 27 96.5t74 68t105 24.5q57 0 104 -24.5zM518 1519.5q-31 -32.5 -31 -86.5q0 -53 31 -85t83 -32q53 0 83 32t30 85q0 55 -30 87t-83 32q-52 0 -83 -32.5z
" />
    <glyph glyph-name="ogonek" unicode="&#x2db;" 
d="M807 0q-102 -48 -157.5 -87.5t-75.5 -73.5t-20 -71q0 -47 24.5 -71t85.5 -24q32 0 60.5 3t68.5 11l-16 -118q-37 -7 -64.5 -10.5t-64.5 -3.5q-71 0 -122 25t-77.5 66.5t-26.5 90.5q0 208 361 312z" />
    <glyph glyph-name="tilde" unicode="&#x2dc;" 
d="M652 1345q-30 14 -69 41q-34 23 -55 33.5t-44 10.5q-32 0 -56.5 -23t-49.5 -71l-91 47q36 68 86 108t114 40q38 0 68 -14t68 -41q30 -22 51.5 -32.5t44.5 -10.5q28 0 53.5 21t53.5 67l90 -46q-71 -144 -198 -144q-36 0 -66 14z" />
    <glyph glyph-name="hungarumlaut" unicode="&#x2dd;" 
d="M382 1279l-93 46l142 333l129 -62zM706 1274l-89 49l168 335l127 -69z" />
    <glyph glyph-name="gravecomb" unicode="&#x300;" horiz-adv-x="0" 
d="M-827 1455l63 116l381 -211l-42 -70z" />
    <glyph glyph-name="acutecomb" unicode="&#x301;" horiz-adv-x="0" 
d="M-808 1360l380 211l64 -116l-402 -165z" />
    <glyph glyph-name="uni0302" unicode="&#x302;" horiz-adv-x="0" 
d="M-644 1478h89l265 -202l-62 -72l-249 158l-246 -158l-64 72z" />
    <glyph glyph-name="tildecomb" unicode="&#x303;" horiz-adv-x="0" 
d="M-545 1345q-30 14 -69 41q-34 23 -55 33.5t-44 10.5q-32 0 -56.5 -23t-49.5 -71l-91 47q36 68 86 108t114 40q38 0 68 -14t68 -41q30 -22 51.5 -32.5t44.5 -10.5q28 0 53.5 21t53.5 67l90 -46q-71 -144 -198 -144q-36 0 -66 14z" />
    <glyph glyph-name="uni0304" unicode="&#x304;" horiz-adv-x="0" 
d="M-340 1347v-101h-517v101h517z" />
    <glyph glyph-name="uni0305" unicode="&#x305;" horiz-adv-x="0" 
d="M-180 1347v-101h-837v101h837z" />
    <glyph glyph-name="uni0306" unicode="&#x306;" horiz-adv-x="0" 
d="M-734.5 1195.5q-61.5 26.5 -102.5 76t-48 115.5l98 23q23 -63 68 -100t113 -37q71 0 120.5 37.5t72.5 99.5l98 -23q-7 -66 -49.5 -115.5t-106.5 -76t-135 -26.5q-67 0 -128.5 26.5z" />
    <glyph glyph-name="uni0307" unicode="&#x307;" horiz-adv-x="0" 
d="M-525 1379.5q29 -28.5 29 -70.5q0 -45 -29 -74t-76 -29q-45 0 -73 29t-28 74q0 42 28.5 70.5t72.5 28.5q47 0 76 -28.5z" />
    <glyph glyph-name="uni0308" unicode="&#x308;" horiz-adv-x="0" 
d="M-867.5 1328.5q-26.5 25.5 -26.5 64.5q0 41 26.5 67t67.5 26q38 0 64.5 -26t26.5 -67q0 -39 -26.5 -64.5t-64.5 -25.5q-41 0 -67.5 25.5zM-468 1328.5q-26 25.5 -26 64.5q0 41 26 67t65 26q41 0 67.5 -26t26.5 -67q0 -39 -26.5 -64.5t-67.5 -25.5q-39 0 -65 25.5z" />
    <glyph glyph-name="uni030A" unicode="&#x30a;" horiz-adv-x="0" 
d="M-496 1480.5q47 -24.5 74 -68t27 -96.5q0 -51 -27 -93.5t-74 -67t-104 -24.5q-58 0 -105 24.5t-74 67t-27 93.5q0 53 27 96.5t74 68t105 24.5q57 0 104 -24.5zM-683 1402.5q-31 -32.5 -31 -86.5q0 -53 31 -85t83 -32q53 0 83 32t30 85q0 55 -30 87t-83 32
q-52 0 -83 -32.5z" />
    <glyph glyph-name="uni030B" unicode="&#x30b;" horiz-adv-x="0" 
d="M-819 1162l-93 46l142 333l129 -62zM-495 1157l-89 49l168 335l127 -69z" />
    <glyph glyph-name="uni030C" unicode="&#x30c;" horiz-adv-x="0" 
d="M-601 1273l249 159l62 -73l-265 -201h-89l-267 201l64 73z" />
    <glyph glyph-name="uni030F" unicode="&#x30f;" horiz-adv-x="0" 
d="M-785 1658l168 -335l-89 -49l-206 315zM-431 1658l142 -333l-93 -46l-178 317z" />
    <glyph glyph-name="uni0313" unicode="&#x313;" horiz-adv-x="0" 
d="M-416.5 1482q27.5 -27 27.5 -66q0 -23 -5 -42t-20 -52l-100 -220h-86l60 236q-17 13 -27 34.5t-10 43.5q0 40 27.5 66.5t66.5 26.5t66.5 -27z" />
    <glyph glyph-name="uni0314" unicode="&#x314;" horiz-adv-x="0" 
d="M-653.5 1482.5q27.5 -26.5 27.5 -66.5q0 -22 -10 -43.5t-27 -34.5l60 -236h-86l-100 220q-15 33 -20 52t-5 42q0 39 27.5 66t66.5 27t66.5 -26.5z" />
    <glyph glyph-name="uni0326" unicode="&#x326;" horiz-adv-x="0" 
d="M-525.5 -171q27.5 -27 27.5 -66q0 -23 -5 -42t-20 -52l-100 -220h-86l60 236q-17 13 -27 34.5t-10 43.5q0 40 27.5 66.5t66.5 26.5t66.5 -27z" />
    <glyph glyph-name="uni0327" unicode="&#x327;" horiz-adv-x="0" 
d="M-546 -234.5q-42 18.5 -128 18.5l14 219h97v-151q90 -7 134.5 -52.5t44.5 -105.5q0 -62 -32.5 -104t-84 -62t-111.5 -20q-57 0 -110 11.5t-91 33.5l48 83q27 -15 65 -23t72 -8q58 0 91 21t33 67q0 54 -42 72.5z" />
    <glyph glyph-name="uni0335" unicode="&#x335;" horiz-adv-x="0" 
d="M-274 671v-119h-656v119h656z" />
    <glyph glyph-name="uni0336" unicode="&#x336;" horiz-adv-x="0" 
d="M48 671v-119h-1293v119h1293z" />
    <glyph glyph-name="uni0342" unicode="&#x342;" horiz-adv-x="0" 
d="M-548 1345q-30 14 -69 41q-34 23 -55 33.5t-44 10.5q-32 0 -56.5 -23t-49.5 -71l-91 47q36 68 86 108t114 40q38 0 68 -14t68 -41q30 -22 51.5 -32.5t44.5 -10.5q28 0 53.5 21t53.5 67l90 -46q-71 -144 -198 -144q-36 0 -66 14z" />
    <glyph glyph-name="uni0345" unicode="&#x345;" horiz-adv-x="0" 
d="M-740 -316.5q-55 51.5 -55 138.5v103h127v-100q0 -86 87 -86q36 0 60.5 8.5t55.5 27.5l62 -74q-39 -30 -83 -49.5t-104 -19.5q-95 0 -150 51.5z" />
    <glyph glyph-name="uni0370" unicode="&#x370;" 
d="M961 779v-107h-595v-672h-128v1374h128v-595h595z" />
    <glyph glyph-name="uni0371" unicode="&#x371;" 
d="M1040 601v-117h-630v-484h-124v691q0 118 -14 197.5t-41 167.5l111 17q31 -66 49.5 -157t18.5 -243v-72h630z" />
    <glyph glyph-name="uni0372" unicode="&#x372;" 
d="M84 1374h1034v-513h-125v390h-328v-1251h-127v1251h-329v-392h-125v515z" />
    <glyph glyph-name="uni0373" unicode="&#x373;" 
d="M1135 1050v-111l-471 -2v-1338l-124 -17v1355l-306 -1q-60 0 -84 -3.5t-83 -18.5l-25 109q50 17 86.5 22t115.5 5h891z" />
    <glyph glyph-name="uni0374" unicode="&#x374;" 
d="M539 865h-105l173 509h158z" />
    <glyph glyph-name="uni0375" unicode="&#x375;" 
d="M660 243h105l-173 -509h-158z" />
    <glyph glyph-name="uni0376" unicode="&#x376;" 
d="M186 0v1374h134v-763q0 -170 -5 -276.5t-17 -220.5l535 1260h181v-1374h-134v768q0 221 23 479l-533 -1247h-184z" />
    <glyph glyph-name="uni0377" unicode="&#x377;" 
d="M965 248q0 -54 9.5 -86.5t29.5 -50.5t55 -34l-48 -97q-73 22 -114 61t-57 98.5t-16 148.5q0 101 7.5 260t20.5 323l-474 -871h-170v1050h129v-536q0 -191 -10 -338l476 874h162v-802z" />
    <glyph glyph-name="uni037A" unicode="&#x37a;" 
d="M460 -316.5q-55 51.5 -55 138.5v103h127v-100q0 -86 87 -86q36 0 60.5 8.5t55.5 27.5l62 -74q-39 -30 -83 -49.5t-104 -19.5q-95 0 -150 51.5z" />
    <glyph glyph-name="uni037B" unicode="&#x37b;" 
d="M355 5q-76 25 -153 81l58 81q75 -41 128.5 -57t136.5 -16q162 0 252.5 106.5t90.5 320.5q0 220 -83 329t-240 109q-90 0 -150.5 -18t-126.5 -59l-66 82q86 58 161.5 81.5t172.5 23.5q143 0 249.5 -68t163.5 -193t57 -293q0 -169 -59 -289.5t-167 -183t-252 -62.5
q-97 0 -173 25z" />
    <glyph glyph-name="uni037C" unicode="&#x37c;" 
d="M954 187l65 -84q-67 -56 -163 -89.5t-182 -33.5q-151 0 -258 66t-163 188t-56 287q0 158 56 282t164 195t258 71q193 0 341 -119l-66 -89q-143 98 -281 98q-98 0 -173.5 -50t-118 -148.5t-42.5 -239.5q0 -143 42 -238.5t117.5 -142t174.5 -46.5q153 0 285 93zM766 611.5
q31 -30.5 31 -74.5q0 -47 -30.5 -78t-80.5 -31q-47 0 -77 31t-30 78q0 44 30 74.5t77 30.5q49 0 80 -30.5z" />
    <glyph glyph-name="uni037D" unicode="&#x37d;" 
d="M355 5q-76 25 -153 81l58 81q75 -41 128.5 -57t136.5 -16q162 0 252.5 106.5t90.5 320.5q0 220 -83 329t-240 109q-90 0 -150.5 -18t-126.5 -59l-66 82q86 58 161.5 81.5t172.5 23.5q143 0 249.5 -68t163.5 -193t57 -293q0 -169 -59 -289.5t-167 -183t-252 -62.5
q-97 0 -173 25zM590 611.5q31 -30.5 31 -74.5q0 -47 -30.5 -78t-80.5 -31q-47 0 -77 31t-30 78q0 44 30 74.5t77 30.5q49 0 80 -30.5z" />
    <glyph glyph-name="uni037E" unicode="&#x37e;" 
d="M694.5 986q34.5 -19 54 -52.5t19.5 -74.5t-19.5 -75t-54 -54t-76.5 -20q-41 0 -74.5 20t-52.5 54t-19 75t19 74.5t52.5 52.5t74.5 19q42 0 76.5 -19zM694.5 292q34.5 -20 54 -53.5t19.5 -72.5q0 -36 -5.5 -65.5t-21.5 -61.5l-169 -389h-137l95 393q-26 20 -42 53t-16 69
q0 40 19.5 73.5t53 53.5t73.5 20q42 0 76.5 -20z" />
    <glyph glyph-name="uni037F" unicode="&#x37f;" 
d="M975 445q0 -118 -38 -222t-137 -174t-269 -70q-95 0 -191.5 32t-174.5 92l63 89q155 -97 306 -97q152 0 233 97.5t81 266.5v803h-403v112h530v-929z" />
    <glyph glyph-name="tonos" unicode="&#x384;" 
d="M494 1214l74 378l140 -23l-118 -372z" />
    <glyph glyph-name="dieresistonos" unicode="&#x385;" 
d="M547 1465l58 338l156 -33l-113 -322zM480 1429.5q27 -27.5 27 -66.5q0 -40 -27 -67t-66 -27q-41 0 -68 27t-27 67q0 39 27.5 66.5t67.5 27.5q39 0 66 -27.5zM851 1429.5q27 -27.5 27 -66.5q0 -41 -27 -67.5t-68 -26.5q-39 0 -66 27t-27 67q0 39 27.5 66.5t65.5 27.5
q41 0 68 -27.5z" />
    <glyph glyph-name="Alphatonos" unicode="&#x386;" 
d="M1008 0l-121 367h-586l-121 -367h-120l455 1374h169l456 -1374h-132zM596 1255l-252 -772h501zM149 1017l73 381l169 -24l-133 -373z" />
    <glyph glyph-name="anoteleia" unicode="&#x387;" 
d="M461 765q21 37 57.5 58t81.5 21q47 0 84.5 -21t58.5 -57.5t21 -81.5q0 -46 -21 -83.5t-58.5 -59t-84.5 -21.5q-45 0 -81.5 21.5t-57.5 59t-21 83.5q0 44 21 81z" />
    <glyph glyph-name="Epsilontonos" unicode="&#x388;" 
d="M999 1260h-601v-503h520v-117h-520v-529h641v-111h-769v1374h746zM-7 1017l73 381l169 -24l-133 -373z" />
    <glyph glyph-name="Etatonos" unicode="&#x389;" 
d="M1014 0h-127v674h-574v-674h-127v1374h127v-596h574v596h127v-1374zM-91 1017l73 381l169 -24l-133 -373z" />
    <glyph glyph-name="Iotatonos" unicode="&#x38a;" 
d="M223 1374h754v-109h-312v-1156h312v-109h-754v109h312v1156h-312v109zM-54 1017l73 381l169 -24l-133 -373z" />
    <glyph glyph-name="Omicrontonos" unicode="&#x38c;" 
d="M1037 317q-56 -159 -166.5 -248t-270.5 -89t-270.5 87t-166.5 245t-56 370q0 209 56 369.5t167 251t270 90.5q160 0 270.5 -88.5t166.5 -248t56 -371.5q0 -209 -56 -368zM871.5 1125q-85.5 150 -271.5 150t-271.5 -151t-85.5 -442q0 -584 357 -584q185 0 271 148.5
t86 438.5t-85.5 440zM-40 1017l73 381l169 -24l-133 -373z" />
    <glyph glyph-name="Upsilontonos" unicode="&#x38e;" 
d="M1134 1374l-469 -840v-534h-130v532l-469 842h142l395 -717l400 717h131zM-191 1017l73 381l169 -24l-133 -373z" />
    <glyph glyph-name="Omegatonos" unicode="&#x38f;" 
d="M402.5 1216.5q-78.5 -59.5 -119 -190.5t-40.5 -345q0 -234 73 -375t213 -207v-99h-400v112h241q-129 66 -196 205t-67 364q0 230 61 390t172 241t260 81t260 -81t172 -241t61 -390q0 -223 -68 -360.5t-197 -208.5h243v-112h-397v99q139 67 211 207.5t72 374.5
q0 316 -90 455.5t-267 139.5q-119 0 -197.5 -59.5zM-43 1017l73 381l169 -24l-133 -373z" />
    <glyph glyph-name="iotadieresistonos" unicode="&#x390;" 
d="M504 934h-364l18 116h470v-811q0 -79 49.5 -115t135.5 -36q87 0 184 38l36 -96q-32 -18 -102.5 -34t-130.5 -16q-89 0 -155.5 34t-103.5 98.5t-37 154.5v667zM513 1465l58 338l156 -33l-113 -322zM446 1429.5q27 -27.5 27 -66.5q0 -40 -27 -67t-66 -27q-41 0 -68 27
t-27 67q0 39 27.5 66.5t67.5 27.5q39 0 66 -27.5zM817 1429.5q27 -27.5 27 -66.5q0 -41 -27 -67.5t-68 -26.5q-39 0 -66 27t-27 67q0 39 27.5 66.5t65.5 27.5q41 0 68 -27.5z" />
    <glyph glyph-name="Alpha" unicode="&#x391;" 
d="M1008 0l-121 367h-586l-121 -367h-120l455 1374h169l456 -1374h-132zM596 1255l-252 -772h501z" />
    <glyph glyph-name="Beta" unicode="&#x392;" 
d="M988 163q-72 -87 -185 -125t-243 -38h-343v1374h309q200 0 337 -80t137 -265q0 -126 -73.5 -202t-182.5 -99q138 -24 227 -101t89 -238q0 -139 -72 -226zM580 1262h-236v-483h255q269 0 269 248q0 235 -288 235zM837.5 596q-85.5 62 -228.5 62h-265v-543h259
q131 0 225.5 57.5t94.5 204.5q0 157 -85.5 219z" />
    <glyph glyph-name="Gamma" unicode="&#x393;" 
d="M299 1374h782l-15 -121h-640v-1253h-127v1374z" />
    <glyph glyph-name="uni0394" unicode="&#x394;" 
d="M515 1374h169l456 -1374h-1080zM968 106l-372 1143l-375 -1143h747z" />
    <glyph glyph-name="Epsilon" unicode="&#x395;" 
d="M999 1260h-601v-503h520v-117h-520v-529h641v-111h-769v1374h746z" />
    <glyph glyph-name="Zeta" unicode="&#x396;" 
d="M1041 1263l-746 -1146h739l-17 -117h-855v110l749 1147h-677v117h807v-111z" />
    <glyph glyph-name="Eta" unicode="&#x397;" 
d="M1014 0h-127v674h-574v-674h-127v1374h127v-596h574v596h127v-1374z" />
    <glyph glyph-name="Theta" unicode="&#x398;" 
d="M1037 317q-56 -159 -166.5 -248t-270.5 -89t-270.5 87t-166.5 245t-56 370q0 209 56 369.5t167 251t270 90.5q160 0 270.5 -88.5t166.5 -248t56 -371.5q0 -209 -56 -368zM868.5 1125q-83.5 150 -268.5 150t-268.5 -151.5t-83.5 -441.5q0 -286 85.5 -435t266.5 -149
q184 0 268 149t84 438q0 290 -83.5 440zM820 770v-133h-442v133h442z" />
    <glyph glyph-name="Iota" unicode="&#x399;" 
d="M223 1374h754v-109h-312v-1156h312v-109h-754v109h312v1156h-312v109z" />
    <glyph glyph-name="Kappa" unicode="&#x39a;" 
d="M364 1374v-1374h-127v1374h127zM993 0l-619 734l591 640h157l-581 -633l619 -741h-167z" />
    <glyph glyph-name="Lambda" unicode="&#x39b;" 
d="M515 1374h169l446 -1374h-132l-403 1238l-405 -1238h-122z" />
    <glyph glyph-name="Mu" unicode="&#x39c;" 
d="M1053 1374l78 -1374h-131l-51 757q-8 126 -17 427l-2 67l-255 -1001h-152l-273 1001v-71q0 -30 -1 -175.5t-7 -244.5l-45 -760h-128l78 1374h213l244 -957l233 957h216z" />
    <glyph glyph-name="Nu" unicode="&#x39d;" 
d="M297 1239q-1 -20 4 -147q11 -220 11 -352v-740h-126v1374h183l534 -1247q2 12 -0.5 60t-3.5 70q-1 21 -6 138.5t-5 242.5v736h126v-1374h-197z" />
    <glyph glyph-name="Xi" unicode="&#x39e;" 
d="M167 1374h840l-21 -129h-819v129zM261 765h654v-136h-654v136zM167 131h866v-131h-866v131z" />
    <glyph glyph-name="Omicron" unicode="&#x39f;" 
d="M1037 317q-56 -159 -166.5 -248t-270.5 -89t-270.5 87t-166.5 245t-56 370q0 209 56 369.5t167 251t270 90.5q160 0 270.5 -88.5t166.5 -248t56 -371.5q0 -209 -56 -368zM871.5 1125q-85.5 150 -271.5 150t-271.5 -151t-85.5 -442q0 -584 357 -584q185 0 271 148.5
t86 438.5t-85.5 440z" />
    <glyph glyph-name="Pi" unicode="&#x3a0;" 
d="M1014 0h-127v1253h-574v-1253h-127v1374h828v-1374z" />
    <glyph glyph-name="Rho" unicode="&#x3a1;" 
d="M961.5 628.5q-140.5 -102.5 -386.5 -102.5h-184v-526h-128v1374h326q243 0 378 -103.5t135 -310.5q0 -229 -140.5 -331.5zM868 1193q-94 72 -252 72h-225v-628h211q171 0 265.5 70t94.5 250q0 164 -94 236z" />
    <glyph glyph-name="Sigma" unicode="&#x3a3;" 
d="M797 755v-121l-484 -518h730v-116h-886v119l534 572l-534 562v121h886v-118h-734z" />
    <glyph glyph-name="Tau" unicode="&#x3a4;" 
d="M1091 1256h-431v-1256h-127v1256h-443v118h1015z" />
    <glyph glyph-name="Upsilon" unicode="&#x3a5;" 
d="M1134 1374l-469 -840v-534h-130v532l-469 842h142l395 -717l400 717h131z" />
    <glyph glyph-name="Phi" unicode="&#x3a6;" 
d="M677 1216q498 -25 498 -525q0 -251 -128.5 -385.5t-369.5 -142.5v-163h-154v163q-238 8 -368 143t-130 385q0 244 123.5 378t374.5 147v158h154v-158zM520 1102q-122 -3 -198.5 -40.5t-115.5 -126.5t-39 -244q0 -144 37.5 -232.5t115 -131.5t200.5 -51v826zM680 276
q123 8 200 51.5t115 132t38 231.5q0 156 -39.5 245.5t-116 127t-197.5 38.5v-826z" />
    <glyph glyph-name="Chi" unicode="&#x3a7;" 
d="M522 733l-405 641h153l330 -554l330 554h140l-397 -633l448 -741h-153l-372 650l-379 -650h-139z" />
    <glyph glyph-name="Psi" unicode="&#x3a8;" 
d="M529 389q-168 11 -280.5 74.5t-166.5 166.5t-54 233v511h147v-496q0 -165 81.5 -256t268.5 -105v857h152v-855q183 14 265.5 104.5t82.5 254.5v496h147v-511q0 -131 -55 -233t-166.5 -164.5t-276.5 -74.5v-391h-145v389z" />
    <glyph glyph-name="uni03A9" unicode="&#x3a9;" 
d="M402.5 1216.5q-78.5 -59.5 -119 -190.5t-40.5 -345q0 -234 73 -375t213 -207v-99h-400v112h241q-129 66 -196 205t-67 364q0 230 61 390t172 241t260 81t260 -81t172 -241t61 -390q0 -223 -68 -360.5t-197 -208.5h243v-112h-397v99q139 67 211 207.5t72 374.5
q0 316 -90 455.5t-267 139.5q-119 0 -197.5 -59.5z" />
    <glyph glyph-name="Iotadieresis" unicode="&#x3aa;" 
d="M223 1374h754v-109h-312v-1156h312v-109h-754v109h312v1156h-312v109zM332.5 1564.5q-26.5 25.5 -26.5 64.5q0 41 26.5 67t67.5 26q38 0 64.5 -26t26.5 -67q0 -39 -26.5 -64.5t-64.5 -25.5q-41 0 -67.5 25.5zM732 1564.5q-26 25.5 -26 64.5q0 41 26 67t65 26
q41 0 67.5 -26t26.5 -67q0 -39 -26.5 -64.5t-67.5 -25.5q-39 0 -65 25.5z" />
    <glyph glyph-name="Upsilondieresis" unicode="&#x3ab;" 
d="M1134 1374l-469 -840v-534h-130v532l-469 842h142l395 -717l400 717h131zM341.5 1564.5q-26.5 25.5 -26.5 64.5q0 41 26.5 67t67.5 26q38 0 64.5 -26t26.5 -67q0 -39 -26.5 -64.5t-64.5 -25.5q-41 0 -67.5 25.5zM741 1564.5q-26 25.5 -26 64.5q0 41 26 67t65 26
q41 0 67.5 -26t26.5 -67q0 -39 -26.5 -64.5t-67.5 -25.5q-39 0 -65 25.5z" />
    <glyph glyph-name="alphatonos" unicode="&#x3ac;" 
d="M671.5 1038.5q64.5 -30.5 109.5 -105.5t70 -207l57 324h115l-84 -580l52 -285q6 -34 24.5 -56t56.5 -38l-46 -113q-72 11 -117.5 59.5t-57.5 130.5l-16 115q-50 -135 -127.5 -219t-200.5 -84q-180 0 -278 133t-98 401q0 166 42 290.5t128 194.5t214 70q92 0 156.5 -30.5z
M335.5 845.5q-64.5 -116.5 -64.5 -331.5q0 -216 59.5 -321t180.5 -105q98 0 178.5 94.5t131.5 352.5q-30 169 -72 262t-97 129t-133 36q-119 0 -183.5 -116.5zM503 1214l74 378l140 -23l-118 -372z" />
    <glyph glyph-name="epsilontonos" unicode="&#x3ad;" 
d="M590 493q-144 0 -208.5 -44t-64.5 -142q0 -64 36.5 -112.5t104.5 -75t160 -26.5q213 0 382 126l75 -94q-77 -62 -198.5 -103.5t-263.5 -41.5q-124 0 -223 38.5t-155.5 112.5t-56.5 176q0 117 66 178t192 78q-104 21 -159.5 81.5t-55.5 145.5q0 90 55 153t148.5 94.5
t208.5 31.5q101 0 206.5 -26.5t177.5 -79.5l-68 -86q-69 43 -151.5 63t-168.5 20q-133 0 -205 -45t-72 -135q0 -78 67.5 -123.5t181.5 -45.5h183l-19 -118h-175zM585 1214l74 378l140 -23l-118 -372z" />
    <glyph glyph-name="etatonos" unicode="&#x3ae;" 
d="M979 760v-1161l-124 -17v1045q0 133 -13.5 202t-57.5 103t-136 34q-63 0 -124 -28.5t-109 -72t-78 -88.5v-777h-124v691q0 103 -15.5 190t-40.5 175l117 17q15 -27 30.5 -87t18.5 -97q64 85 163 132.5t195 47.5q298 0 298 -309zM543 1214l74 378l140 -23l-118 -372z" />
    <glyph glyph-name="iotatonos" unicode="&#x3af;" 
d="M504 934h-364l18 116h470v-811q0 -79 49.5 -115t135.5 -36q87 0 184 38l36 -96q-32 -18 -102.5 -34t-130.5 -16q-89 0 -155.5 34t-103.5 98.5t-37 154.5v667zM518 1214l74 378l140 -23l-118 -372z" />
    <glyph glyph-name="upsilondieresistonos" unicode="&#x3b0;" 
d="M985 1050q26 -144 38 -270t12 -271q0 -177 -65 -296t-169 -176t-223 -57q-102 0 -181 37t-123.5 111.5t-44.5 182.5v739h124v-725q0 -115 59.5 -175t167.5 -60q84 0 157.5 39t122 135.5t48.5 259.5q0 256 -51 526h128zM547 1465l58 338l156 -33l-113 -322zM480 1429.5
q27 -27.5 27 -66.5q0 -40 -27 -67t-66 -27q-41 0 -68 27t-27 67q0 39 27.5 66.5t67.5 27.5q39 0 66 -27.5zM851 1429.5q27 -27.5 27 -66.5q0 -41 -27 -67.5t-68 -26.5q-39 0 -66 27t-27 67q0 39 27.5 66.5t65.5 27.5q41 0 68 -27.5z" />
    <glyph glyph-name="alpha" unicode="&#x3b1;" 
d="M671.5 1038.5q64.5 -30.5 109.5 -105.5t70 -207l57 324h115l-84 -580l52 -285q6 -34 24.5 -56t56.5 -38l-46 -113q-72 11 -117.5 59.5t-57.5 130.5l-16 115q-50 -135 -127.5 -219t-200.5 -84q-180 0 -278 133t-98 401q0 166 42 290.5t128 194.5t214 70q92 0 156.5 -30.5z
M335.5 845.5q-64.5 -116.5 -64.5 -331.5q0 -216 59.5 -321t180.5 -105q98 0 178.5 94.5t131.5 352.5q-30 169 -72 262t-97 129t-133 36q-119 0 -183.5 -116.5z" />
    <glyph glyph-name="beta" unicode="&#x3b2;" 
d="M963.5 695.5q118.5 -90.5 118.5 -295.5q0 -125 -64 -220t-165.5 -146t-212.5 -51q-87 0 -166.5 27.5t-145.5 82.5v-496l-123 -14v1492q0 128 44.5 221t130.5 142.5t208 49.5q101 0 189 -40t142 -118t54 -184t-43.5 -179.5t-114 -113t-154.5 -47.5q184 -20 302.5 -110.5z
M802.5 126.5q71.5 35.5 113 104t41.5 163.5q0 174 -100.5 264t-296.5 90h-122l20 101h124q126 0 205 69.5t79 214.5q0 126 -75.5 188.5t-199.5 62.5q-131 0 -197 -78.5t-66 -238.5v-849q53 -67 130 -97t186 -30q87 0 158.5 35.5z" />
    <glyph glyph-name="gamma" unicode="&#x3b3;" 
d="M970 1073l127 -28l-437 -1016q-48 -111 -48 -226q0 -90 28 -203l-102 -20q-24 46 -36.5 106t-12.5 125q0 125 42 232q-42 184 -114 388t-155.5 366t-158.5 226l129 45q108 -117 209.5 -352t168.5 -520z" />
    <glyph glyph-name="delta" unicode="&#x3b4;" 
d="M804.5 1464q72.5 -28 145.5 -89l-66 -79q-69 54 -130 74.5t-136 20.5q-94 0 -150 -41t-56 -114q0 -50 24.5 -82t72.5 -56t156 -68q141 -58 227 -126.5t129.5 -169t43.5 -250.5q0 -129 -55 -245t-159 -187.5t-243 -71.5q-140 0 -244 69t-159 185t-55 253q0 121 43.5 219.5
t117 165.5t162.5 101q-104 53 -148.5 112.5t-44.5 138.5q0 86 48 146.5t129 91t178 30.5t169.5 -28zM360.5 753.5q-69.5 -108.5 -69.5 -272.5q0 -119 38 -207t110 -136t170 -48q150 0 233 102.5t83 291.5q0 125 -31.5 202t-102.5 130t-206 109q-155 -63 -224.5 -171.5z" />
    <glyph glyph-name="epsilon" unicode="&#x3b5;" 
d="M590 493q-144 0 -208.5 -44t-64.5 -142q0 -64 36.5 -112.5t104.5 -75t160 -26.5q213 0 382 126l75 -94q-77 -62 -198.5 -103.5t-263.5 -41.5q-124 0 -223 38.5t-155.5 112.5t-56.5 176q0 117 66 178t192 78q-104 21 -159.5 81.5t-55.5 145.5q0 90 55 153t148.5 94.5
t208.5 31.5q101 0 206.5 -26.5t177.5 -79.5l-68 -86q-69 43 -151.5 63t-168.5 20q-133 0 -205 -45t-72 -135q0 -78 67.5 -123.5t181.5 -45.5h183l-19 -118h-175z" />
    <glyph glyph-name="zeta" unicode="&#x3b6;" 
d="M1040 1384q-262 -237 -391 -367.5t-202.5 -255.5t-73.5 -255q0 -102 34 -164t102 -101t193 -79q118 -35 182.5 -63t103.5 -75t39 -123q0 -107 -74 -191t-226 -153l-56 99q107 52 161 104.5t54 128.5q0 42 -23 67t-69.5 44.5t-159.5 58.5q-143 48 -228.5 100.5t-130 134
t-44.5 209.5q0 137 72.5 269t219.5 277t394 341q-35 -14 -121.5 -20t-149.5 -6h-326l16 111h684z" />
    <glyph glyph-name="eta" unicode="&#x3b7;" 
d="M979 760v-1161l-124 -17v1045q0 133 -13.5 202t-57.5 103t-136 34q-63 0 -124 -28.5t-109 -72t-78 -88.5v-777h-124v691q0 103 -15.5 190t-40.5 175l117 17q15 -27 30.5 -87t18.5 -97q64 85 163 132.5t195 47.5q298 0 298 -309z" />
    <glyph glyph-name="theta" unicode="&#x3b8;" 
d="M841.5 1402q96.5 -90 144.5 -258t48 -401q0 -227 -49.5 -399t-147 -268t-237.5 -96q-142 0 -239 93.5t-146 264t-49 403.5q0 228 49.5 397t147.5 261.5t240 92.5t238.5 -90zM381 1238.5q-72 -138.5 -78 -433.5h594q-5 295 -76 433.5t-218 138.5q-150 0 -222 -138.5z
M304 685q8 -305 79.5 -449t216.5 -144t215.5 143.5t78.5 449.5h-590z" />
    <glyph glyph-name="iota" unicode="&#x3b9;" 
d="M504 934h-364l18 116h470v-811q0 -79 49.5 -115t135.5 -36q87 0 184 38l36 -96q-32 -18 -102.5 -34t-130.5 -16q-89 0 -155.5 34t-103.5 98.5t-37 154.5v667z" />
    <glyph glyph-name="kappa" unicode="&#x3ba;" 
d="M929 1071l107 -93l-487 -410l316 -324q74 -74 125.5 -108.5t117.5 -49.5l-44 -105q-72 12 -128 45.5t-123 92.5l-434 449zM318 1050q34 -92 43.5 -192t9.5 -216v-642h-124v676q0 100 -13.5 187.5t-39.5 186.5h124z" />
    <glyph glyph-name="lambda" unicode="&#x3bb;" 
d="M566 1050q-29 105 -70 172t-109 108.5t-176 59.5l24 109q143 -23 236 -78t150.5 -151.5t93.5 -247.5q66 -274 120 -457t118.5 -319.5t144.5 -211.5l-131 -54q-222 264 -370 968l-370 -970l-117 25l398 1047h58z" />
    <glyph glyph-name="uni03BC" unicode="&#x3bc;" 
d="M943 323q0 -166 65 -323l-121 -22q-17 24 -33.5 78.5t-21.5 95.5q-47 -78 -130.5 -125.5t-166.5 -47.5q-87 0 -134 22.5t-84 78.5q-1 -29 0 -63.5t1 -49.5q1 -11 1 -25v-343l-129 -18v1469h125v-586q0 -127 13.5 -202.5t56 -117.5t127.5 -42q99 0 175.5 48.5t131.5 124.5
v775h124v-727z" />
    <glyph glyph-name="nu" unicode="&#x3bd;" 
d="M492 0q-81 331 -192.5 623t-226.5 393l134 51q113 -130 206 -377.5t173 -567.5l362 947l129 -29l-424 -1040h-161z" />
    <glyph glyph-name="xi" unicode="&#x3be;" 
d="M1091 1377l-66 -81q-72 46 -156 69.5t-166 23.5q-139 0 -212 -55t-73 -163q0 -102 65 -160t177 -58h257l-18 -135h-259q-85 0 -151 -40t-102 -105t-36 -139q0 -112 40 -176t118.5 -101.5t229.5 -81.5q136 -41 207.5 -74.5t105 -79.5t33.5 -119q0 -108 -74 -192t-226 -153
l-56 99q114 54 165.5 107.5t51.5 128.5q0 39 -17.5 62t-59.5 41.5t-130 45.5q-170 50 -281 105t-179 148.5t-68 238.5q0 111 51.5 188t123 117t134.5 50q-106 41 -169.5 101t-63.5 165q0 104 57 180.5t154 117t214 40.5q221 0 379 -115z" />
    <glyph glyph-name="omicron" unicode="&#x3bf;" 
d="M841 1003q97 -66 145 -188t48 -290q0 -158 -49.5 -281.5t-147.5 -193.5t-237 -70q-141 0 -238.5 67.5t-146.5 189.5t-49 286q0 163 49.5 286t148 191.5t239.5 68.5t238 -66zM302 523q0 -433 298 -433t298 435t-295 435q-301 0 -301 -437z" />
    <glyph glyph-name="pi" unicode="&#x3c0;" 
d="M1105 936h-175v-688q0 -56 9.5 -87.5t31.5 -47.5t61 -23l-51 -110q-71 20 -110 51.5t-54.5 79t-15.5 123.5v702h-432v-936h-131v936h-22q-66 0 -92.5 -3.5t-75.5 -17.5l-34 103q27 13 54.5 19.5t76.5 9.5t141 3h819v-114z" />
    <glyph glyph-name="rho" unicode="&#x3c1;" 
d="M929 930.5q100 -138.5 100 -405.5q0 -149 -45.5 -273t-138 -198t-228.5 -74q-180 0 -290 124v-505l-124 -17v956q0 261 104.5 396t302.5 135q219 0 319 -138.5zM391.5 851q-64.5 -114 -64.5 -332v-283q44 -68 115 -105.5t154 -37.5q142 0 217.5 113t75.5 321
q0 438 -283 438q-150 0 -214.5 -114z" />
    <glyph glyph-name="uni03C2" unicode="&#x3c2;" 
d="M877.5 1046q76.5 -23 162.5 -83l-69 -89q-73 47 -131 66t-148 19q-91 0 -168.5 -49.5t-124 -144.5t-46.5 -227q0 -106 25 -164.5t92 -100t208 -92.5q118 -43 184.5 -78t104 -84.5t37.5 -122.5q0 -71 -31 -125.5t-95 -100t-168 -90.5l-60 98q106 39 160 85t54 121
q0 45 -20.5 70.5t-70.5 48t-176 67.5q-135 48 -217 108t-122.5 146.5t-40.5 213.5q0 169 61.5 289t169 181t243.5 61q110 0 186.5 -23z" />
    <glyph glyph-name="sigma" unicode="&#x3c3;" 
d="M1107 931l-264 18q82 -44 134 -149.5t52 -262.5q0 -172 -50 -297t-146 -192.5t-233 -67.5q-138 0 -235.5 68t-148 191t-50.5 287q0 161 58 281.5t167.5 186.5t259.5 66q208 0 456 -8v-121zM893 529q0 155 -42 260.5t-115 164.5q-136 1 -230.5 -33.5t-149 -129
t-54.5 -265.5q0 -218 75.5 -327t222.5 -109q293 0 293 439z" />
    <glyph glyph-name="tau" unicode="&#x3c4;" 
d="M1001 30q-32 -18 -102.5 -34t-130.5 -16q-89 0 -155 34t-102.5 98.5t-36.5 154.5v671h-88q-81 0 -131.5 -7.5t-144.5 -32.5l-22 108q73 24 152.5 34t178.5 10h577v-112h-398v-699q0 -79 49 -115t134 -36q42 0 90 10t94 28z" />
    <glyph glyph-name="upsilon" unicode="&#x3c5;" 
d="M985 1050q26 -144 38 -270t12 -271q0 -177 -65 -296t-169 -176t-223 -57q-102 0 -181 37t-123.5 111.5t-44.5 182.5v739h124v-725q0 -115 59.5 -175t167.5 -60q84 0 157.5 39t122 135.5t48.5 259.5q0 256 -51 526h128z" />
    <glyph glyph-name="phi" unicode="&#x3c6;" 
d="M1046.5 937q77.5 -132 77.5 -403q0 -268 -124.5 -401t-350.5 -150v-380l-135 -21v401q-438 32 -438 494q0 167 31 303.5t82 269.5h141q-59 -173 -87 -300t-28 -232q0 -132 26.5 -219.5t92 -139t180.5 -64.5v539q0 215 66 325t226 110q163 0 240.5 -132zM698 907.5
q-34 -49.5 -41.5 -122t-7.5 -195.5v-498q126 12 199 63.5t104 144t31 235.5q0 151 -16.5 242.5t-55 135.5t-106.5 44q-73 0 -107 -49.5z" />
    <glyph glyph-name="chi" unicode="&#x3c7;" 
d="M700 383l373 -769l-121 -19l-333 681l-345 -675l-121 13l385 757q-96 204 -160 317.5t-114.5 178t-133.5 153.5l124 47q99 -96 180 -229t184 -380l294 608l129 -16z" />
    <glyph glyph-name="psi" unicode="&#x3c8;" 
d="M669 109q131 13 201 64.5t95 136.5t25 216q0 108 -14.5 246.5t-41.5 277.5h147q25 -146 37.5 -271.5t12.5 -272.5q0 -225 -115 -362.5t-347 -152.5v-392l-133 -17v409q-147 10 -247 65t-149 139.5t-49 184.5v670h139v-652q0 -90 28.5 -149t95.5 -93.5t182 -46.5v941h133
v-941z" />
    <glyph glyph-name="omega" unicode="&#x3c9;" 
d="M1040 1050q100 -250 100 -575q0 -151 -34.5 -262.5t-103 -172t-168.5 -60.5q-103 0 -164.5 62t-71.5 178q-21 -113 -83.5 -176.5t-158.5 -63.5q-150 0 -223 127.5t-73 367.5q0 185 27 330t70 245h120q-38 -112 -56 -206.5t-23 -177t-5 -196.5q0 -179 37.5 -279.5
t131.5 -100.5q91 0 129 107t38 262v262l141 17v-283q0 -169 37 -267t129 -98q93 0 132 101.5t39 278.5q0 161 -18 287.5t-75 292.5h126z" />
    <glyph glyph-name="iotadieresis" unicode="&#x3ca;" 
d="M504 934h-364l18 116h470v-811q0 -79 49.5 -115t135.5 -36q87 0 184 38l36 -96q-32 -18 -102.5 -34t-130.5 -16q-89 0 -155.5 34t-103.5 98.5t-37 154.5v667zM298.5 1328.5q-26.5 25.5 -26.5 64.5q0 41 26.5 67t67.5 26q38 0 64.5 -26t26.5 -67q0 -39 -26.5 -64.5
t-64.5 -25.5q-41 0 -67.5 25.5zM698 1328.5q-26 25.5 -26 64.5q0 41 26 67t65 26q41 0 67.5 -26t26.5 -67q0 -39 -26.5 -64.5t-67.5 -25.5q-39 0 -65 25.5z" />
    <glyph glyph-name="upsilondieresis" unicode="&#x3cb;" 
d="M985 1050q26 -144 38 -270t12 -271q0 -177 -65 -296t-169 -176t-223 -57q-102 0 -181 37t-123.5 111.5t-44.5 182.5v739h124v-725q0 -115 59.5 -175t167.5 -60q84 0 157.5 39t122 135.5t48.5 259.5q0 256 -51 526h128zM332.5 1328.5q-26.5 25.5 -26.5 64.5q0 41 26.5 67
t67.5 26q38 0 64.5 -26t26.5 -67q0 -39 -26.5 -64.5t-64.5 -25.5q-41 0 -67.5 25.5zM732 1328.5q-26 25.5 -26 64.5q0 41 26 67t65 26q41 0 67.5 -26t26.5 -67q0 -39 -26.5 -64.5t-67.5 -25.5q-39 0 -65 25.5z" />
    <glyph glyph-name="omicrontonos" unicode="&#x3cc;" 
d="M841 1003q97 -66 145 -188t48 -290q0 -158 -49.5 -281.5t-147.5 -193.5t-237 -70q-141 0 -238.5 67.5t-146.5 189.5t-49 286q0 163 49.5 286t148 191.5t239.5 68.5t238 -66zM302 523q0 -433 298 -433t298 435t-295 435q-301 0 -301 -437zM552 1214l74 378l140 -23
l-118 -372z" />
    <glyph glyph-name="upsilontonos" unicode="&#x3cd;" 
d="M985 1050q26 -144 38 -270t12 -271q0 -177 -65 -296t-169 -176t-223 -57q-102 0 -181 37t-123.5 111.5t-44.5 182.5v739h124v-725q0 -115 59.5 -175t167.5 -60q84 0 157.5 39t122 135.5t48.5 259.5q0 256 -51 526h128zM552 1214l74 378l140 -23l-118 -372z" />
    <glyph glyph-name="omegatonos" unicode="&#x3ce;" 
d="M1040 1050q100 -250 100 -575q0 -151 -34.5 -262.5t-103 -172t-168.5 -60.5q-103 0 -164.5 62t-71.5 178q-21 -113 -83.5 -176.5t-158.5 -63.5q-150 0 -223 127.5t-73 367.5q0 185 27 330t70 245h120q-38 -112 -56 -206.5t-23 -177t-5 -196.5q0 -179 37.5 -279.5
t131.5 -100.5q91 0 129 107t38 262v262l141 17v-283q0 -169 37 -267t129 -98q93 0 132 101.5t39 278.5q0 161 -18 287.5t-75 292.5h126zM552 1214l74 378l140 -23l-118 -372z" />
    <glyph glyph-name="uni03CF" unicode="&#x3cf;" 
d="M358 0h-127v1374h127v-1374zM1029 113h115v-255q0 -134 -69.5 -203t-187.5 -69q-67 0 -120.5 20.5t-90.5 49.5l49 94q43 -27 77.5 -39t84.5 -12q63 0 96.5 38.5t33.5 115.5v147h-71l-578 734l544 640h168l-545 -633z" />
    <glyph glyph-name="uni03D0" unicode="&#x3d0;" 
d="M938 776.5q88 -102.5 88 -334.5q0 -114 -49 -220.5t-145 -174t-230 -67.5q-156 0 -250.5 82.5t-136.5 239t-42 389.5q0 257 74.5 438.5t192 272t245.5 90.5q97 0 157.5 -36t87 -92.5t26.5 -119.5q0 -88 -49 -165t-125 -131.5t-157 -78.5q49 10 74 10q151 0 239 -102.5z
M514 1324q-77 -65 -130 -196t-66 -321l69 29q151 64 242 123.5t136.5 130.5t45.5 165q0 66 -35 100t-98 34q-87 0 -164 -65zM755 136q66 45 100 123t34 176q0 115 -19.5 191t-73.5 119.5t-154 43.5q-65 0 -123.5 -17t-136.5 -57l-68 -35q0 -222 30.5 -350.5t92 -183.5
t161.5 -55q91 0 157 45z" />
    <glyph glyph-name="uni03D1" unicode="&#x3d1;" 
d="M1064 927v-116h-74v-8q0 -401 -116.5 -612t-341.5 -211q-86 0 -160.5 39.5t-119.5 114.5t-45 176v384h130v-352q0 -124 51.5 -187t147.5 -63q153 0 230 169t77 545v5h-248q-140 0 -238 44.5t-147 122t-49 175.5q0 94 47 171.5t129.5 122.5t183.5 45q213 0 328 -150
t136 -415h79zM839 927q-16 223 -94 338t-218 115q-67 0 -118.5 -29t-79.5 -80.5t-28 -115.5q0 -118 79 -173t215 -55h244z" />
    <glyph glyph-name="uni03D2" unicode="&#x3d2;" 
d="M1152 1271q-38 9 -65 9q-43 0 -75.5 -27t-62.5 -91l-299 -628v-534h-130v532l-430 842h142l360 -720l232 516q41 90 78.5 138t79 66.5t100.5 18.5q58 0 106 -23z" />
    <glyph glyph-name="uni03D3" unicode="&#x3d3;" 
d="M1152 1271q-38 9 -65 9q-43 0 -75.5 -27t-62.5 -91l-299 -628v-534h-130v532l-430 842h142l360 -720l232 516q41 90 78.5 138t79 66.5t100.5 18.5q58 0 106 -23zM-180 1017l73 381l169 -24l-133 -373z" />
    <glyph glyph-name="uni03D4" unicode="&#x3d4;" 
d="M1152 1271q-38 9 -65 9q-43 0 -75.5 -27t-62.5 -91l-299 -628v-534h-130v532l-430 842h142l360 -720l232 516q41 90 78.5 138t79 66.5t100.5 18.5q58 0 106 -23zM338.5 1564.5q-26.5 25.5 -26.5 64.5q0 41 26.5 67t67.5 26q38 0 64.5 -26t26.5 -67q0 -39 -26.5 -64.5
t-64.5 -25.5q-41 0 -67.5 25.5zM738 1564.5q-26 25.5 -26 64.5q0 41 26 67t65 26q41 0 67.5 -26t26.5 -67q0 -39 -26.5 -64.5t-67.5 -25.5q-39 0 -65 25.5z" />
    <glyph glyph-name="uni03D5" unicode="&#x3d5;" 
d="M1043.5 254q-52.5 -116 -150.5 -180.5t-232 -68.5l1 -406l-122 -17l-1 424q-145 8 -242.5 76t-144.5 181.5t-47 261.5q0 157 53 273t151 179.5t231 66.5v428l122 15v-444q145 -7 242.5 -75t144.5 -181.5t47 -259.5q0 -157 -52.5 -273zM321.5 236.5
q70.5 -104.5 215.5 -114.5v811q-145 -12 -215.5 -117.5t-70.5 -290.5q0 -184 70.5 -288.5zM663 120q144 15 215.5 119t71.5 288q0 177 -72.5 284t-214.5 116v-807z" />
    <glyph glyph-name="uni03D6" unicode="&#x3d6;" 
d="M1190 1050v-104h-125q82 -202 82 -462q0 -237 -75 -370.5t-220 -133.5q-102 0 -164.5 62.5t-72.5 177.5q-20 -112 -84 -176t-158 -64q-283 0 -283 504q0 267 77 459q-30 -2 -54.5 -6.5t-59.5 -14.5l-22 106q48 14 109.5 18t211.5 4h838zM998 712q-12 107 -48 233l-671 -1
q-33 -122 -42.5 -225t-9.5 -249q0 -177 36 -278.5t123 -101.5q84 0 121 107.5t37 261.5v222l146 20v-246q0 -168 35 -266.5t120 -98.5q165 0 165 380q0 135 -12 242z" />
    <glyph glyph-name="uni03D7" unicode="&#x3d7;" 
d="M1066 79v-212q0 -90 -33 -153t-92.5 -95t-138.5 -32q-65 0 -113.5 20t-89.5 52l56 84q41 -25 69.5 -35.5t71.5 -10.5q128 0 128 160v176q-53 36 -73.5 96t-20.5 164q0 57 14 305q16 279 12 306l-423 -916l-203 56v758q0 53 -9.5 85t-29.5 51t-56 34l49 97
q74 -22 114.5 -60.5t56.5 -98.5t16 -154q0 -71 -13 -298q-14 -289 -11 -313l423 916l201 -55v-758q0 -75 20.5 -110.5t70.5 -57.5z" />
    <glyph glyph-name="uni03D8" unicode="&#x3d8;" 
d="M1044.5 340.5q-48.5 -151.5 -144.5 -244.5t-234 -112v-381h-129v381q-140 17 -236.5 108t-145 242t-48.5 348q0 209 56 369.5t167 251t270 90.5q160 0 270.5 -88.5t166.5 -248t56 -371.5q0 -193 -48.5 -344.5zM871 246.5q86 148.5 86 438.5t-85.5 440t-271.5 150
t-271.5 -151t-85.5 -442q0 -584 357 -584q185 0 271 148.5z" />
    <glyph glyph-name="uni03D9" unicode="&#x3d9;" 
d="M992 262.5q-42 -116.5 -125.5 -189.5t-202.5 -89v-385l-128 -17v402q-121 15 -204 85.5t-124.5 186.5t-41.5 267q0 163 49.5 286t148 191.5t239.5 68.5t238 -66t145 -188t48 -290q0 -146 -42 -262.5zM898 525q0 435 -295 435q-301 0 -301 -437q0 -433 298 -433t298 435z
" />
    <glyph glyph-name="uni03DA" unicode="&#x3da;" 
d="M654 -328q103 41 157.5 93t54.5 134q0 49 -23.5 81t-79.5 62t-175 78q-153 62 -245 145.5t-133.5 199.5t-41.5 278q0 172 60 313.5t202 229.5t375 88h275l-25 -114h-273q-157 0 -264 -64t-159.5 -179.5t-52.5 -272.5q0 -149 37 -246.5t115 -162.5t212 -117
q122 -47 194 -90.5t107.5 -98.5t35.5 -131q0 -70 -31 -124.5t-95 -101.5t-170 -95z" />
    <glyph glyph-name="uni03DB" unicode="&#x3db;" 
d="M974 1138q0 -102 -46 -165.5t-122 -97t-188 -56.5q-119 -25 -187.5 -54.5t-107 -88t-38.5 -161.5q0 -106 33 -165t108 -98t229 -86q114 -35 180.5 -65.5t107 -80t40.5 -127.5q0 -101 -70 -174t-225 -142l-57 95q109 45 160.5 91t51.5 115q0 50 -24.5 79t-66 45t-122.5 37
q5 -2 -51 14q-129 36 -221 84.5t-152 141t-60 239.5q0 168 102.5 268t285.5 138q129 28 186 48.5t85.5 60t28.5 116.5z" />
    <glyph glyph-name="uni03DC" unicode="&#x3dc;" 
d="M1044 1253h-640v-493h310q67 0 108.5 -8.5t91.5 -29.5l-39 -107q-39 13 -77.5 19.5t-97.5 6.5h-296v-641h-127v1374h782z" />
    <glyph glyph-name="uni03DD" unicode="&#x3dd;" 
d="M577 941q-99 0 -140 -40.5t-41 -137.5v-312h370q68 0 109 -9t85 -30l-34 -95q-40 13 -77 19.5t-98 6.5h-355v-746l-124 -17v1162q0 164 76.5 236t232.5 72h464l-20 -109h-448z" />
    <glyph glyph-name="uni03DE" unicode="&#x3de;" 
d="M1018 753l28 -118l1 -1l-459 -634h-154l460 634h-708l-29 119l456 621h154l-458 -621h709z" />
    <glyph glyph-name="uni03DF" unicode="&#x3df;" 
d="M1008 810h1l-212 -420q-78 -156 -110 -243t-43 -167l-108 17q15 111 39.5 193t83.5 193l205 386l-636 -183l-37 118l195 386q79 155 110.5 242.5t41.5 167.5l109 -17q-15 -112 -39.5 -194t-83.5 -192l-187 -351l629 179z" />
    <glyph glyph-name="uni03E0" unicode="&#x3e0;" 
d="M669 1186l468 -1186h-147l-230 595l-193 -595l-155 5l280 768l-92 237l-392 -1010h-145l473 1171l-84 203h143l67 -170l13 -2z" />
    <glyph glyph-name="uni03E1" unicode="&#x3e1;" 
d="M205 1495q275 -145 450.5 -326t261.5 -418t86 -549q0 -157 -22.5 -325.5t-56.5 -292.5l-137 16q62 278 62 602q0 145 -20 279l-206 -481h-140l298 682q-39 120 -106 232l-448 -914h-150l514 1034q-158 196 -436 363z" />
    <glyph glyph-name="uni03F0" unicode="&#x3f0;" 
d="M971 248q0 -54 9.5 -85.5t29.5 -50t56 -34.5l-49 -98q-74 22 -114.5 61t-56.5 99t-16 153q0 72 13 300q14 289 11 311l-423 -916l-203 56v758q0 53 -9.5 85t-29.5 51t-56 34l49 97q74 -22 114.5 -60.5t56.5 -98.5t16 -154q0 -71 -13 -298q-14 -289 -11 -313l424 916
l202 -53v-760z" />
    <glyph glyph-name="uni03F1" unicode="&#x3f1;" 
d="M814.5 -276.5q64.5 -33.5 86.5 -86.5l-124 -63q-15 29 -35 43.5t-64 25.5t-143 27q-119 19 -190.5 55t-106.5 102.5t-35 176.5v534q0 264 103.5 397.5t301.5 133.5q137 0 231.5 -61t142 -171.5t47.5 -258.5q0 -139 -46.5 -261t-140.5 -197t-228 -75q-93 0 -166 35.5
t-121 106.5v-164q0 -91 22.5 -136t81 -68t185.5 -43q134 -19 198.5 -52.5zM392 850q-65 -115 -65 -342v-186q41 -78 111.5 -122.5t153.5 -44.5q145 0 221.5 114t76.5 311q0 182 -70 283.5t-208 101.5q-155 0 -220 -115z" />
    <glyph glyph-name="uni03F2" unicode="&#x3f2;" 
d="M954 187l65 -84q-67 -56 -163 -89.5t-182 -33.5q-151 0 -258 66t-163 188t-56 287q0 158 56 282t164 195t258 71q193 0 341 -119l-66 -89q-143 98 -281 98q-98 0 -173.5 -50t-118 -148.5t-42.5 -239.5q0 -143 42 -238.5t117.5 -142t174.5 -46.5q153 0 285 93z" />
    <glyph glyph-name="uni03F3" unicode="&#x3f3;" 
d="M807 1496.5q29 -28.5 29 -70.5q0 -45 -29 -74t-76 -29q-45 0 -72.5 29t-27.5 74q0 42 28 70.5t72 28.5q47 0 76 -28.5zM874 128q0 -232 -166 -364.5t-480 -181.5l-21 97q543 79 543 440v823h-455v108h579v-922z" />
    <glyph glyph-name="uni03F4" unicode="&#x3f4;" 
d="M870.5 1304.5q110.5 -88.5 166.5 -248t56 -371.5q0 -209 -56 -368t-166.5 -248t-270.5 -89t-270.5 87t-166.5 245t-56 370q0 209 56 369.5t167 251t270 90.5q160 0 270.5 -88.5zM346 1146.5q-84 -128.5 -96 -376.5h700q-11 248 -95 376.5t-255 128.5q-170 0 -254 -128.5z
M861 235q84 137 90 402h-702q6 -264 91.5 -401.5t259.5 -137.5q177 0 261 137z" />
    <glyph glyph-name="uni03F5" unicode="&#x3f5;" 
d="M1019 958l-65 -88q-74 49 -140 70t-145 21q-86 0 -157.5 -41.5t-119.5 -123.5t-62 -200h499v-114h-502q12 -195 104 -291.5t236 -96.5q81 0 149.5 22.5t141.5 72.5l61 -86q-69 -59 -162 -91t-176 -32q-153 0 -262 66t-165.5 188t-56.5 287q0 158 56 282t164 195t259 71
q196 0 343 -111z" />
    <glyph glyph-name="uni03F6" unicode="&#x3f6;" 
d="M904.5 928q114.5 -141 114.5 -394q0 -166 -53 -291t-158 -194t-256 -69q-93 0 -189 32t-166 89l64 95q135 -102 292 -102q148 0 236 96t99 292h-529v114h528q-15 183 -99 274t-225 91q-167 0 -294 -100l-64 90q64 55 162.5 86.5t189.5 31.5q233 0 347.5 -141z" />
    <glyph glyph-name="uni03F7" unicode="&#x3f7;" 
d="M369 1374v-235h224q244 0 375 -106t131 -322q0 -229 -141 -338t-379 -109h-210v-264h-126v1374h126zM369 1030v-656h246q166 0 257.5 74t91.5 258q0 166 -93 245t-253 79h-249z" />
    <glyph glyph-name="uni03F8" unicode="&#x3f8;" 
d="M343 913q61 76 141 116t171 40q202 0 290.5 -142t88.5 -402q0 -162 -44 -284.5t-135 -191.5t-226 -69q-179 0 -286 125v-506l-124 -17v1893l124 17v-579zM470 910.5q-74 -52.5 -127 -130.5v-544q44 -66 114.5 -104.5t151.5 -38.5q146 0 217.5 107.5t71.5 326.5
q0 436 -265 436q-89 0 -163 -52.5z" />
    <glyph glyph-name="uni03F9" unicode="&#x3f9;" 
d="M929 1362q88 -31 172 -98l-78 -89q-65 55 -137.5 78.5t-155.5 23.5q-129 0 -230.5 -57.5t-162 -189t-60.5 -343.5q0 -208 58 -339.5t158 -190.5t231 -59q109 0 186 30.5t140 82.5l72 -92q-65 -62 -163.5 -100.5t-232.5 -38.5q-164 0 -296 82.5t-209 242.5t-77 382
q0 224 77.5 383.5t208 241t286.5 81.5q125 0 213 -31z" />
    <glyph glyph-name="uni03FA" unicode="&#x3fa;" 
d="M1053 1374l78 -1374h-131l-51 757q-8 126 -17 427l-2 67l-255 -1001h-152l-273 1001v-71q0 -30 -1 -175.5t-7 -244.5l-45 -760h-128l78 1374h213l244 -957l233 957h216z" />
    <glyph glyph-name="uni03FB" unicode="&#x3fb;" 
d="M51 -418l123 1468h187l223 -802l246 802h194l84 -1050h-132l-50 593q-14 137 -20 319l-255 -804h-133l-244 798q-1 -134 -14 -306l-80 -995z" />
    <glyph glyph-name="uni03FC" unicode="&#x3fc;" 
d="M396 104v-243h335v-118h-335v-144l-124 -17v161h-174v118h174v677q0 261 104.5 396t302.5 135q219 0 319 -138.5t100 -405.5q0 -149 -45.5 -273t-138 -198t-228.5 -74q-180 0 -290 124zM396 236q44 -68 115 -105.5t154 -37.5q142 0 217.5 113t75.5 321q0 438 -283 438
q-150 0 -214.5 -114t-64.5 -332v-283z" />
    <glyph glyph-name="uni03FD" unicode="&#x3fd;" 
d="M798.5 1312.5q123.5 -80.5 190.5 -238.5t67 -387q0 -222 -77 -382t-209 -242.5t-296 -82.5q-134 0 -232.5 38.5t-163.5 100.5l72 93q62 -53 139.5 -83.5t186.5 -30.5q131 0 231 59t158 190.5t58 339.5q0 318 -112 454t-320 136q-173 0 -327 -103l-65 90q91 66 184 97.5
t221 31.5q171 0 294.5 -80.5z" />
    <glyph glyph-name="uni03FE" unicode="&#x3fe;" 
d="M929 1362q88 -31 172 -98l-78 -89q-65 55 -137.5 78.5t-155.5 23.5q-129 0 -230.5 -57.5t-162 -189t-60.5 -343.5q0 -208 58 -339.5t158 -190.5t231 -59q109 0 186 30.5t140 82.5l72 -92q-65 -62 -163.5 -100.5t-232.5 -38.5q-164 0 -296 82.5t-209 242.5t-77 382
q0 224 77.5 383.5t208 241t286.5 81.5q125 0 213 -31zM798.5 765q29.5 -29 29.5 -73q0 -46 -29.5 -76t-78.5 -30q-46 0 -75 30t-29 76q0 43 29 72.5t75 29.5q49 0 78.5 -29z" />
    <glyph glyph-name="uni03FF" unicode="&#x3ff;" 
d="M798.5 1312.5q123.5 -80.5 190.5 -238.5t67 -387q0 -222 -77 -382t-209 -242.5t-296 -82.5q-134 0 -232.5 38.5t-163.5 100.5l72 93q62 -53 139.5 -83.5t186.5 -30.5q131 0 231 59t158 190.5t58 339.5q0 318 -112 454t-320 136q-173 0 -327 -103l-65 90q91 66 184 97.5
t221 31.5q171 0 294.5 -80.5zM552.5 765q29.5 -29 29.5 -73q0 -46 -29.5 -76t-78.5 -30q-46 0 -75 30t-29 76q0 43 29 72.5t75 29.5q49 0 78.5 -29z" />
    <glyph glyph-name="uni0400" unicode="&#x400;" 
d="M999 1260h-601v-503h520v-117h-520v-529h641v-111h-769v1374h746zM424 1676l86 117l351 -210l-44 -69z" />
    <glyph glyph-name="uni0401" unicode="&#x401;" 
d="M999 1260h-601v-503h520v-117h-520v-529h641v-111h-769v1374h746zM375.5 1564.5q-26.5 25.5 -26.5 64.5q0 41 26.5 67t67.5 26q38 0 64.5 -26t26.5 -67q0 -39 -26.5 -64.5t-64.5 -25.5q-41 0 -67.5 25.5zM775 1564.5q-26 25.5 -26 64.5q0 41 26 67t65 26q41 0 67.5 -26
t26.5 -67q0 -39 -26.5 -64.5t-67.5 -25.5q-39 0 -65 25.5z" />
    <glyph glyph-name="uni0402" unicode="&#x402;" 
d="M463 759q143 128 306 128q179 0 267 -101t88 -296v-301q0 -129 -36 -213t-106 -136t-183 -90l-31 114q91 36 137.5 75.5t65 96t18.5 151.5v278q0 107 -24 171.5t-78 95t-144 30.5q-93 0 -157 -33t-123 -86v-643h-134v1257h-336v117h817l-14 -117h-333v-498z" />
    <glyph glyph-name="uni0403" unicode="&#x403;" 
d="M299 1374h782l-15 -121h-640v-1253h-127v1374zM488 1583l386 201l63 -117l-413 -153z" />
    <glyph glyph-name="uni0404" unicode="&#x404;" 
d="M916 1361.5q90 -31.5 171 -96.5l-69 -85q-137 100 -309 100q-181 0 -300.5 -122.5t-139.5 -393.5h636v-113h-642q8 -191 67.5 -315.5t157.5 -182.5t222 -58q197 0 321 122l77 -94q-68 -62 -168 -102.5t-232 -40.5q-168 0 -299 82.5t-205.5 242t-74.5 382.5t78 383
t209 241.5t286 81.5q124 0 214 -31.5z" />
    <glyph glyph-name="uni0405" unicode="&#x405;" 
d="M997 169q-57 -89 -166.5 -139t-261.5 -50q-138 0 -257.5 43t-205.5 126l84 96q74 -72 167.5 -110t218.5 -38q92 0 170.5 31t127 94t48.5 155q0 74 -27.5 124t-96 88.5t-193.5 75.5q-143 41 -238 88.5t-149.5 120.5t-54.5 179q0 96 52.5 173.5t149 122t221.5 44.5
q133 0 233.5 -37.5t189.5 -113.5l-86 -94q-73 65 -159 96.5t-178 31.5q-81 0 -148 -25t-107 -75t-40 -123q0 -65 34.5 -111t112.5 -84t219 -79q120 -34 204.5 -77.5t138.5 -123t54 -204.5q0 -116 -57 -205z" />
    <glyph glyph-name="uni0406" unicode="&#x406;" 
d="M223 1374h754v-109h-312v-1156h312v-109h-754v109h312v1156h-312v109z" />
    <glyph glyph-name="uni0407" unicode="&#x407;" 
d="M223 1374h754v-109h-312v-1156h312v-109h-754v109h312v1156h-312v109zM332.5 1564.5q-26.5 25.5 -26.5 64.5q0 41 26.5 67t67.5 26q38 0 64.5 -26t26.5 -67q0 -39 -26.5 -64.5t-64.5 -25.5q-41 0 -67.5 25.5zM732 1564.5q-26 25.5 -26 64.5q0 41 26 67t65 26
q41 0 67.5 -26t26.5 -67q0 -39 -26.5 -64.5t-67.5 -25.5q-39 0 -65 25.5z" />
    <glyph glyph-name="uni0408" unicode="&#x408;" 
d="M975 445q0 -118 -38 -222t-137 -174t-269 -70q-95 0 -191.5 32t-174.5 92l63 89q155 -97 306 -97q152 0 233 97.5t81 266.5v803h-403v112h530v-929z" />
    <glyph glyph-name="uni0409" unicode="&#x409;" 
d="M705 851q253 0 374 -100.5t121 -315.5q0 -229 -122.5 -332t-353.5 -103h-167v1251h-210l-52 -626q-20 -241 -46 -363t-59 -175t-96 -104l-81 92q37 44 61 94.5t44.5 156.5t36.5 295l66 753h484v-523zM705 738v-619h30q106 0 172.5 24t102.5 92.5t36 197.5q0 113 -35 180
t-102 96t-170 29h-34z" />
    <glyph glyph-name="uni040A" unicode="&#x40a;" 
d="M700 815q257 2 378.5 -94t121.5 -304q0 -225 -123 -321t-348 -96h-174v714h-320v-714h-144v1374h144v-559h320v559h145v-559zM700 711v-601h38q104 -1 169 21.5t101 89.5t36 194q0 162 -75.5 229.5t-230.5 66.5h-38z" />
    <glyph glyph-name="uni040B" unicode="&#x40b;" 
d="M810 1374l-14 -117h-333v-498q62 60 136.5 94t169.5 34q179 0 267 -101t88 -296v-490h-135v465q0 107 -24 171.5t-78 95t-144 30.5q-93 0 -157 -33t-123 -86v-643h-134v1257h-336v117h817z" />
    <glyph glyph-name="uni040C" unicode="&#x40c;" 
d="M994 0l-482 665h-170v-665h-128v1374h128v-590h175l456 590h149l-497 -653l535 -721h-166zM417 1583l386 201l63 -117l-413 -153z" />
    <glyph glyph-name="uni040D" unicode="&#x40d;" 
d="M186 0v1374h134v-763q0 -170 -5 -276.5t-17 -220.5l535 1260h181v-1374h-134v768q0 221 23 479l-533 -1247h-184zM381 1676l86 117l351 -210l-44 -69z" />
    <glyph glyph-name="uni040E" unicode="&#x40e;" 
d="M702 327q-45 -103 -99 -171t-138 -112.5t-213 -63.5l-21 114q105 16 168 46.5t106 86t86 156.5h-58l-461 991h133l423 -902l387 902h129zM484.5 1548.5q-61.5 26.5 -102.5 76t-48 115.5l99 23q22 -63 67.5 -100t113.5 -37t117.5 38t72.5 99l98 -23q-7 -66 -49.5 -115.5
t-106 -76t-132.5 -26.5q-68 0 -129.5 26.5z" />
    <glyph glyph-name="uni040F" unicode="&#x40f;" 
d="M887 1374h127v-1374h-353l-11 -278h-100l-11 278h-353v1374h127v-1263h574v1263z" />
    <glyph glyph-name="uni0410" unicode="&#x410;" 
d="M1008 0l-121 367h-586l-121 -367h-120l455 1374h169l456 -1374h-132zM596 1255l-252 -772h501z" />
    <glyph glyph-name="uni0411" unicode="&#x411;" 
d="M966 1374l-12 -113h-599v-434h184q530 0 530 -406q0 -226 -140 -323.5t-392 -97.5h-310v1374h739zM355 719v-609h221q111 0 188.5 25t123 93t45.5 191q0 159 -96 229.5t-260 70.5h-222z" />
    <glyph glyph-name="uni0412" unicode="&#x412;" 
d="M988 163q-72 -87 -185 -125t-243 -38h-343v1374h309q200 0 337 -80t137 -265q0 -126 -73.5 -202t-182.5 -99q138 -24 227 -101t89 -238q0 -139 -72 -226zM580 1262h-236v-483h255q269 0 269 248q0 235 -288 235zM837.5 596q-85.5 62 -228.5 62h-265v-543h259
q131 0 225.5 57.5t94.5 204.5q0 157 -85.5 219z" />
    <glyph glyph-name="uni0413" unicode="&#x413;" 
d="M299 1374h782l-15 -121h-640v-1253h-127v1374z" />
    <glyph glyph-name="uni0414" unicode="&#x414;" 
d="M1021 116h101v-394h-104l-26 278h-37v1l-782 -1h-37l-26 -278h-104v394h87q50 48 76.5 114t45 172.5t52.5 357.5l32 230l55 384h667v-1258zM881 116v1137h-411l-34 -287l-15 -122q-35 -282 -54.5 -404t-48.5 -197.5t-84 -126.5h647z" />
    <glyph glyph-name="uni0415" unicode="&#x415;" 
d="M999 1260h-601v-503h520v-117h-520v-529h641v-111h-769v1374h746z" />
    <glyph glyph-name="uni0416" unicode="&#x416;" 
d="M529 0v657h-142l-222 -657h-135l254 721l-223 653h137l189 -582h142v582h142v-582h142l192 582h134l-223 -653l254 -721h-139l-219 657h-141v-657h-142z" />
    <glyph glyph-name="uni0417" unicode="&#x417;" 
d="M804.5 1348q104.5 -45 160.5 -125.5t56 -184.5q0 -81 -38.5 -143t-101.5 -98t-136 -45q83 -7 156.5 -47.5t120 -114.5t46.5 -177q0 -122 -62.5 -220.5t-178 -155.5t-267.5 -57q-139 0 -261.5 51t-211.5 145l89 74q174 -152 387 -152q115 0 196 37t123 105t42 161
q0 141 -93.5 209.5t-245.5 68.5h-248l15 121h215q84 0 156.5 26t117 80.5t44.5 136.5q0 78 -42 131t-114 79.5t-162 26.5q-114 0 -200.5 -35t-175.5 -105l-80 85q104 85 213.5 126.5t235.5 41.5q140 0 244.5 -45z" />
    <glyph glyph-name="uni0418" unicode="&#x418;" 
d="M186 0v1374h134v-763q0 -170 -5 -276.5t-17 -220.5l535 1260h181v-1374h-134v768q0 221 23 479l-533 -1247h-184z" />
    <glyph glyph-name="uni0419" unicode="&#x419;" 
d="M186 0v1374h134v-763q0 -170 -5 -276.5t-17 -220.5l535 1260h181v-1374h-134v768q0 221 23 479l-533 -1247h-184zM404.5 1615.5q-79.5 49.5 -90.5 150.5l99 24q23 -66 65.5 -92.5t115.5 -26.5q75 0 121 27t69 92l98 -24q-11 -101 -93 -150.5t-195 -49.5
q-110 0 -189.5 49.5z" />
    <glyph glyph-name="uni041A" unicode="&#x41a;" 
d="M994 0l-482 665h-170v-665h-128v1374h128v-590h175l456 590h149l-497 -653l535 -721h-166z" />
    <glyph glyph-name="uni041B" unicode="&#x41b;" 
d="M1014 1374v-1374h-127v1255h-416l-57 -463q-39 -302 -80.5 -454t-88 -216.5t-138.5 -138.5l-61 103q55 50 86.5 95.5t68 171.5t70.5 366l89 655h654z" />
    <glyph glyph-name="uni041C" unicode="&#x41c;" 
d="M1053 1374l78 -1374h-131l-51 757q-8 126 -17 427l-2 67l-255 -1001h-152l-273 1001v-71q0 -30 -1 -175.5t-7 -244.5l-45 -760h-128l78 1374h213l244 -957l233 957h216z" />
    <glyph glyph-name="uni041D" unicode="&#x41d;" 
d="M1014 0h-127v674h-574v-674h-127v1374h127v-596h574v596h127v-1374z" />
    <glyph glyph-name="uni041E" unicode="&#x41e;" 
d="M1037 317q-56 -159 -166.5 -248t-270.5 -89t-270.5 87t-166.5 245t-56 370q0 209 56 369.5t167 251t270 90.5q160 0 270.5 -88.5t166.5 -248t56 -371.5q0 -209 -56 -368zM871.5 1125q-85.5 150 -271.5 150t-271.5 -151t-85.5 -442q0 -584 357 -584q185 0 271 148.5
t86 438.5t-85.5 440z" />
    <glyph glyph-name="uni041F" unicode="&#x41f;" 
d="M1014 0h-127v1253h-574v-1253h-127v1374h828v-1374z" />
    <glyph glyph-name="uni0420" unicode="&#x420;" 
d="M961.5 628.5q-140.5 -102.5 -386.5 -102.5h-184v-526h-128v1374h326q243 0 378 -103.5t135 -310.5q0 -229 -140.5 -331.5zM868 1193q-94 72 -252 72h-225v-628h211q171 0 265.5 70t94.5 250q0 164 -94 236z" />
    <glyph glyph-name="uni0421" unicode="&#x421;" 
d="M929 1362q88 -31 172 -98l-78 -89q-65 55 -137.5 78.5t-155.5 23.5q-129 0 -230.5 -57.5t-162 -189t-60.5 -343.5q0 -208 58 -339.5t158 -190.5t231 -59q109 0 186 30.5t140 82.5l72 -92q-65 -62 -163.5 -100.5t-232.5 -38.5q-164 0 -296 82.5t-209 242.5t-77 382
q0 224 77.5 383.5t208 241t286.5 81.5q125 0 213 -31z" />
    <glyph glyph-name="uni0422" unicode="&#x422;" 
d="M1091 1256h-431v-1256h-127v1256h-443v118h1015z" />
    <glyph glyph-name="uni0423" unicode="&#x423;" 
d="M702 327q-45 -103 -99 -171t-138 -112.5t-213 -63.5l-21 114q105 16 168 46.5t106 86t86 156.5h-58l-461 991h133l423 -902l387 902h129z" />
    <glyph glyph-name="uni0424" unicode="&#x424;" 
d="M677 1321q250 -19 371 -175t121 -455q0 -305 -127.5 -463t-364.5 -169v-111h-154v111q-238 8 -365 166.5t-127 465.5q0 298 121.5 454.5t370.5 175.5v107h154v-107zM520 1206q-121 -2 -198 -53t-115.5 -163.5t-38.5 -298.5q0 -175 37.5 -286t114.5 -167.5t200 -65.5v1034
zM680 172q123 9 200 65.5t114.5 167.5t37.5 286q0 185 -39 297.5t-116 164t-197 53.5v-1034z" />
    <glyph glyph-name="uni0425" unicode="&#x425;" 
d="M522 733l-405 641h153l330 -554l330 554h140l-397 -633l448 -741h-153l-372 650l-379 -650h-139z" />
    <glyph glyph-name="uni0426" unicode="&#x426;" 
d="M1014 1374v-1258h131v-394h-104l-26 278h-829v1374h127v-1263h574v1263h127z" />
    <glyph glyph-name="uni0427" unicode="&#x427;" 
d="M887 1374h127v-1374h-127v586q-101 -74 -183 -104t-195 -30q-115 0 -204 49t-138.5 137t-49.5 201v535h128v-519q0 -138 76.5 -208t215.5 -70q213 0 350 135v662z" />
    <glyph glyph-name="uni0428" unicode="&#x428;" 
d="M966 1374h135v-1374h-1002v1374h135v-1252h299v1252h134v-1252h299v1252z" />
    <glyph glyph-name="uni0429" unicode="&#x429;" 
d="M1101 1374v-1258h131v-394h-104l-26 278h-1003v1374h135v-1252h299v1252h134v-1252h299v1252h135z" />
    <glyph glyph-name="uni042A" unicode="&#x42a;" 
d="M397 1374v-523h243q250 0 385 -101t135 -315q0 -229 -139.5 -332t-385.5 -103h-374v1248h-258v126h394zM397 739v-624h294q102 0 174.5 26.5t115 97t42.5 194.5q0 162 -94 234t-249 72h-283z" />
    <glyph glyph-name="uni042B" unicode="&#x42b;" 
d="M217 1374v-526h157q250 0 372 -106.5t122 -307.5q0 -216 -125.5 -325t-364.5 -109h-310v1374h149zM983 1374h149v-1374h-149v1374zM217 742v-629h182q156 0 235 76t79 243q0 154 -81.5 232t-240.5 78h-174z" />
    <glyph glyph-name="uni042C" unicode="&#x42c;" 
d="M339 1374v-523h229q250 0 385 -101t135 -315q0 -228 -140.5 -331.5t-383.5 -103.5h-352v1374h127zM339 742v-630h258q108 0 184 26.5t121 97t45 197.5q0 163 -94 236t-251 73h-263z" />
    <glyph glyph-name="uni042D" unicode="&#x42d;" 
d="M821 1317.5q117 -75.5 180 -229t63 -380.5q0 -235 -64 -398.5t-183 -246.5t-284 -83q-130 0 -242 47.5t-190 128.5l91 77q72 -70 152 -104t175 -34q195 0 296.5 135t115.5 417h-634v121h634q-15 271 -112.5 391.5t-277.5 120.5q-110 0 -188 -36t-157 -101l-79 82
q188 168 426 168q161 0 278 -75.5z" />
    <glyph glyph-name="uni042E" unicode="&#x42e;" 
d="M997.5 1314q83.5 -79 119.5 -234t36 -395q0 -347 -91.5 -526t-287.5 -179q-205 0 -291.5 176t-90.5 497h-147v-653h-143v1374h143v-601h149q8 207 48.5 343t121.5 206.5t210 70.5q140 0 223.5 -79zM640 1216q-50 -57 -73 -184.5t-23 -344.5t23.5 -345t73.5 -185t133 -57
q79 0 129 57t75 185.5t25 342.5q0 213 -25.5 342.5t-75.5 187.5t-128 58q-84 0 -134 -57z" />
    <glyph glyph-name="uni042F" unicode="&#x42f;" 
d="M1014 1374v-1374h-127v569h-348l-306 -569h-147l329 602q-119 53 -180.5 151.5t-61.5 221.5q0 124 58 213.5t171.5 137.5t276.5 48h335zM651 1264q-173 0 -255.5 -68.5t-82.5 -217.5q0 -146 73 -219t215 -73h286v578h-236z" />
    <glyph glyph-name="uni0430" unicode="&#x430;" 
d="M932 207q0 -62 21 -92.5t69 -44.5l-34 -91q-64 10 -109.5 46.5t-63.5 104.5q-55 -73 -137.5 -111.5t-186.5 -38.5q-103 0 -178.5 39.5t-115.5 112.5t-40 171q0 160 125 245t362 85h159v102q0 118 -67.5 170t-195.5 52q-121 0 -269 -53l-36 102q91 34 169 48.5t154 14.5
q121 0 205 -41t126.5 -115t42.5 -174v-532zM675 121q75 42 128 117v300h-174q-178 0 -256.5 -62t-78.5 -177q0 -110 54.5 -165t166.5 -55q85 0 160 42z" />
    <glyph glyph-name="uni0431" unicode="&#x431;" 
d="M851 922q85 -57 131 -163.5t46 -251.5q0 -165 -54 -284t-151.5 -181t-225.5 -62q-119 0 -215.5 63.5t-154 196t-57.5 331.5q0 229 32.5 377.5t113 244.5t227.5 150q122 45 187 75.5t127 76.5l62 -110q-70 -42 -138 -76.5t-170 -73.5q-93 -36 -150 -80.5t-95.5 -134
t-53.5 -246.5q53 94 141.5 149.5t198.5 55.5q114 0 199 -57zM805.5 183q76.5 90 76.5 317q0 192 -63 278.5t-174 86.5q-99 0 -186 -53t-145 -182v-123q0 -130 35.5 -223t99.5 -142t148 -49q132 0 208.5 90z" />
    <glyph glyph-name="uni0432" unicode="&#x432;" 
d="M984 492.5q65 -62.5 65 -184.5q0 -104 -57.5 -173t-154.5 -102t-218 -33h-377v1035q175 34 334 34q129 0 222.5 -32t143.5 -93t50 -147q0 -87 -45 -144t-165 -86q137 -12 202 -74.5zM472.5 952q-45.5 -3 -106.5 -11v-325h242q121 0 185 38.5t64 135.5q0 90 -66.5 127.5
t-210.5 37.5q-62 0 -107.5 -3zM617 115q148 0 221 44.5t73 140.5q0 116 -83 155t-211 39h-251v-379h251z" />
    <glyph glyph-name="uni0433" unicode="&#x433;" 
d="M461 940v-940h-124v1050h704l-16 -110h-564z" />
    <glyph glyph-name="uni0434" unicode="&#x434;" 
d="M977 109h70v-387h-110l-26 278h-715l-26 -278h-110v387h67q54 45 87 109.5t54.5 180t34.5 311.5l23 340h651v-941zM843 109v829h-403l-13 -216q-12 -207 -32 -321.5t-56 -180t-102 -111.5h606z" />
    <glyph glyph-name="uni0435" unicode="&#x435;" 
d="M309 475q2 -127 46 -212.5t116.5 -127t161.5 -41.5q80 0 144.5 23t138.5 74l65 -93q-72 -56 -163.5 -87t-179.5 -31q-143 0 -247.5 67.5t-159.5 190.5t-55 286q0 159 55.5 282.5t156.5 193t231 69.5q126 0 218 -61.5t140.5 -176t48.5 -270.5q0 -23 -3 -86h-714z
M467.5 912.5q-67.5 -40.5 -108.5 -122.5t-48 -203h597q-4 180 -81 273t-205 93q-87 0 -154.5 -40.5z" />
    <glyph glyph-name="uni0436" unicode="&#x436;" 
d="M665 0h-130v501h-130l-220 -501h-131l244 564l-220 486h139l189 -430h129v430h130v-430h129l194 430h134l-221 -486l244 -564h-139l-216 501h-125v-501z" />
    <glyph glyph-name="uni0437" unicode="&#x437;" 
d="M586 611q73 0 129 21.5t86 59.5t30 88q0 91 -69.5 135.5t-202.5 44.5q-81 0 -169 -26t-162 -73l-63 81q76 58 184.5 92.5t212.5 34.5q113 0 203.5 -31.5t143.5 -95.5t53 -157q0 -83 -55.5 -139.5t-145.5 -83.5q68 -7 127.5 -37.5t96.5 -84t37 -123.5q0 -108 -59 -184
t-163 -114.5t-238 -38.5q-255 0 -437 149l63 86q77 -58 169.5 -90t211.5 -32q153 0 233.5 57.5t80.5 156.5q0 186 -290 186h-206l10 118h189z" />
    <glyph glyph-name="uni0438" unicode="&#x438;" 
d="M981 1050v-1050h-129v539q0 204 12 342l-477 -881h-168v1050h129v-536q0 -92 -3 -188t-7 -150l470 874h173z" />
    <glyph glyph-name="uni0439" unicode="&#x439;" 
d="M981 1050v-1050h-129v539q0 204 12 342l-477 -881h-168v1050h129v-536q0 -92 -3 -188t-7 -150l470 874h173zM404.5 1363.5q-79.5 49.5 -90.5 150.5l99 24q23 -66 65.5 -92.5t115.5 -26.5q75 0 121 27t69 92l98 -24q-11 -101 -93 -150.5t-195 -49.5q-110 0 -189.5 49.5z
" />
    <glyph glyph-name="uni043A" unicode="&#x43a;" 
d="M354 0h-124v1050h124v-432h231l326 432h154l-372 -486l435 -564h-165l-380 504h-229v-504z" />
    <glyph glyph-name="uni043B" unicode="&#x43b;" 
d="M1010 1050v-1050h-124v938h-445l-28 -322q-20 -232 -48 -348t-73.5 -173.5t-137.5 -111.5l-53 81q58 35 91 78.5t59 151.5t42 315l34 441h683z" />
    <glyph glyph-name="uni043C" unicode="&#x43c;" 
d="M1025 1050l77 -1050h-125l-49 560q-14 168 -14 359h-8l-227 -739h-150l-255 739h-8l1 -60q0 -142 -9 -291l-35 -568h-125l75 1050h186l248 -738l231 738h187z" />
    <glyph glyph-name="uni043D" unicode="&#x43d;" 
d="M981 0h-124v483h-514v-483h-124v1050h124v-458h514v458h124v-1050z" />
    <glyph glyph-name="uni043E" unicode="&#x43e;" 
d="M841 1003q97 -66 145 -188t48 -290q0 -158 -49.5 -281.5t-147.5 -193.5t-237 -70q-141 0 -238.5 67.5t-146.5 189.5t-49 286q0 163 49.5 286t148 191.5t239.5 68.5t238 -66zM302 523q0 -433 298 -433t298 435t-295 435q-301 0 -301 -437z" />
    <glyph glyph-name="uni043F" unicode="&#x43f;" 
d="M981 0h-125v941h-512v-941h-125v1050h762v-1050z" />
    <glyph glyph-name="uni0440" unicode="&#x440;" 
d="M945.5 927q88.5 -142 88.5 -402q0 -162 -44 -284.5t-135 -191.5t-226 -69q-179 0 -286 125v-506l-124 -17v1468h102l14 -155q58 82 139.5 128t180.5 46q202 0 290.5 -142zM470 910.5q-74 -52.5 -127 -130.5v-544q44 -66 114.5 -104.5t151.5 -38.5q146 0 217.5 107.5
t71.5 326.5q0 436 -265 436q-89 0 -163 -52.5z" />
    <glyph glyph-name="uni0441" unicode="&#x441;" 
d="M954 187l65 -84q-67 -56 -163 -89.5t-182 -33.5q-151 0 -258 66t-163 188t-56 287q0 158 56 282t164 195t258 71q193 0 341 -119l-66 -89q-143 98 -281 98q-98 0 -173.5 -50t-118 -148.5t-42.5 -239.5q0 -143 42 -238.5t117.5 -142t174.5 -46.5q153 0 285 93z" />
    <glyph glyph-name="uni0442" unicode="&#x442;" 
d="M145 1050h922l-14 -112h-391v-938h-124v938h-393v112z" />
    <glyph glyph-name="uni0443" unicode="&#x443;" 
d="M682 -9q-40 -113 -90 -195.5t-134 -140t-209 -72.5l-22 108q106 19 169 58t98.5 97t66.5 154h-41l-377 1050h134l331 -944l320 944h129z" />
    <glyph glyph-name="uni0444" unicode="&#x444;" 
d="M535 1492l130 -20v-512q87 109 197 109q146 0 209.5 -141.5t63.5 -400.5q0 -163 -35 -286.5t-100 -192t-154 -68.5q-46 0 -93 29.5t-88 88.5v-496l-130 -20v517q-40 -58 -90 -88.5t-96 -30.5q-89 0 -153 68t-97.5 192t-33.5 287q0 542 280 542q52 0 99 -25t91 -79v527z
M248.5 857.5q-39.5 -103.5 -39.5 -330.5q0 -228 39.5 -332.5t118.5 -104.5q46 0 81.5 26t86.5 89v652q-52 58 -85.5 81t-82.5 23q-79 0 -118.5 -103.5zM750 936q-39 -25 -85 -82v-649q43 -60 78.5 -87.5t81.5 -27.5q169 0 169 437q0 156 -16 251t-49.5 139t-87.5 44
q-52 0 -91 -25z" />
    <glyph glyph-name="uni0445" unicode="&#x445;" 
d="M597 468l-319 -468h-147l396 555l-344 495h153l266 -407l272 407h149l-349 -489l395 -561h-161z" />
    <glyph glyph-name="uni0446" unicode="&#x446;" 
d="M974 1050v-941h169v-387h-110l-26 278h-795v1050h125v-938h512v938h125z" />
    <glyph glyph-name="uni0447" unicode="&#x447;" 
d="M956 1050v-1050h-124v461q-62 -58 -151.5 -91.5t-187.5 -33.5q-148 0 -224.5 79t-76.5 225v410h124v-396q0 -113 47 -163.5t150 -50.5q86 0 177 37t142 98v475h124z" />
    <glyph glyph-name="uni0448" unicode="&#x448;" 
d="M964 1050h125v-1050h-978v1050h125v-938h298v938h132v-938h298v938z" />
    <glyph glyph-name="uni0449" unicode="&#x449;" 
d="M1089 1050v-941h155v-387h-110l-26 278h-997v1050h125v-938h298v938h132v-938h298v938h125z" />
    <glyph glyph-name="uni044A" unicode="&#x44a;" 
d="M465 1050v-334h137q473 0 473 -351q0 -197 -129.5 -281t-353.5 -84h-251v949h-263v101h387zM465 607v-497h158q97 0 165.5 21t109 76.5t40.5 155.5q0 130 -80 187t-231 57h-162z" />
    <glyph glyph-name="uni044B" unicode="&#x44b;" 
d="M273 1050v-347h87q210 0 325.5 -83t115.5 -258q0 -186 -119.5 -274t-330.5 -88h-206v1050h128zM924 1050h131v-1050h-131v1050zM273 596v-484h86q100 0 165 21.5t100 76t35 151.5q0 127 -70.5 181t-224.5 54h-91z" />
    <glyph glyph-name="uni044C" unicode="&#x44c;" 
d="M399 1050v-336h235q229 0 324 -93.5t95 -261.5q0 -114 -53.5 -195.5t-139.5 -122.5t-180 -41h-405v1050h124zM399 605v-495h254q124 0 194 56.5t70 189.5q0 85 -26 139.5t-89 82t-173 27.5h-230z" />
    <glyph glyph-name="uni044D" unicode="&#x44d;" 
d="M904.5 928q114.5 -141 114.5 -394q0 -166 -53 -291t-158 -194t-256 -69q-93 0 -189 32t-166 89l64 95q135 -102 292 -102q148 0 236 96t99 292h-529v114h528q-15 183 -99 274t-225 91q-167 0 -294 -100l-64 90q64 55 162.5 86.5t189.5 31.5q233 0 347.5 -141z" />
    <glyph glyph-name="uni044E" unicode="&#x44e;" 
d="M1032.5 927q92.5 -142 92.5 -402q0 -164 -39.5 -286t-121 -190.5t-203.5 -68.5q-115 0 -192.5 65t-117 177t-44.5 256h-146v-478h-136v1050h136v-453h145q11 225 100 348.5t255 123.5q179 0 271.5 -142zM636.5 904.5q-45.5 -46.5 -64.5 -139.5t-19 -242q0 -209 45.5 -317
t162.5 -108q121 0 167.5 108t46.5 319q0 147 -20.5 240.5t-67.5 139.5t-126 46t-124.5 -46.5z" />
    <glyph glyph-name="uni044F" unicode="&#x44f;" 
d="M948 1050v-1050h-124v419h-319l-233 -419h-148l249 449q-189 87 -189 294q0 153 104 230t284 77h376zM824 535v399h-256q-123 0 -186 -46.5t-63 -149.5q0 -74 24.5 -118.5t77 -64.5t139.5 -20h264z" />
    <glyph glyph-name="uni0450" unicode="&#x450;" 
d="M309 475q2 -127 46 -212.5t116.5 -127t161.5 -41.5q80 0 144.5 23t138.5 74l65 -93q-72 -56 -163.5 -87t-179.5 -31q-143 0 -247.5 67.5t-159.5 190.5t-55 286q0 159 55.5 282.5t156.5 193t231 69.5q126 0 218 -61.5t140.5 -176t48.5 -270.5q0 -23 -3 -86h-714z
M467.5 912.5q-67.5 -40.5 -108.5 -122.5t-48 -203h597q-4 180 -81 273t-205 93q-87 0 -154.5 -40.5zM834 1317l-45 -73l-384 185l80 116z" />
    <glyph glyph-name="uni0451" unicode="&#x451;" 
d="M309 475q2 -127 46 -212.5t116.5 -127t161.5 -41.5q80 0 144.5 23t138.5 74l65 -93q-72 -56 -163.5 -87t-179.5 -31q-143 0 -247.5 67.5t-159.5 190.5t-55 286q0 159 55.5 282.5t156.5 193t231 69.5q126 0 218 -61.5t140.5 -176t48.5 -270.5q0 -23 -3 -86h-714z
M467.5 912.5q-67.5 -40.5 -108.5 -122.5t-48 -203h597q-4 180 -81 273t-205 93q-87 0 -154.5 -40.5zM355.5 1328.5q-26.5 25.5 -26.5 64.5q0 41 26.5 67t67.5 26q38 0 64.5 -26t26.5 -67q0 -39 -26.5 -64.5t-64.5 -25.5q-41 0 -67.5 25.5zM755 1328.5q-26 25.5 -26 64.5
q0 41 26 67t65 26q41 0 67.5 -26t26.5 -67q0 -39 -26.5 -64.5t-67.5 -25.5q-39 0 -65 25.5z" />
    <glyph glyph-name="uni0452" unicode="&#x452;" 
d="M343 1487v-170h355v-119h-355v-293q60 77 153.5 120.5t189.5 43.5q298 0 298 -309v-740q0 -131 -29.5 -210t-86.5 -127.5t-160 -97.5l-49 90q79 37 120 72.5t61 102t20 186.5v723q0 108 -49 157.5t-157 49.5q-64 0 -125 -28.5t-109 -72t-77 -88.5v-777h-124v1198h-174
v119h174v155z" />
    <glyph glyph-name="uni0453" unicode="&#x453;" 
d="M461 940v-940h-124v1050h704l-16 -110h-564zM474 1360l380 211l64 -116l-402 -165z" />
    <glyph glyph-name="uni0454" unicode="&#x454;" 
d="M1019 958l-65 -88q-74 49 -140 70t-145 21q-86 0 -157.5 -41.5t-119.5 -123.5t-62 -200h499v-114h-502q12 -195 104 -291.5t236 -96.5q81 0 149.5 22.5t141.5 72.5l61 -86q-69 -59 -162 -91t-176 -32q-153 0 -262 66t-165.5 188t-56.5 287q0 158 56 282t164 195t259 71
q196 0 343 -111z" />
    <glyph glyph-name="uni0455" unicode="&#x455;" 
d="M710 116.5q65 23.5 99.5 65.5t34.5 98q0 57 -18 93.5t-72.5 66.5t-164.5 57q-127 31 -204.5 64.5t-120.5 89.5t-43 143q0 85 49 147t135.5 95t196.5 33q115 0 207 -31t161 -82l-58 -92q-66 46 -137 70.5t-172 24.5q-132 0 -191.5 -41.5t-59.5 -113.5q0 -52 27 -85.5
t87 -58.5t174 -55q113 -30 187 -68t115 -99.5t41 -154.5q0 -105 -60 -173t-156.5 -99t-210.5 -31q-235 0 -393 137l77 91q63 -54 144.5 -84.5t172.5 -30.5q88 0 153 23.5z" />
    <glyph glyph-name="uni0456" unicode="&#x456;" 
d="M676.5 1496.5q28.5 -28.5 28.5 -70.5q0 -45 -28.5 -74t-75.5 -29q-45 0 -73 29t-28 74q0 42 28.5 70.5t72.5 28.5q47 0 75.5 -28.5zM272 1050h446v-942h305v-108h-761v108h332v834h-322v108z" />
    <glyph glyph-name="uni0457" unicode="&#x457;" 
d="M272 1050h446v-942h305v-108h-761v108h332v834h-322v108zM336.5 1328.5q-26.5 25.5 -26.5 64.5q0 41 26.5 67t67.5 26q38 0 64.5 -26t26.5 -67q0 -39 -26.5 -64.5t-64.5 -25.5q-41 0 -67.5 25.5zM736 1328.5q-26 25.5 -26 64.5q0 41 26 67t65 26q41 0 67.5 -26t26.5 -67
q0 -39 -26.5 -64.5t-67.5 -25.5q-39 0 -65 25.5z" />
    <glyph glyph-name="uni0458" unicode="&#x458;" 
d="M807 1496.5q29 -28.5 29 -70.5q0 -45 -29 -74t-76 -29q-45 0 -72.5 29t-27.5 74q0 42 28 70.5t72 28.5q47 0 76 -28.5zM874 128q0 -232 -166 -364.5t-480 -181.5l-21 97q543 79 543 440v823h-455v108h579v-922z" />
    <glyph glyph-name="uni0459" unicode="&#x459;" 
d="M715 1050v-344h30q205 0 319 -83.5t114 -257.5q0 -183 -115 -274t-323 -91h-159v939h-240l-14 -296q-10 -223 -40 -347.5t-81 -189.5t-142 -123l-50 89q49 42 80 89t57 156t37 304l25 429h502zM715 599v-486h46q91 0 150 22.5t90 77t31 150.5q0 127 -65.5 181.5
t-210.5 54.5h-41z" />
    <glyph glyph-name="uni045A" unicode="&#x45a;" 
d="M721 1050v-402h29q208 0 321 -75t113 -247q0 -175 -111.5 -250.5t-312.5 -75.5h-172v545h-281v-545h-139v1050h139v-402h281v402h133zM721 541v-431h46q94 0 149.5 14t87 60t31.5 140q0 85 -29 132t-89 66t-160 19h-36z" />
    <glyph glyph-name="uni045B" unicode="&#x45b;" 
d="M984 760v-760h-124v782q0 94 -51 139t-155 45q-64 0 -125 -28.5t-109 -72t-77 -88.5v-777h-124v1198h-174v119h174v155l124 15v-170h355v-119h-355v-303q59 83 152 128.5t191 45.5q298 0 298 -309z" />
    <glyph glyph-name="uni045C" unicode="&#x45c;" 
d="M354 0h-124v1050h124v-432h231l326 432h154l-372 -486l435 -564h-165l-380 504h-229v-504zM432 1360l380 211l64 -116l-402 -165z" />
    <glyph glyph-name="uni045D" unicode="&#x45d;" 
d="M981 1050v-1050h-129v539q0 204 12 342l-477 -881h-168v1050h129v-536q0 -92 -3 -188t-7 -150l470 874h173zM811 1317l-45 -73l-384 185l80 116z" />
    <glyph glyph-name="uni045E" unicode="&#x45e;" 
d="M682 -9q-40 -113 -90 -195.5t-134 -140t-209 -72.5l-22 108q106 19 169 58t98.5 97t66.5 154h-41l-377 1050h134l331 -944l320 944h129zM404.5 1363.5q-79.5 49.5 -90.5 150.5l99 24q23 -66 65.5 -92.5t115.5 -26.5q75 0 121 27t69 92l98 -24q-11 -101 -93 -150.5
t-195 -49.5q-110 0 -189.5 49.5z" />
    <glyph glyph-name="uni045F" unicode="&#x45f;" 
d="M856 1050h125v-1050h-320l-11 -278h-100l-11 278h-320v1050h125v-938h512v938z" />
    <glyph glyph-name="uni0460" unicode="&#x460;" 
d="M1025 1374q36 -98 64.5 -197t52.5 -251t24 -332q0 -329 -80.5 -470t-232.5 -141q-92 0 -154.5 54t-94.5 159q-34 -108 -92.5 -160.5t-158.5 -52.5q-80 0 -152 57.5t-118.5 194.5t-46.5 359q0 179 24.5 331t52.5 247t66 202h139q-75 -176 -112 -360t-37 -414
q0 -271 56 -388.5t156 -117.5q65 0 106 58.5t41 190.5v452h148v-449q0 -129 46.5 -190.5t117.5 -61.5q60 0 101.5 37.5t67 147.5t25.5 316q0 226 -38.5 410t-110.5 369h140z" />
    <glyph glyph-name="uni0461" unicode="&#x461;" 
d="M1040 1050q100 -250 100 -575q0 -151 -34.5 -262.5t-103 -172t-168.5 -60.5q-103 0 -164.5 62t-71.5 178q-21 -113 -83.5 -176.5t-158.5 -63.5q-150 0 -223 127.5t-73 367.5q0 185 27 330t70 245h120q-38 -112 -56 -206.5t-23 -177t-5 -196.5q0 -179 37.5 -279.5
t131.5 -100.5q91 0 129 107t38 262v262l141 17v-283q0 -169 37 -267t129 -98q93 0 132 101.5t39 278.5q0 161 -18 287.5t-75 292.5h126z" />
    <glyph glyph-name="uni0462" unicode="&#x462;" 
d="M622 848q234 0 368 -104t134 -307q0 -226 -144 -331.5t-397 -105.5h-258v1067h-305v111h305v196h127v-196h325v-111h-325v-219h170zM616 112q115 0 195.5 28t126.5 98.5t46 193.5q0 166 -90.5 236t-263.5 70h-178v-626h164z" />
    <glyph glyph-name="uni0463" unicode="&#x463;" 
d="M441 1299v-235h266l-19 -119h-247v-242h153q223 0 347.5 -82.5t124.5 -262.5q0 -196 -131.5 -277t-358.5 -81h-259v945h-186v119h186v217zM441 594v-484h173q97 0 165.5 20t109 73.5t40.5 151.5q0 127 -80 183t-230 56h-178z" />
    <glyph glyph-name="uni0464" unicode="&#x464;" 
d="M1181 84q-62 -51 -129.5 -77.5t-174.5 -26.5q-143 0 -253.5 77.5t-174 228.5t-68.5 364h-155v-650h-135v1372h135v-599h158q12 199 78 338.5t174.5 210.5t246.5 71q96 0 157 -20.5t125 -66.5l-80 -90q-52 32 -92.5 45t-105.5 13q-150 0 -244.5 -118t-119.5 -388h500v-121
h-506q16 -279 111.5 -411t248.5 -132q53 0 93 10.5t64.5 23.5t68.5 40z" />
    <glyph glyph-name="uni0465" unicode="&#x465;" 
d="M982 127q51 22 101 68l81 -92q-62 -61 -140 -92t-151 -31q-122 0 -215.5 60t-147.5 172.5t-61 265.5h-137v-478h-142v1050h142v-453h139q11 139 63.5 245.5t144.5 166.5t218 60q84 0 155 -27.5t141 -85.5l-72 -94q-57 46 -111.5 67.5t-120.5 21.5q-127 0 -195 -92
t-88 -263h427v-114h-430q7 -188 83 -282.5t199 -94.5q66 0 117 22z" />
    <glyph glyph-name="uni0466" unicode="&#x466;" 
d="M1140 0h-149l-195 607h-132v-606h-141v606h-127l-196 -607h-140l455 1374h169zM596 1228l-160 -497h320z" />
    <glyph glyph-name="uni0467" unicode="&#x467;" 
d="M1119 0h-147l-171 423h-146v-423h-119v423h-138l-176 -423h-138l451 1050h134zM655 538v-1h100l-153 377l-157 -377h91v1h119z" />
    <glyph glyph-name="uni0468" unicode="&#x468;" 
d="M1183 0h-147l-137 598h-84v-597h-130v597h-84l-137 -598h-139l150 598h-233v-596h-147v1372h147v-651h160l20 -111l37 111h48l163 651h168l163 -651h41l41 -125h-50zM750 1244l-120 -521h240z" />
    <glyph glyph-name="uni0469" unicode="&#x469;" 
d="M1171 0h-143l-121 425h-85v-425h-121v425h-80l-123 -425h-133l131 425h-228v-425h-141v1050h141v-501h266l154 501h167l151 -501h33v-110zM765 920l-108 -371h214z" />
    <glyph glyph-name="uni046A" unicode="&#x46a;" 
d="M737 743h166l201 -743h-131l-167 623h-132v-623h-145v623h-130l-170 -623h-133l224 743h146l-265 535v96h816v-96zM869 1266h-512l253 -523z" />
    <glyph glyph-name="uni046B" unicode="&#x46b;" 
d="M720 596h205l221 -596h-121l-191 483h-166v-483h-137v483h-164l-187 -483h-127l224 596h190l-248 379v75h753v-75zM818 937h-440l221 -341z" />
    <glyph glyph-name="uni046C" unicode="&#x46c;" 
d="M888 743h151l224 -743h-139l-182 623h-105v-623h-158v623h-105l-185 -623h-141l208 623h-264v-621h-147v1372h147v-631h435l-245 533v98h766v-98zM999 1262h-462l228 -519z" />
    <glyph glyph-name="uni046D" unicode="&#x46d;" 
d="M878 593h114l219 -593h-135l-172 470h-76v-470h-135v470h-74l-173 -470h-136l180 470h-258v-470h-141v1050h141v-457h405l-221 382v75h681v-75zM953 939h-383l194 -346z" />
    <glyph glyph-name="uni046E" unicode="&#x46e;" 
d="M878 1712l-265 -201h-89l-267 201l64 72l246 -158l249 158zM565 745q144 2 247 -47.5t156.5 -141t53.5 -213.5q0 -120 -53.5 -213.5t-148 -147.5t-214.5 -60q-107 -6 -164.5 -17.5t-81 -31.5t-23.5 -55q0 -39 36.5 -77t107.5 -72l-48 -89q-111 48 -167 108.5t-56 138.5
q0 98 85.5 150.5t252.5 55.5q162 7 250.5 83t88.5 219q0 161 -82.5 230.5t-251.5 69.5h-200v113l436 511h-611v115h779v-116l-459 -513h67z" />
    <glyph glyph-name="uni046F" unicode="&#x46f;" 
d="M570 1383l243 180l65 -70l-265 -225h-89l-267 225l70 70zM434 -419q-127 56 -188 122.5t-61 145.5q0 100 87 151.5t272 60.5q122 7 196 26t112.5 61t38.5 117q0 194 -192 194h-351v111l436 363h-620v117h803v-102l-478 -387h170q172 0 268.5 -72t96.5 -225
q0 -147 -117 -226.5t-315 -91.5q-111 -8 -170 -20t-83 -31.5t-24 -53.5q0 -44 45 -85t134 -86z" />
    <glyph glyph-name="uni0470" unicode="&#x470;" 
d="M529 389q-168 11 -280.5 74.5t-166.5 166.5t-54 233v511h147v-496q0 -165 81.5 -256t268.5 -105v857h152v-855q183 14 265.5 104.5t82.5 254.5v496h147v-511q0 -131 -55 -233t-166.5 -164.5t-276.5 -74.5v-391h-145v389z" />
    <glyph glyph-name="uni0471" unicode="&#x471;" 
d="M669 109q131 13 201 64.5t95 136.5t25 216q0 108 -14.5 246.5t-41.5 277.5h147q25 -146 37.5 -271.5t12.5 -272.5q0 -225 -115 -362.5t-347 -152.5v-392l-133 -17v409q-147 10 -247 65t-149 139.5t-49 184.5v670h139v-652q0 -90 28.5 -149t95.5 -93.5t182 -46.5v941h133
v-941z" />
    <glyph glyph-name="uni0472" unicode="&#x472;" 
d="M1037 317q-56 -159 -166.5 -248t-270.5 -89t-270.5 87t-166.5 245t-56 370q0 209 56 369.5t167 251t270 90.5q160 0 270.5 -88.5t166.5 -248t56 -371.5q0 -209 -56 -368zM347 1145.5q-84 -129.5 -97 -387.5h698q-12 257 -95.5 387t-252.5 130t-253 -129.5zM860.5 236
q84.5 138 89.5 409h-703q13 -547 353 -547q176 0 260.5 138z" />
    <glyph glyph-name="uni0473" unicode="&#x473;" 
d="M841 1003q97 -66 145 -188t48 -290q0 -158 -49.5 -281.5t-147.5 -193.5t-237 -70q-141 0 -238.5 67.5t-146.5 189.5t-49 286q0 163 49.5 286t148 191.5t239.5 68.5t238 -66zM393.5 865.5q-73.5 -91.5 -81.5 -268.5h577q-8 176 -80 268t-206 92q-136 0 -209.5 -91.5z
M312 475q12 -196 83 -289.5t205 -93.5t205 93.5t83 289.5h-576z" />
    <glyph glyph-name="uni0474" unicode="&#x474;" 
d="M1125 1273q-25 10 -42 14.5t-37 4.5q-42 0 -67.5 -30t-44.5 -97l-315 -1165h-125l-427 1374h139l347 -1188l275 1007q30 103 79.5 150.5t130.5 47.5q41 0 75 -10.5t71 -31.5z" />
    <glyph glyph-name="uni0475" unicode="&#x475;" 
d="M511 0l-374 1050h135l315 -921l283 824q25 72 49 112.5t60 60t93 19.5q58 0 129 -41l-54 -78q-35 14 -69 14q-36 0 -55.5 -21.5t-37.5 -73.5l-320 -945h-154z" />
    <glyph glyph-name="uni0476" unicode="&#x476;" 
d="M1125 1273q-25 10 -42 14.5t-37 4.5q-42 0 -67.5 -30t-44.5 -97l-315 -1165h-125l-427 1374h139l347 -1188l275 1007q30 103 79.5 150.5t130.5 47.5q41 0 75 -10.5t71 -31.5zM292 1982l168 -335l-89 -49l-206 315zM646 1982l142 -333l-93 -46l-178 317z" />
    <glyph glyph-name="uni0477" unicode="&#x477;" 
d="M511 0l-374 1050h135l315 -921l283 824q25 72 49 112.5t60 60t93 19.5q58 0 129 -41l-54 -78q-35 14 -69 14q-36 0 -55.5 -21.5t-37.5 -73.5l-320 -945h-154zM322 1658l168 -335l-89 -49l-206 315zM676 1658l142 -333l-93 -46l-178 317z" />
    <glyph glyph-name="uni0478" unicode="&#x478;" 
d="M154.5 60.5q-67.5 80.5 -96.5 234.5t-29 387q0 231 29 387t96.5 240t181.5 84q165 0 236 -178.5t71 -529.5q0 -235 -30 -389.5t-97.5 -235t-179.5 -80.5q-114 0 -181.5 80.5zM436 154.5q35 61.5 48.5 187.5t13.5 343t-13.5 344t-48.5 189.5t-100 62.5t-100.5 -63
t-49 -191t-13.5 -345q0 -211 15 -338.5t50.5 -189t97.5 -61.5q65 0 100 61.5zM683 -294q87 22 137.5 91.5t71.5 202.5h-63l-174 1050h136l135 -944l119 944h142l-169 -1059q-27 -168 -104.5 -267.5t-212.5 -140.5z" />
    <glyph glyph-name="uni0479" unicode="&#x479;" 
d="M72 122q-70 142 -70 401q0 258 71 402t233 144q156 0 226.5 -141t70.5 -403q0 -249 -73.5 -397t-226.5 -148q-161 0 -231 142zM470 -297q117 19 191.5 52.5t120 91.5t69.5 153h-68l-204 1050h171l150 -944l142 944h165l-196 -1033q-38 -199 -166 -308t-358 -126zM389 152
q30 45 41.5 134t11.5 239q0 151 -11.5 241t-41 135t-83.5 45q-56 0 -87 -45t-43.5 -136t-12.5 -242q0 -148 11.5 -237t42 -134t86.5 -45t86 45z" />
    <glyph glyph-name="uni048A" unicode="&#x48a;" 
d="M404.5 1615.5q-79.5 49.5 -90.5 150.5l99 24q23 -66 65.5 -92.5t115.5 -26.5q75 0 121 27t69 92l98 -24q-11 -101 -93 -150.5t-195 -49.5q-110 0 -189.5 49.5zM1014 89h180l-142 -367h-95l65 278h-142v768q0 221 23 479l-533 -1247h-184v1374h134v-763q0 -170 -5 -276.5
t-17 -220.5l535 1260h181v-1285z" />
    <glyph glyph-name="uni048B" unicode="&#x48b;" 
d="M383.5 1363.5q-79.5 49.5 -90.5 150.5l99 24q23 -66 65.5 -92.5t115.5 -26.5q75 0 121 27t69 92l98 -24q-11 -101 -93 -150.5t-195 -49.5q-110 0 -189.5 49.5zM954 88h141l-113 -366h-102l66 278h-115v539q0 128 3.5 235.5t8.5 162.5l-473 -937h-167v1050h123v-536
q0 -115 -6 -228t-13 -161l477 925h170v-962z" />
    <glyph glyph-name="uni048C" unicode="&#x48c;" 
d="M630 848q235 0 369 -104t134 -307q0 -226 -144 -331.5t-397 -105.5h-318v1068h-214v109h214v197h127v-197h270v-109h-270v-220h229zM625 112q115 0 195.5 28t126.5 98.5t46 193.5q0 166 -90.5 236t-263.5 70h-238v-626h224z" />
    <glyph glyph-name="uni048D" unicode="&#x48d;" 
d="M639 660q132 0 224 -38.5t138.5 -109.5t46.5 -168q0 -164 -121 -254t-348 -90h-232v783h-188v131h188v136h124v-136h238l-23 -131h-215v-123h168zM604 110q143 0 225 49.5t82 182.5q0 209 -276 209h-164v-441h133z" />
    <glyph glyph-name="uni048E" unicode="&#x48e;" 
d="M1129 336h-158l-141 230q-112 -40 -255 -40h-184v-526h-128v1374h326q243 0 378 -104t135 -316q0 -106 -39.5 -188t-112.5 -137zM593 637q108 0 180 23l-182 298h158l138 -226q66 74 66 219q0 168 -94 241t-252 73h-216v-628h202z" />
    <glyph glyph-name="uni048F" unicode="&#x48f;" 
d="M1012.5 254.5q-39.5 -118.5 -118.5 -188.5l153 -250h-158l-112 184q-60 -20 -130 -20q-178 0 -287 125v-506l-124 -17v1468h103l14 -155q57 82 139 128t181 46q201 0 290 -142t89 -402q0 -152 -39.5 -270.5zM715 102l-206 336h158l165 -270q40 47 57 133t17 226
q0 213 -63 324.5t-192 111.5q-89 0 -163 -52.5t-128 -130.5v-544q44 -66 113.5 -104.5t144.5 -38.5q53 0 97 9z" />
    <glyph glyph-name="uni0490" unicode="&#x490;" 
d="M950 1374v287h131v-287l-15 -121h-640v-1253h-127v1374h651z" />
    <glyph glyph-name="uni0491" unicode="&#x491;" 
d="M903 1050v255h138v-255l-16 -110h-564v-940h-124v1050h566z" />
    <glyph glyph-name="uni0492" unicode="&#x492;" 
d="M1145 1374l-15 -121h-640v-387h325v-114h-325v-752h-127v752h-214v114h214v508h782z" />
    <glyph glyph-name="uni0493" unicode="&#x493;" 
d="M1105 1050l-16 -110h-564v-342h255v-113h-255v-485h-124v485h-199v113h199v452h704z" />
    <glyph glyph-name="uni0494" unicode="&#x494;" 
d="M906 836.5q87 -50.5 135 -143.5t48 -219v-616q0 -134 -69.5 -203t-187.5 -69q-67 0 -120.5 20.5t-90.5 49.5l49 94q43 -27 77.5 -39t84.5 -12q63 0 96.5 38.5t33.5 115.5v619q0 136 -68.5 213t-197.5 77q-118 0 -205.5 -45.5t-168.5 -140.5v-576h-127v1374h734l-17 -113
h-590v-543q74 84 166.5 126.5t217.5 42.5q113 0 200 -50.5z" />
    <glyph glyph-name="uni0495" unicode="&#x495;" 
d="M819.5 664q68.5 -37 108.5 -106.5t40 -164.5v-535q0 -88 -33.5 -149.5t-92.5 -92t-136 -30.5q-67 0 -120.5 20.5t-90.5 49.5l49 88q43 -25 77.5 -36.5t84.5 -11.5q65 0 101.5 37.5t36.5 116.5v529q0 113 -50.5 165.5t-138.5 52.5q-96 0 -166 -46t-141 -131l-7 11v-431
h-124v1050h607l-15 -105h-468v-404q59 72 141.5 116t184.5 44q84 0 152.5 -37z" />
    <glyph glyph-name="uni0496" unicode="&#x496;" 
d="M916 721l213 -605h89v-394h-104l-26 278h-57l-219 657h-141v-657h-142v657h-142l-222 -657h-135l254 721l-223 653h137l189 -582h142v582h142v-582h142l192 582h134z" />
    <glyph glyph-name="uni0497" unicode="&#x497;" 
d="M901 564l192 -455h101v-387h-99l-26 278h-69l-210 501h-125v-501h-130v501h-130l-215 -501h-130l238 564l-215 486h140l183 -430h129v430h130v-430h129l188 430h135z" />
    <glyph glyph-name="uni0498" unicode="&#x498;" 
d="M1014 206.5q-54 -93.5 -154.5 -152.5t-234.5 -71v-102q90 -7 134.5 -52.5t44.5 -105.5q0 -62 -32.5 -104t-84 -62t-111.5 -20q-57 0 -110 11.5t-91 33.5l48 83q27 -15 65 -23t72 -8q58 0 91 21t33 67q0 54 -42 72.5t-128 18.5l11 168q-128 6 -241.5 56.5t-196.5 138.5
l89 74q174 -152 387 -152q115 0 196 37t123 105t42 161q0 141 -93.5 209.5t-245.5 68.5h-248l15 121h215q84 0 156.5 26t117 80.5t44.5 136.5q0 78 -42 131t-114 79.5t-162 26.5q-114 0 -200.5 -35t-175.5 -105l-80 85q104 85 213.5 126.5t235.5 41.5q140 0 244.5 -45
t160.5 -125.5t56 -184.5q0 -81 -38.5 -143t-101.5 -98t-136 -45q83 -7 156.5 -47.5t120 -114.5t46.5 -177q0 -113 -54 -206.5z" />
    <glyph glyph-name="uni0499" unicode="&#x499;" 
d="M973.5 148.5q-48.5 -71.5 -135 -113t-200.5 -52.5v-102q90 -7 134.5 -52.5t44.5 -105.5q0 -62 -32.5 -104t-84 -62t-111.5 -20q-57 0 -110 11.5t-91 33.5l48 83q27 -15 65 -23t72 -8q58 0 91 21t33 67q0 54 -42 72.5t-128 18.5l11 167q-241 7 -413 149l63 86
q77 -58 169.5 -90t211.5 -32q153 0 233.5 57.5t80.5 156.5q0 186 -290 186h-206l10 118h189q73 0 129 21.5t86 59.5t30 88q0 91 -69.5 135.5t-202.5 44.5q-81 0 -169 -26t-162 -73l-63 81q76 58 184.5 92.5t212.5 34.5q113 0 203.5 -31.5t143.5 -95.5t53 -157
q0 -83 -55.5 -139.5t-145.5 -83.5q68 -7 127.5 -37.5t96.5 -84t37 -123.5q0 -97 -48.5 -168.5z" />
    <glyph glyph-name="uni049A" unicode="&#x49a;" 
d="M625 721l449 -605h87v-394h-104l-26 278h-37l-482 665h-170v-665h-128v1374h128v-590h175l456 590h149z" />
    <glyph glyph-name="uni049B" unicode="&#x49b;" 
d="M693 564l351 -455h123v-387h-110l-26 278h-68l-380 504h-229v-504h-124v1050h124v-432h231l326 432h154z" />
    <glyph glyph-name="uni049C" unicode="&#x49c;" 
d="M559 303h-107v358h-105v-661h-133v1374h133v-585h105v348h107v-348h58l368 585h142l-405 -653l443 -721h-149l-402 661h-55v-358z" />
    <glyph glyph-name="uni049D" unicode="&#x49d;" 
d="M362 0h-132v1050h132v-423h97v230h90v-230h62l316 423h138l-351 -483l414 -567h-141l-376 494h-62v-251h-90v251h-97v-494z" />
    <glyph glyph-name="uni049E" unicode="&#x49e;" 
d="M1118 1374l-457 -653l495 -721h-166l-442 665h-170v-665h-128v1051h-160v114h160v209h128v-209h246v-114h-246v-267h174l417 590h149z" />
    <glyph glyph-name="uni049F" unicode="&#x49f;" 
d="M1045 1050l-373 -486l436 -564h-165l-380 504h-188v-504h-124v1136h-158v119h158v220l124 17v-237h313v-119h-313v-518h190l326 432h154z" />
    <glyph glyph-name="uni04A0" unicode="&#x4a0;" 
d="M1024 0l-453 663h-146v-663h-138v1248h-258v126h396v-587h150l429 587h153l-466 -653l505 -721h-172z" />
    <glyph glyph-name="uni04A1" unicode="&#x4a1;" 
d="M1106 1050l-382 -486l444 -564h-165l-389 504h-207v-504h-124v949h-263v101h387v-432h210l334 432h155z" />
    <glyph glyph-name="uni04A2" unicode="&#x4a2;" 
d="M1025 1374v-1258h122v-394h-104l-26 278h-119v674h-574v-674h-127v1374h127v-596h574v596h127z" />
    <glyph glyph-name="uni04A3" unicode="&#x4a3;" 
d="M955 1050v-941h170v-387h-110l-26 278h-158v483h-514v-483h-124v1050h124v-458h514v458h124z" />
    <glyph glyph-name="uni04A4" unicode="&#x4a4;" 
d="M1201 1374l-12 -110h-275v-1264h-127v676h-503v-676h-128v1374h128v-598h503v598h414z" />
    <glyph glyph-name="uni04A5" unicode="&#x4a5;" 
d="M784 1050h418l-8 -108h-285l-1 1v-943h-124v483h-455v-483h-124v1050h124v-458h455v458z" />
    <glyph glyph-name="uni04A6" unicode="&#x4a6;" 
d="M1051.5 857q67.5 -39 104 -111t36.5 -168v-703q0 -96 -35.5 -161t-97.5 -96.5t-142 -31.5q-67 0 -120.5 20.5t-90.5 49.5l54 102q43 -26 75.5 -37t81.5 -11q63 0 96.5 38.5t33.5 115.5v724q0 89 -42 132t-119 43q-54 0 -103.5 -20t-101.5 -66v-677h-145v1238h-333v-1238
h-145v1374h623v-563q45 43 96 64t115 21q92 0 159.5 -39z" />
    <glyph glyph-name="uni04A7" unicode="&#x4a7;" 
d="M1062 667q59 -34 92 -94t33 -136v-570q0 -139 -74.5 -210t-206.5 -71q-69 0 -123 20.5t-91 49.5l54 96q44 -25 77 -36t80 -11q144 0 144 161v552q0 83 -37 127.5t-106 44.5q-65 0 -113.5 -23.5t-93.5 -71.5v-495h-143v935h-350v-935h-142v1050h635v-442q44 46 100.5 69.5
t130.5 23.5q75 0 134 -34z" />
    <glyph glyph-name="uni04A8" unicode="&#x4a8;" 
d="M1132.5 330q-31.5 -90 -93.5 -165.5t-151 -121.5q20 -23 19 -22q92 -106 135 -164l-100 -77q-48 61 -146 177l-34 40q-62 -14 -131 -14q-168 0 -292.5 81.5t-192 240.5t-67.5 385q0 221 75 380t197 240t261 81q112 0 190 -29t161 -94l-73 -96q-65 53 -132.5 77t-143.5 24
q-105 0 -193.5 -56.5t-144 -186.5t-55.5 -340q0 -298 110.5 -438t309.5 -140q20 0 30 1q-77 104 -118.5 196t-41.5 187q0 99 42.5 182.5t118 133t168.5 49.5q107 0 180 -46.5t108.5 -125.5t35.5 -178q0 -91 -31.5 -181zM703 311.5q35 -83.5 101 -168.5q97 43 148.5 138
t51.5 228q0 117 -40 172.5t-123 55.5q-85 0 -129 -64.5t-44 -176.5q0 -101 35 -184.5z" />
    <glyph glyph-name="uni04A9" unicode="&#x4a9;" 
d="M1019.5 211.5q-66.5 -106.5 -182.5 -167.5q55 -66 171 -188l-108 -76q-113 115 -195 215q-66 -15 -139 -15q-136 0 -236 62.5t-153.5 183t-53.5 289.5q0 168 50 293t144.5 193t224.5 68q70 0 127.5 -13t110.5 -44l-58 -94q-79 41 -175 41q-137 0 -211 -111.5t-74 -326.5
q0 -436 308 -436q33 0 63 3q-69 97 -100 178t-31 162t35 152t102 114t160 43q87 0 152 -38t100 -104.5t35 -152.5q0 -124 -66.5 -230.5zM681.5 283q27.5 -71 89.5 -156q85 43 126.5 123.5t41.5 185.5q0 83 -36.5 132t-102.5 49q-70 0 -108 -52t-38 -139q0 -72 27.5 -143z
" />
    <glyph glyph-name="uni04AA" unicode="&#x4aa;" 
d="M890.5 -124q38.5 -60 38.5 -128q0 -63 -29 -112t-82 -76t-123 -27q-107 0 -189 50l38 86q39 -20 67.5 -30t76.5 -10q56 0 85.5 31.5t29.5 87.5q0 67 -40.5 128.5t-115.5 108.5q-145 19 -259 106.5t-179 239.5t-65 356q0 224 77.5 383.5t208 241t286.5 81.5q125 0 213 -31
t172 -98l-78 -89q-65 55 -137.5 78.5t-155.5 23.5q-129 0 -230.5 -57.5t-162 -189t-60.5 -343.5q0 -208 58 -339.5t158 -190.5t231 -59q109 0 186 30.5t140 82.5l72 -92q-58 -55 -142.5 -92t-196.5 -45q69 -46 107.5 -106z" />
    <glyph glyph-name="uni04AB" unicode="&#x4ab;" 
d="M868 -120.5q41 -61.5 41 -131.5q0 -63 -29 -112t-82 -76t-123 -27q-107 0 -189 50l38 86q39 -20 67.5 -30t76.5 -10q56 0 85.5 31.5t29.5 87.5q0 65 -39 126t-111 107q-138 9 -236 77.5t-149 187t-51 275.5q0 158 56 282t164 195t258 71q193 0 341 -119l-66 -89
q-143 98 -281 98q-98 0 -173.5 -50t-118 -148.5t-42.5 -239.5q0 -143 42 -238.5t117.5 -142t174.5 -46.5q153 0 285 93l65 -84q-52 -43 -122 -73.5t-142 -42.5q72 -46 113 -107.5z" />
    <glyph glyph-name="uni04AC" unicode="&#x4ac;" 
d="M1105 1374l-14 -118h-431v-1140h131v-394h-104l-26 278h-128v1256h-443v118h1015z" />
    <glyph glyph-name="uni04AD" unicode="&#x4ad;" 
d="M1067 1050l-14 -112h-391v-829h169v-387h-110l-26 278h-157v938h-393v112h922z" />
    <glyph glyph-name="uni04AE" unicode="&#x4ae;" 
d="M1134 1374l-469 -840v-534h-130v532l-469 842h142l395 -717l400 717h131z" />
    <glyph glyph-name="uni04AF" unicode="&#x4af;" 
d="M661 -401l-122 -17v458l-404 1010h129l339 -882l332 882h130l-404 -1011v-440z" />
    <glyph glyph-name="uni04B0" unicode="&#x4b0;" 
d="M1003 1374h131l-403 -722h198v-119h-264v-533h-130v532l-1 1h-263v119h197l-402 722h142l395 -717z" />
    <glyph glyph-name="uni04B1" unicode="&#x4b1;" 
d="M935 1050h130l-362 -906h173v-123h-215v-422l-122 -17v439h-216v123h174l-362 906h129l339 -882z" />
    <glyph glyph-name="uni04B2" unicode="&#x4b2;" 
d="M673 741l378 -625h85v-394h-104l-26 278h-38l-372 650l-379 -650h-139l444 733l-405 641h153l330 -554l330 554h140z" />
    <glyph glyph-name="uni04B3" unicode="&#x4b3;" 
d="M674 561l318 -452h120v-387h-110l-26 278h-68l-311 468l-319 -468h-147l396 555l-344 495h153l266 -407l272 407h149z" />
    <glyph glyph-name="uni04B4" unicode="&#x4b4;" 
d="M1024 1374v-1258h102v-394h-122l-25 278h-701v1253h-278v121h702l-15 -121h-264v-1142h456v1263h145z" />
    <glyph glyph-name="uni04B5" unicode="&#x4b5;" 
d="M982 1050v-941h120v-387h-115l-26 278h-687v940h-274v110h685l-9 -110h-269v-828h442v938h133z" />
    <glyph glyph-name="uni04B6" unicode="&#x4b6;" 
d="M1014 116h131v-394h-104l-26 278h-128v586q-101 -74 -183 -104t-195 -30q-115 0 -204 49t-138.5 137t-49.5 201v535h128v-519q0 -138 76.5 -208t215.5 -70q213 0 350 135v662h127v-1258z" />
    <glyph glyph-name="uni04B7" unicode="&#x4b7;" 
d="M936 109h170v-387h-110l-26 278h-158v461q-62 -58 -151.5 -91.5t-187.5 -33.5q-148 0 -224.5 79t-76.5 225v410h124v-396q0 -113 47 -163.5t150 -50.5q86 0 177 37t142 98v475h124v-941z" />
    <glyph glyph-name="uni04B8" unicode="&#x4b8;" 
d="M887 1374h127v-1374h-127v586q-72 -52 -131 -81.5t-123 -41.5v-227h-112v216h-12q-115 0 -204 49t-138.5 137t-49.5 201v535h128v-519q0 -134 72 -204t204 -74v490h112v-482q149 24 254 127v662z" />
    <glyph glyph-name="uni04B9" unicode="&#x4b9;" 
d="M832 1050h124v-1050h-124v461q-44 -41 -102.5 -70.5t-124.5 -42.5v-160h-106v148h-6q-148 0 -224.5 79t-76.5 225v410h124v-396q0 -109 43.5 -160t139.5 -54v331h106v-321q68 15 129 47.5t98 77.5v475z" />
    <glyph glyph-name="uni04BA" unicode="&#x4ba;" 
d="M897 836.5q87 -50.5 135 -143.5t48 -219v-474h-127v472q0 136 -68.5 213t-197.5 77q-118 0 -205.5 -45.5t-168.5 -140.5v-576h-127v1374h127v-656q74 84 166.5 126.5t217.5 42.5q113 0 200 -50.5z" />
    <glyph glyph-name="uni04BB" unicode="&#x4bb;" 
d="M834.5 904q71.5 -39 110 -110.5t38.5 -166.5v-627h-124v599q0 128 -52.5 184.5t-148.5 56.5q-103 0 -175 -51.5t-134 -152.5l-5 8v-644h-124v1472l124 15v-716q121 172 324 172q95 0 166.5 -39z" />
    <glyph glyph-name="uni04BC" unicode="&#x4bc;" 
d="M408 631v-4h-4q4 -182 48.5 -300.5t117 -173t161.5 -54.5q64 0 111.5 13t79.5 30.5t76 47.5l72 -88q-65 -53 -142.5 -87.5t-188.5 -34.5q-136 0 -241.5 72.5t-168 218t-68.5 356.5q-83 1 -141 29.5t-87 76t-29 104.5q0 59 23 108.5t62 100.5l97 -48q-24 -49 -35 -81.5
t-11 -66.5q0 -48 27.5 -74.5t78.5 -26.5h17q11 196 72 342t160 224t223 78q119 0 212 -75t146 -227.5t53 -376.5q0 -38 -4 -83h-717zM502 1143.5q-82 -133.5 -98 -394.5h596q-28 528 -284 528q-132 0 -214 -133.5z" />
    <glyph glyph-name="uni04BD" unicode="&#x4bd;" 
d="M1094 475h-681q3 -123 45.5 -207.5t112.5 -126t156 -41.5q71 0 122.5 19t120.5 61l70 -92q-61 -48 -143 -78t-167 -30q-129 0 -228 62t-157 175t-65 263q-127 1 -191.5 57.5t-64.5 148.5q0 55 21 100t62 106l91 -47q-24 -49 -35.5 -82t-11.5 -67q0 -52 27.5 -80.5
t78.5 -28.5h24q11 140 66 249t146.5 171t207.5 62q123 0 212 -61.5t136.5 -176t47.5 -270.5q0 -23 -3 -86zM973 587q-4 182 -71.5 274t-196.5 92q-123 0 -200.5 -92.5t-89.5 -273.5h558z" />
    <glyph glyph-name="uni04BE" unicode="&#x4be;" 
d="M408 631v-4h-4q4 -182 48.5 -300.5t117 -173t161.5 -54.5q64 0 111.5 13t79.5 30.5t76 47.5l72 -88q-41 -34 -85 -60t-100 -42q-102 -48 -157.5 -87.5t-75.5 -73.5t-20 -71q0 -47 24.5 -71t85.5 -24q32 0 60.5 3t68.5 11l-16 -118q-37 -7 -64.5 -10.5t-64.5 -3.5
q-71 0 -122 25t-77.5 66.5t-26.5 90.5q0 149 188 246q-123 13 -217 89.5t-149.5 216.5t-60.5 338q-83 1 -141 29.5t-87 76t-29 104.5q0 59 23 108.5t62 100.5l97 -48q-24 -49 -35 -81.5t-11 -66.5q0 -48 27.5 -74.5t78.5 -26.5h17q11 196 72 342t160 224t223 78
q119 0 212 -75t146 -227.5t53 -376.5q0 -38 -4 -83h-717zM502 1143.5q-82 -133.5 -98 -394.5h596q-28 528 -284 528q-132 0 -214 -133.5z" />
    <glyph glyph-name="uni04BF" unicode="&#x4bf;" 
d="M1094 475h-681q3 -123 45.5 -207.5t112.5 -126t156 -41.5q71 0 122.5 19t120.5 61l70 -92q-77 -61 -178 -89q-101 -48 -155.5 -87t-74.5 -73t-20 -71q0 -47 24.5 -71t85.5 -24q32 0 60.5 3t68.5 11l-16 -118q-37 -7 -64.5 -10.5t-64.5 -3.5q-71 0 -122 25t-77.5 66.5
t-26.5 90.5q0 150 190 247q-113 14 -198.5 79t-135 172t-56.5 245q-127 1 -191.5 57.5t-64.5 148.5q0 55 21 100t62 106l91 -47q-24 -49 -35.5 -82t-11.5 -67q0 -52 27.5 -80.5t78.5 -28.5h24q11 140 66 249t146.5 171t207.5 62q123 0 212 -61.5t136.5 -176t47.5 -270.5
q0 -23 -3 -86zM973 587q-4 182 -71.5 274t-196.5 92q-123 0 -200.5 -92.5t-89.5 -273.5h558z" />
    <glyph glyph-name="uni04C0" unicode="&#x4c0;" 
d="M223 1374h754v-109h-312v-1156h312v-109h-754v109h312v1156h-312v109z" />
    <glyph glyph-name="uni04C1" unicode="&#x4c1;" 
d="M529 0v657h-142l-222 -657h-135l254 721l-223 653h137l189 -582h142v582h142v-582h142l192 582h134l-223 -653l254 -721h-139l-219 657h-141v-657h-142zM404.5 1615.5q-79.5 49.5 -90.5 150.5l99 24q23 -66 65.5 -92.5t115.5 -26.5q75 0 121 27t69 92l98 -24
q-11 -101 -93 -150.5t-195 -49.5q-110 0 -189.5 49.5z" />
    <glyph glyph-name="uni04C2" unicode="&#x4c2;" 
d="M665 0h-130v501h-130l-220 -501h-131l244 564l-220 486h139l189 -430h129v430h130v-430h129l194 430h134l-221 -486l244 -564h-139l-216 501h-125v-501zM404.5 1363.5q-79.5 49.5 -90.5 150.5l99 24q23 -66 65.5 -92.5t115.5 -26.5q75 0 121 27t69 92l98 -24
q-11 -101 -93 -150.5t-195 -49.5q-110 0 -189.5 49.5z" />
    <glyph glyph-name="uni04C3" unicode="&#x4c3;" 
d="M654 751q200 -22 294.5 -132t94.5 -297v-464q0 -134 -69.5 -203t-187.5 -69q-67 0 -120.5 20.5t-90.5 49.5l49 94q43 -27 77.5 -39t84.5 -12q63 0 96.5 38.5t33.5 115.5v468q0 110 -35.5 179t-114.5 103t-211 34h-242v-637h-127v1374h127v-618h217l360 618h146z" />
    <glyph glyph-name="uni04C4" unicode="&#x4c4;" 
d="M632 598q150 -12 230.5 -94t80.5 -238v-408q0 -88 -33.5 -149.5t-92.5 -92t-136 -30.5q-67 0 -120.5 20.5t-90.5 49.5l49 88q43 -25 77.5 -36.5t84.5 -11.5q65 0 101.5 37.5t36.5 116.5v383q0 95 -24.5 148t-78 76t-146.5 23h-210v-480h-124v1050h124v-456h138l297 456
h146z" />
    <glyph glyph-name="uni04C5" unicode="&#x4c5;" 
d="M964 89h180l-142 -367h-95l65 278h-135v1255h-356l-57 -463q-40 -303 -81 -454.5t-88 -216t-138 -138.5l-61 103q55 50 86.5 95.5t68 171.5t70.5 366l89 655h594v-1285z" />
    <glyph glyph-name="uni04C6" unicode="&#x4c6;" 
d="M952 88h142l-113 -366h-102l66 278h-117v938h-384l-29 -322q-21 -232 -48.5 -348t-73 -173.5t-136.5 -111.5l-54 81q58 35 91.5 78.5t59.5 151t42 315.5l34 441h622v-962z" />
    <glyph glyph-name="uni04C7" unicode="&#x4c7;" 
d="M887 1374h127v-1516q0 -134 -69.5 -203t-187.5 -69q-67 0 -120.5 20.5t-90.5 49.5l49 94q43 -27 77.5 -39t84.5 -12q63 0 96.5 38.5t33.5 115.5v821h-574v-674h-127v1374h127v-596h574v596z" />
    <glyph glyph-name="uni04C8" unicode="&#x4c8;" 
d="M857 1050h124v-1192q0 -88 -33.5 -149.5t-92.5 -92t-136 -30.5q-67 0 -120.5 20.5t-90.5 49.5l49 88q43 -25 77.5 -36.5t84.5 -11.5q65 0 101.5 37.5t36.5 116.5v633h-514v-483h-124v1050h124v-458h514v458z" />
    <glyph glyph-name="uni04C9" unicode="&#x4c9;" 
d="M959 1374v-1285h180l-142 -367h-95l65 278h-135v676h-543v-676h-127v1374h127v-598h543v598h127z" />
    <glyph glyph-name="uni04CA" unicode="&#x4ca;" 
d="M957 1050v-962h142l-113 -366h-102l66 278h-117v483h-484v-483h-124v1050h124v-458h484v458h124z" />
    <glyph glyph-name="uni04CB" unicode="&#x4cb;" 
d="M887 1374h127v-1374h-127l-26 -278h-104v394h130v470q-101 -74 -183 -104t-195 -30q-115 0 -204 49t-138.5 137t-49.5 201v535h128v-519q0 -138 76.5 -208t215.5 -70q213 0 350 135v662z" />
    <glyph glyph-name="uni04CC" unicode="&#x4cc;" 
d="M832 1050h124v-1050h-126l-26 -278h-110v387h138v354q-61 -57 -151 -90.5t-188 -33.5q-149 0 -225 78.5t-76 225.5v407h124v-393q0 -114 47 -164.5t150 -50.5q87 0 178.5 37t140.5 97v474z" />
    <glyph glyph-name="uni04CD" unicode="&#x4cd;" 
d="M1043 89h150l-143 -367h-112l65 278h-87l-50 757q-8 136 -14 318q-5 149 -7 155l-228 -980h-152l-241 980q-2 -11 -4 -140q-5 -231 -11 -330l-44 -760h-129l78 1374h213l219 -957l208 957h216z" />
    <glyph glyph-name="uni04CE" unicode="&#x4ce;" 
d="M1055 88h128l-114 -366h-110l66 278h-93l-49 560q-9 102 -9 215q0 81 4 158l-205 -753h-149l-232 753q3 -64 3 -132q0 -117 -7 -233l-35 -568h-129l75 1050h186l217 -738l199 738h183z" />
    <glyph glyph-name="uni04CF" unicode="&#x4cf;" 
d="M586 238q0 -78 49.5 -114t135.5 -36q88 0 185 38l36 -96q-43 -22 -103.5 -36t-129.5 -14q-84 0 -151.5 30.5t-106.5 89t-39 138.5v1129h-326v108h450v-1237z" />
    <glyph glyph-name="uni04D0" unicode="&#x4d0;" 
d="M1008 0l-121 367h-586l-121 -367h-120l455 1374h169l456 -1374h-132zM596 1255l-252 -772h501zM404.5 1615.5q-79.5 49.5 -90.5 150.5l99 24q23 -66 65.5 -92.5t115.5 -26.5q75 0 121 27t69 92l98 -24q-11 -101 -93 -150.5t-195 -49.5q-110 0 -189.5 49.5z" />
    <glyph glyph-name="uni04D1" unicode="&#x4d1;" 
d="M932 207q0 -62 21 -92.5t69 -44.5l-34 -91q-64 10 -109.5 46.5t-63.5 104.5q-55 -73 -137.5 -111.5t-186.5 -38.5q-103 0 -178.5 39.5t-115.5 112.5t-40 171q0 160 125 245t362 85h159v102q0 118 -67.5 170t-195.5 52q-121 0 -269 -53l-36 102q91 34 169 48.5t154 14.5
q121 0 205 -41t126.5 -115t42.5 -174v-532zM675 121q75 42 128 117v300h-174q-178 0 -256.5 -62t-78.5 -177q0 -110 54.5 -165t166.5 -55q85 0 160 42zM387.5 1363.5q-79.5 49.5 -90.5 150.5l99 24q23 -66 65.5 -92.5t115.5 -26.5q75 0 121 27t69 92l98 -24
q-11 -101 -93 -150.5t-195 -49.5q-110 0 -189.5 49.5z" />
    <glyph glyph-name="uni04D2" unicode="&#x4d2;" 
d="M1008 0l-121 367h-586l-121 -367h-120l455 1374h169l456 -1374h-132zM596 1255l-252 -772h501zM332.5 1564.5q-26.5 25.5 -26.5 64.5q0 41 26.5 67t67.5 26q38 0 64.5 -26t26.5 -67q0 -39 -26.5 -64.5t-64.5 -25.5q-41 0 -67.5 25.5zM732 1564.5q-26 25.5 -26 64.5
q0 41 26 67t65 26q41 0 67.5 -26t26.5 -67q0 -39 -26.5 -64.5t-67.5 -25.5q-39 0 -65 25.5z" />
    <glyph glyph-name="uni04D3" unicode="&#x4d3;" 
d="M932 207q0 -62 21 -92.5t69 -44.5l-34 -91q-64 10 -109.5 46.5t-63.5 104.5q-55 -73 -137.5 -111.5t-186.5 -38.5q-103 0 -178.5 39.5t-115.5 112.5t-40 171q0 160 125 245t362 85h159v102q0 118 -67.5 170t-195.5 52q-121 0 -269 -53l-36 102q91 34 169 48.5t154 14.5
q121 0 205 -41t126.5 -115t42.5 -174v-532zM675 121q75 42 128 117v300h-174q-178 0 -256.5 -62t-78.5 -177q0 -110 54.5 -165t166.5 -55q85 0 160 42zM315.5 1328.5q-26.5 25.5 -26.5 64.5q0 41 26.5 67t67.5 26q38 0 64.5 -26t26.5 -67q0 -39 -26.5 -64.5t-64.5 -25.5
q-41 0 -67.5 25.5zM715 1328.5q-26 25.5 -26 64.5q0 41 26 67t65 26q41 0 67.5 -26t26.5 -67q0 -39 -26.5 -64.5t-67.5 -25.5q-39 0 -65 25.5z" />
    <glyph glyph-name="uni04D4" unicode="&#x4d4;" 
d="M749 0l-80 365h-445l-112 -365h-136l420 1374h737l-17 -117h-503l112 -501h390v-117h-367l113 -522h357v-117h-469zM478 1262l-206 -775h366z" />
    </font>
</defs>
</svg>
